QLD Beginners-QLD Beginners Heavy.ufo
<glyph name="exclam" format="2">
  <advance width="327"/>
  <unicode hex="0021"/>
  <outline>
    <contour>
      <point x="264" y="605" type="line" smooth="yes"/>
      <point x="269" y="632"/>
      <point x="242" y="650"/>
      <point x="218" y="650" type="curve" smooth="yes"/>
      <point x="196" y="650"/>
      <point x="167" y="635"/>
      <point x="163" y="611" type="curve" smooth="yes"/>
      <point x="94" y="226" type="line" smooth="yes"/>
      <point x="89" y="197"/>
      <point x="113" y="177"/>
      <point x="138" y="175" type="curve" smooth="yes"/>
      <point x="161" y="173"/>
      <point x="190" y="191"/>
      <point x="195" y="220" type="curve" smooth="yes"/>
    </contour>
    <contour>
      <point x="108" y="-24" type="curve" smooth="yes"/>
      <point x="138" y="-24"/>
      <point x="166" y="2"/>
      <point x="166" y="31" type="curve" smooth="yes"/>
      <point x="166" y="60"/>
      <point x="138" y="86"/>
      <point x="108" y="86" type="curve" smooth="yes"/>
      <point x="77" y="86"/>
      <point x="56" y="58"/>
      <point x="56" y="31" type="curve" smooth="yes"/>
      <point x="56" y="4"/>
      <point x="77" y="-24"/>
    </contour>
  </outline>
</glyph>
<glyph name="quotedbl" format="2">
	<advance width="477"/>
	<unicode hex="0022"/>
	<outline>
		<contour>
			<point x="447" y="595" type="line" smooth="yes"/>
			<point x="453" y="629"/>
			<point x="427" y="650"/>
			<point x="399" y="650" type="curve" smooth="yes"/>
			<point x="376" y="650"/>
			<point x="352" y="635"/>
			<point x="347" y="610" type="curve" smooth="yes"/>
			<point x="329" y="510" type="line" smooth="yes"/>
			<point x="322" y="472"/>
			<point x="353" y="456"/>
			<point x="377" y="456" type="curve" smooth="yes"/>
			<point x="399" y="456"/>
			<point x="426" y="470"/>
			<point x="430" y="496" type="curve" smooth="yes"/>
		</contour>
		<contour>
			<point x="288" y="594" type="line" smooth="yes"/>
			<point x="294" y="628"/>
			<point x="270" y="650"/>
			<point x="242" y="650" type="curve" smooth="yes"/>
			<point x="219" y="650"/>
			<point x="193" y="634"/>
			<point x="188" y="606" type="curve" smooth="yes"/>
			<point x="171" y="510" type="line" smooth="yes"/>
			<point x="165" y="477"/>
			<point x="190" y="456"/>
			<point x="218" y="456" type="curve" smooth="yes"/>
			<point x="241" y="456"/>
			<point x="266" y="471"/>
			<point x="271" y="498" type="curve" smooth="yes"/>
		</contour>
	</outline>
</glyph>
<glyph name="numbersign" format="2">
	<advance width="829"/>
	<unicode hex="0023"/>
	<outline>
		<contour>
			<point x="650" y="523" type="line" smooth="yes"/>
			<point x="656" y="555"/>
			<point x="632" y="568"/>
			<point x="609" y="568" type="curve" smooth="yes"/>
			<point x="585" y="568"/>
			<point x="557" y="558"/>
			<point x="552" y="531" type="curve" smooth="yes"/>
			<point x="467" y="47" type="line" smooth="yes"/>
			<point x="461" y="13"/>
			<point x="487" y="0"/>
			<point x="514" y="0" type="curve" smooth="yes"/>
			<point x="538" y="0"/>
			<point x="560" y="11"/>
			<point x="565" y="39" type="curve" smooth="yes"/>
		</contour>
		<contour>
			<point x="675" y="133" type="line" smooth="yes"/>
			<point x="704" y="133"/>
			<point x="724" y="153"/>
			<point x="724" y="177" type="curve" smooth="yes"/>
			<point x="724" y="200"/>
			<point x="705" y="218"/>
			<point x="675" y="218" type="curve" smooth="yes"/>
			<point x="163" y="218" type="line" smooth="yes"/>
			<point x="133" y="218"/>
			<point x="113" y="200"/>
			<point x="113" y="177" type="curve" smooth="yes"/>
			<point x="113" y="153"/>
			<point x="134" y="133"/>
			<point x="163" y="133" type="curve" smooth="yes"/>
		</contour>
		<contour>
			<point x="409" y="523" type="line" smooth="yes"/>
			<point x="414" y="552"/>
			<point x="390" y="568"/>
			<point x="363" y="568" type="curve" smooth="yes"/>
			<point x="338" y="568"/>
			<point x="317" y="557"/>
			<point x="312" y="530" type="curve" smooth="yes"/>
			<point x="226" y="47" type="line" smooth="yes"/>
			<point x="220" y="16"/>
			<point x="240" y="0"/>
			<point x="266" y="0" type="curve" smooth="yes"/>
			<point x="290" y="0"/>
			<point x="319" y="10"/>
			<point x="324" y="39" type="curve" smooth="yes"/>
		</contour>
		<contour>
			<point x="713" y="357" type="line" smooth="yes"/>
			<point x="743" y="357"/>
			<point x="764" y="375"/>
			<point x="764" y="399" type="curve" smooth="yes"/>
			<point x="764" y="422"/>
			<point x="743" y="442"/>
			<point x="713" y="442" type="curve" smooth="yes"/>
			<point x="202" y="442" type="line" smooth="yes"/>
			<point x="172" y="442"/>
			<point x="152" y="422"/>
			<point x="152" y="399" type="curve" smooth="yes"/>
			<point x="152" y="375"/>
			<point x="172" y="357"/>
			<point x="202" y="357" type="curve" smooth="yes"/>
		</contour>
	</outline>
</glyph>
<glyph name="dollar" format="2">
	<advance width="631"/>
	<unicode hex="0024"/>
	<outline>
		<contour>
			<point x="244" y="-4" type="line" smooth="yes"/>
			<point x="339" y="-4"/>
			<point x="525" y="13"/>
			<point x="525" y="161" type="curve" smooth="yes"/>
			<point x="525" y="253"/>
			<point x="452" y="282"/>
			<point x="372" y="329" type="curve" smooth="yes"/>
			<point x="310" y="365"/>
			<point x="261" y="388"/>
			<point x="261" y="417" type="curve" smooth="yes"/>
			<point x="261" y="455"/>
			<point x="343" y="477"/>
			<point x="411" y="477" type="curve" smooth="yes"/>
			<point x="545" y="477" type="line" smooth="yes"/>
			<point x="572" y="477"/>
			<point x="592" y="498"/>
			<point x="592" y="523" type="curve" smooth="yes"/>
			<point x="592" y="548"/>
			<point x="572" y="568"/>
			<point x="541" y="568" type="curve" smooth="yes"/>
			<point x="412" y="568" type="line" smooth="yes"/>
			<point x="277" y="568"/>
			<point x="164" y="504"/>
			<point x="164" y="412" type="curve" smooth="yes"/>
			<point x="164" y="331"/>
			<point x="249" y="294"/>
			<point x="322" y="251" type="curve" smooth="yes"/>
			<point x="395" y="209"/>
			<point x="428" y="197"/>
			<point x="428" y="160" type="curve" smooth="yes"/>
			<point x="428" y="92"/>
			<point x="304" y="87"/>
			<point x="244" y="87" type="curve" smooth="yes"/>
			<point x="148" y="87" type="line" smooth="yes"/>
			<point x="120" y="87"/>
			<point x="97" y="66"/>
			<point x="97" y="41" type="curve" smooth="yes"/>
			<point x="97" y="16"/>
			<point x="117" y="-4"/>
			<point x="148" y="-4" type="curve" smooth="yes"/>
		</contour>
		<contour>
			<point x="454" y="594" type="line" smooth="yes"/>
			<point x="460" y="629"/>
			<point x="437" y="650"/>
			<point x="411" y="650" type="curve" smooth="yes"/>
			<point x="389" y="650"/>
			<point x="364" y="635"/>
			<point x="359" y="606" type="curve" smooth="yes"/>
			<point x="248" y="-28" type="line" smooth="yes"/>
			<point x="242" y="-61"/>
			<point x="265" y="-80"/>
			<point x="290" y="-80" type="curve" smooth="yes"/>
			<point x="312" y="-80"/>
			<point x="337" y="-65"/>
			<point x="342" y="-38" type="curve" smooth="yes"/>
		</contour>
	</outline>
</glyph>
<glyph name="percent" format="2">
	<advance width="640"/>
	<unicode hex="0025"/>
	<outline>
		<contour>
			<point x="513" y="588" type="line" smooth="yes"/>
			<point x="529" y="624"/>
			<point x="498" y="650"/>
			<point x="468" y="650" type="curve" smooth="yes"/>
			<point x="448" y="650"/>
			<point x="426" y="639"/>
			<point x="415" y="614" type="curve" smooth="yes"/>
			<point x="175" y="60" type="line" smooth="yes"/>
			<point x="160" y="25"/>
			<point x="189" y="0"/>
			<point x="221" y="0" type="curve" smooth="yes"/>
			<point x="240" y="0"/>
			<point x="262" y="10"/>
			<point x="272" y="32" type="curve" smooth="yes"/>
		</contour>
		<contour>
			<point x="436" y="-4" type="curve" smooth="yes"/>
			<point x="515" y="-4"/>
			<point x="586" y="106"/>
			<point x="586" y="175" type="curve" smooth="yes"/>
			<point x="586" y="223"/>
			<point x="554" y="252"/>
			<point x="498" y="252" type="curve" smooth="yes"/>
			<point x="449" y="252"/>
			<point x="417" y="219"/>
			<point x="401" y="191" type="curve" smooth="yes"/>
			<point x="389" y="171"/>
			<point x="372" y="126"/>
			<point x="372" y="76" type="curve" smooth="yes"/>
			<point x="372" y="8"/>
			<point x="408" y="-4"/>
		</contour>
		<contour>
			<point x="453" y="74" type="curve" smooth="yes"/>
			<point x="449" y="74"/>
			<point x="447" y="90"/>
			<point x="448" y="102" type="curve" smooth="yes"/>
			<point x="451" y="122"/>
			<point x="457" y="141"/>
			<point x="467" y="160" type="curve" smooth="yes"/>
			<point x="475" y="175"/>
			<point x="485" y="178"/>
			<point x="495" y="178" type="curve" smooth="yes"/>
			<point x="506" y="178"/>
			<point x="506" y="169"/>
			<point x="505" y="153" type="curve" smooth="yes"/>
			<point x="503" y="121"/>
			<point x="471" y="74"/>
		</contour>
		<contour>
			<point x="177" y="398" type="curve" smooth="yes"/>
			<point x="256" y="398"/>
			<point x="327" y="508"/>
			<point x="327" y="577" type="curve" smooth="yes"/>
			<point x="327" y="625"/>
			<point x="295" y="654"/>
			<point x="239" y="654" type="curve" smooth="yes"/>
			<point x="190" y="654"/>
			<point x="158" y="621"/>
			<point x="142" y="593" type="curve" smooth="yes"/>
			<point x="130" y="573"/>
			<point x="113" y="528"/>
			<point x="113" y="478" type="curve" smooth="yes"/>
			<point x="113" y="410"/>
			<point x="149" y="398"/>
		</contour>
		<contour>
			<point x="194" y="476" type="curve" smooth="yes"/>
			<point x="190" y="476"/>
			<point x="188" y="492"/>
			<point x="189" y="504" type="curve" smooth="yes"/>
			<point x="192" y="524"/>
			<point x="198" y="543"/>
			<point x="208" y="562" type="curve" smooth="yes"/>
			<point x="216" y="577"/>
			<point x="226" y="580"/>
			<point x="236" y="580" type="curve" smooth="yes"/>
			<point x="247" y="580"/>
			<point x="247" y="571"/>
			<point x="246" y="555" type="curve" smooth="yes"/>
			<point x="244" y="523"/>
			<point x="212" y="476"/>
		</contour>
	</outline>
</glyph>
<glyph name="ampersand" format="2">
  <advance width="644"/>
  <unicode hex="0026"/>
  <outline>
    <contour>
      <point x="398" y="23" type="line" smooth="yes"/>
      <point x="411" y="3"/>
      <point x="447" y="-9"/>
      <point x="471" y="8" type="curve" smooth="yes"/>
      <point x="496" y="27"/>
      <point x="491" y="52"/>
      <point x="477" y="73" type="curve" smooth="yes"/>
      <point x="298" y="335" type="line"/>
      <point x="211" y="344" type="line"/>
      <point x="147" y="297"/>
      <point x="102" y="243"/>
      <point x="92" y="190" type="curve" smooth="yes"/>
      <point x="77" y="108"/>
      <point x="137" y="-4"/>
      <point x="264" y="-4" type="curve" smooth="yes"/>
      <point x="363" y="-4"/>
      <point x="405" y="63"/>
      <point x="467" y="168" type="curve" smooth="yes"/>
      <point x="481" y="190"/>
      <point x="473" y="213"/>
      <point x="452" y="225" type="curve" smooth="yes"/>
      <point x="430" y="238"/>
      <point x="398" y="231"/>
      <point x="383" y="209" type="curve" smooth="yes"/>
      <point x="325" y="120"/>
      <point x="311" y="86"/>
      <point x="264" y="86" type="curve" smooth="yes"/>
      <point x="208" y="86"/>
      <point x="177" y="123"/>
      <point x="186" y="169" type="curve" smooth="yes"/>
      <point x="191" y="197"/>
      <point x="211" y="225"/>
      <point x="242" y="251" type="curve"/>
    </contour>
    <contour>
      <point x="302" y="325" type="line"/>
      <point x="271" y="369"/>
      <point x="234" y="419"/>
      <point x="234" y="441" type="curve" smooth="yes"/>
      <point x="234" y="460"/>
      <point x="259" y="478"/>
      <point x="304" y="478" type="curve" smooth="yes"/>
      <point x="331" y="478"/>
      <point x="338" y="473"/>
      <point x="340" y="465" type="curve" smooth="yes"/>
      <point x="346" y="438"/>
      <point x="281" y="386"/>
      <point x="187" y="333" type="curve"/>
      <point x="290" y="284" type="line"/>
      <point x="376" y="344"/>
      <point x="453" y="409"/>
      <point x="430" y="489" type="curve" smooth="yes"/>
      <point x="415" y="543"/>
      <point x="361" y="568"/>
      <point x="304" y="568" type="curve" smooth="yes"/>
      <point x="209" y="568"/>
      <point x="138" y="504"/>
      <point x="138" y="439" type="curve" smooth="yes"/>
      <point x="138" y="386"/>
      <point x="187" y="325"/>
      <point x="220" y="276" type="curve"/>
    </contour>
  </outline>
</glyph>
<glyph name="quotesingle" format="2">
	<advance width="211"/>
	<unicode hex="0027"/>
	<outline>
		<contour>
			<point x="233" y="595" type="line" smooth="yes"/>
			<point x="238" y="629"/>
			<point x="213" y="650"/>
			<point x="185" y="650" type="curve" smooth="yes"/>
			<point x="162" y="650"/>
			<point x="139" y="635"/>
			<point x="133" y="610" type="curve" smooth="yes"/>
			<point x="115" y="510" type="line" smooth="yes"/>
			<point x="109" y="472"/>
			<point x="139" y="456"/>
			<point x="163" y="456" type="curve" smooth="yes"/>
			<point x="185" y="456"/>
			<point x="212" y="470"/>
			<point x="216" y="496" type="curve" smooth="yes"/>
		</contour>
	</outline>
</glyph>
<glyph name="parenleft" format="2">
	<advance width="491"/>
	<unicode hex="0028"/>
	<outline>
		<contour>
			<point x="293" y="-295" type="curve" smooth="yes"/>
			<point x="308" y="-283"/>
			<point x="313" y="-264"/>
			<point x="301" y="-235" type="curve"/>
			<point x="220" y="-66"/>
			<point x="208" y="80"/>
			<point x="232" y="213" type="curve" smooth="yes"/>
			<point x="253" y="333"/>
			<point x="323" y="456"/>
			<point x="441" y="574" type="curve" smooth="yes"/>
			<point x="472" y="605"/>
			<point x="467" y="628"/>
			<point x="453" y="643" type="curve" smooth="yes"/>
			<point x="438" y="658"/>
			<point x="405" y="659"/>
			<point x="374" y="631" type="curve" smooth="yes"/>
			<point x="242" y="505"/>
			<point x="147" y="330"/>
			<point x="128" y="221" type="curve" smooth="yes"/>
			<point x="107" y="96"/>
			<point x="132" y="-95"/>
			<point x="221" y="-275" type="curve" smooth="yes"/>
			<point x="236" y="-303"/>
			<point x="272" y="-310"/>
		</contour>
	</outline>
</glyph>
<glyph name="parenright" format="2">
	<advance width="373"/>
	<unicode hex="0029"/>
	<outline>
		<contour>
			<point x="63" y="-270" type="curve" smooth="yes"/>
			<point x="209" y="-132"/>
			<point x="298" y="41"/>
			<point x="321" y="164" type="curve" smooth="yes"/>
			<point x="339" y="274"/>
			<point x="311" y="469"/>
			<point x="231" y="631" type="curve" smooth="yes"/>
			<point x="210" y="669"/>
			<point x="181" y="679"/>
			<point x="159" y="669" type="curve" smooth="yes"/>
			<point x="141" y="660"/>
			<point x="129" y="640"/>
			<point x="146" y="601" type="curve" smooth="yes"/>
			<point x="217" y="448"/>
			<point x="241" y="309"/>
			<point x="220" y="190" type="curve" smooth="yes"/>
			<point x="197" y="56"/>
			<point x="136" y="-76"/>
			<point x="4" y="-207" type="curve" smooth="yes"/>
			<point x="-16" y="-225"/>
			<point x="-26" y="-249"/>
			<point x="-11" y="-267" type="curve" smooth="yes"/>
			<point x="5" y="-289"/>
			<point x="42" y="-291"/>
		</contour>
	</outline>
</glyph>
<glyph name="asterisk" format="2">
	<advance width="431"/>
	<unicode hex="002A"/>
	<outline>
		<contour>
			<point x="372" y="554" type="line" smooth="yes"/>
			<point x="398" y="570"/>
			<point x="408" y="594"/>
			<point x="393" y="617" type="curve" smooth="yes"/>
			<point x="382" y="633"/>
			<point x="354" y="639"/>
			<point x="329" y="625" type="curve" smooth="yes"/>
			<point x="196" y="543" type="line"/>
			<point x="174" y="527"/>
			<point x="162" y="504"/>
			<point x="175" y="483" type="curve" smooth="yes"/>
			<point x="185" y="464"/>
			<point x="216" y="458"/>
			<point x="243" y="474" type="curve" smooth="yes"/>
		</contour>
		<contour>
			<point x="308" y="477" type="line"/>
			<point x="333" y="460"/>
			<point x="362" y="464"/>
			<point x="376" y="481" type="curve" smooth="yes"/>
			<point x="389" y="499"/>
			<point x="387" y="521"/>
			<point x="365" y="538" type="curve" smooth="yes"/>
			<point x="260" y="621" type="line" smooth="yes"/>
			<point x="238" y="638"/>
			<point x="209" y="634"/>
			<point x="196" y="617" type="curve" smooth="yes"/>
			<point x="181" y="599"/>
			<point x="183" y="576"/>
			<point x="207" y="558" type="curve" smooth="yes"/>
		</contour>
		<contour>
			<point x="341" y="616" type="line" smooth="yes"/>
			<point x="346" y="648"/>
			<point x="326" y="668"/>
			<point x="302" y="668" type="curve" smooth="yes"/>
			<point x="281" y="668"/>
			<point x="258" y="651"/>
			<point x="253" y="624" type="curve" smooth="yes"/>
			<point x="228" y="482" type="line" smooth="yes"/>
			<point x="223" y="453"/>
			<point x="239" y="436"/>
			<point x="260" y="431" type="curve" smooth="yes"/>
			<point x="282" y="426"/>
			<point x="310" y="443"/>
			<point x="316" y="474" type="curve" smooth="yes"/>
		</contour>
	</outline>
</glyph>
<glyph name="plus" format="2">
	<advance width="537"/>
	<unicode hex="002B"/>
	<outline>
		<contour>
			<point x="337" y="296" type="line" smooth="yes"/>
			<point x="342" y="329"/>
			<point x="319" y="350"/>
			<point x="292" y="350" type="curve" smooth="yes"/>
			<point x="272" y="350"/>
			<point x="250" y="337"/>
			<point x="245" y="310" type="curve" smooth="yes"/>
			<point x="208" y="95" type="line" smooth="yes"/>
			<point x="203" y="62"/>
			<point x="226" y="41"/>
			<point x="253" y="41" type="curve" smooth="yes"/>
			<point x="273" y="41"/>
			<point x="295" y="54"/>
			<point x="300" y="81" type="curve" smooth="yes"/>
		</contour>
		<contour>
			<point x="381" y="154" type="line" smooth="yes"/>
			<point x="412" y="154"/>
			<point x="432" y="174"/>
			<point x="432" y="198" type="curve" smooth="yes"/>
			<point x="432" y="221"/>
			<point x="412" y="241"/>
			<point x="381" y="241" type="curve" smooth="yes"/>
			<point x="164" y="241" type="line" smooth="yes"/>
			<point x="133" y="241"/>
			<point x="113" y="221"/>
			<point x="113" y="198" type="curve" smooth="yes"/>
			<point x="113" y="174"/>
			<point x="133" y="154"/>
			<point x="164" y="154" type="curve" smooth="yes"/>
		</contour>
	</outline>
</glyph>
<glyph name="comma" format="2">
	<advance width="319"/>
	<unicode hex="002C"/>
	<outline>
		<contour>
			<point x="187" y="39" type="line" smooth="yes"/>
			<point x="192" y="71"/>
			<point x="171" y="91"/>
			<point x="144" y="94" type="curve" smooth="yes"/>
			<point x="119" y="97"/>
			<point x="92" y="83"/>
			<point x="87" y="54" type="curve" smooth="yes"/>
			<point x="70" y="-45" type="line" smooth="yes"/>
			<point x="65" y="-76"/>
			<point x="85" y="-97"/>
			<point x="110" y="-101" type="curve" smooth="yes"/>
			<point x="134" y="-105"/>
			<point x="164" y="-90"/>
			<point x="169" y="-60" type="curve" smooth="yes"/>
		</contour>
	</outline>
</glyph>
<glyph name="hyphen" format="2">
	<advance width="362"/>
	<unicode hex="002D"/>
	<outline>
		<contour>
			<point x="259" y="153" type="line" smooth="yes"/>
			<point x="290" y="153"/>
			<point x="311" y="173"/>
			<point x="311" y="198" type="curve" smooth="yes"/>
			<point x="311" y="222"/>
			<point x="290" y="242"/>
			<point x="259" y="242" type="curve" smooth="yes"/>
			<point x="111" y="242" type="line" smooth="yes"/>
			<point x="78" y="242"/>
			<point x="57" y="220"/>
			<point x="59" y="194" type="curve" smooth="yes"/>
			<point x="61" y="171"/>
			<point x="82" y="153"/>
			<point x="111" y="153" type="curve" smooth="yes"/>
		</contour>
	</outline>
</glyph>
<glyph name="period" format="2">
  <advance width="328"/>
  <unicode hex="002E"/>
  <outline>
    <contour>
      <point x="107" y="-30" type="curve" smooth="yes"/>
      <point x="136" y="-30"/>
      <point x="162" y="-4"/>
      <point x="162" y="26" type="curve" smooth="yes"/>
      <point x="162" y="55"/>
      <point x="136" y="80"/>
      <point x="107" y="80" type="curve" smooth="yes"/>
      <point x="76" y="80"/>
      <point x="52" y="55"/>
      <point x="52" y="26" type="curve" smooth="yes"/>
      <point x="52" y="-3"/>
      <point x="76" y="-30"/>
    </contour>
  </outline>
</glyph>
<glyph name="slash" format="2">
	<advance width="464"/>
	<unicode hex="002F"/>
	<outline>
		<contour>
			<point x="431" y="588" type="line" smooth="yes"/>
			<point x="447" y="624"/>
			<point x="416" y="650"/>
			<point x="386" y="650" type="curve" smooth="yes"/>
			<point x="366" y="650"/>
			<point x="344" y="639"/>
			<point x="333" y="614" type="curve" smooth="yes"/>
			<point x="93" y="60" type="line" smooth="yes"/>
			<point x="78" y="25"/>
			<point x="107" y="0"/>
			<point x="139" y="0" type="curve" smooth="yes"/>
			<point x="158" y="0"/>
			<point x="180" y="10"/>
			<point x="190" y="32" type="curve" smooth="yes"/>
		</contour>
	</outline>
</glyph>
<glyph name="zero" format="2">
	<advance width="495"/>
	<unicode hex="0030"/>
	<outline>
		<contour>
			<point x="180" y="-4" type="curve" smooth="yes"/>
			<point x="315" y="-3"/>
			<point x="480" y="223"/>
			<point x="480" y="395" type="curve" smooth="yes"/>
			<point x="480" y="471"/>
			<point x="448" y="568"/>
			<point x="328" y="568" type="curve" smooth="yes"/>
			<point x="128" y="568"/>
			<point x="53" y="290"/>
			<point x="53" y="172" type="curve" smooth="yes"/>
			<point x="53" y="91"/>
			<point x="90" y="-4"/>
		</contour>
		<contour>
			<point x="180" y="88" type="curve" smooth="yes"/>
			<point x="164" y="88"/>
			<point x="152" y="107"/>
			<point x="152" y="168" type="curve" smooth="yes"/>
			<point x="152" y="281"/>
			<point x="220" y="476"/>
			<point x="330" y="476" type="curve" smooth="yes"/>
			<point x="372" y="476"/>
			<point x="381" y="449"/>
			<point x="381" y="398" type="curve" smooth="yes"/>
			<point x="381" y="225"/>
			<point x="230" y="88"/>
		</contour>
	</outline>
</glyph>
<glyph name="one" format="2">
  <advance width="495"/>
  <unicode hex="0031"/>
  <outline>
    <contour>
      <point x="328" y="518" type="line" smooth="yes"/>
      <point x="333" y="548"/>
      <point x="309" y="568"/>
      <point x="282" y="568" type="curve" smooth="yes"/>
      <point x="259" y="568"/>
      <point x="233" y="554"/>
      <point x="228" y="526" type="curve" smooth="yes"/>
      <point x="144" y="51" type="line" smooth="yes"/>
      <point x="138" y="18"/>
      <point x="164" y="0"/>
      <point x="191" y="0" type="curve" smooth="yes"/>
      <point x="213" y="0"/>
      <point x="238" y="12"/>
      <point x="243" y="39" type="curve" smooth="yes"/>
    </contour>
  </outline>
</glyph>
<glyph name="two" format="2">
  <advance width="495"/>
  <unicode hex="0032"/>
  <outline>
    <contour>
      <point x="108" y="0" type="line"/>
      <point x="150" y="49" type="line"/>
      <point x="205" y="112"/>
      <point x="325" y="251"/>
      <point x="336" y="264" type="curve" smooth="yes"/>
      <point x="461" y="417"/>
      <point x="475" y="491"/>
      <point x="384" y="547" type="curve" smooth="yes"/>
      <point x="309" y="593"/>
      <point x="181" y="558"/>
      <point x="117" y="504" type="curve" smooth="yes"/>
      <point x="83" y="476"/>
      <point x="89" y="454"/>
      <point x="106" y="434" type="curve" smooth="yes"/>
      <point x="118" y="421"/>
      <point x="148" y="413"/>
      <point x="186" y="443" type="curve" smooth="yes"/>
      <point x="231" y="479"/>
      <point x="304" y="493"/>
      <point x="336" y="473" type="curve" smooth="yes"/>
      <point x="363" y="457"/>
      <point x="326" y="398"/>
      <point x="279" y="343" type="curve" smooth="yes"/>
      <point x="253" y="313"/>
      <point x="156" y="205"/>
      <point x="31" y="65" type="curve" smooth="yes"/>
      <point x="0" y="29"/>
      <point x="25" y="0"/>
      <point x="65" y="0" type="curve" smooth="yes"/>
    </contour>
    <contour>
      <point x="64" y="0" type="line"/>
      <point x="320" y="0" type="line" smooth="yes"/>
      <point x="350" y="0"/>
      <point x="370" y="14"/>
      <point x="370" y="41" type="curve" smooth="yes"/>
      <point x="370" y="65"/>
      <point x="352" y="86"/>
      <point x="320" y="86" type="curve" smooth="yes"/>
      <point x="64" y="86" type="line"/>
    </contour>
  </outline>
</glyph>
<glyph name="three" format="2">
  <advance width="495"/>
  <unicode hex="0033"/>
  <outline>
    <contour>
      <point x="166" y="250" type="line"/>
      <point x="223" y="279"/>
      <point x="242" y="282"/>
      <point x="270" y="282" type="curve" smooth="yes"/>
      <point x="309" y="282"/>
      <point x="325" y="262"/>
      <point x="319" y="228" type="curve" smooth="yes"/>
      <point x="304" y="145"/>
      <point x="214" y="86"/>
      <point x="139" y="86" type="curve" smooth="yes"/>
      <point x="121" y="86"/>
      <point x="108" y="90"/>
      <point x="95" y="100" type="curve" smooth="yes"/>
      <point x="64" y="124"/>
      <point x="29" y="113"/>
      <point x="18" y="93" type="curve" smooth="yes"/>
      <point x="7" y="76"/>
      <point x="5" y="54"/>
      <point x="38" y="28" type="curve" smooth="yes"/>
      <point x="64" y="7"/>
      <point x="101" y="-4"/>
      <point x="138" y="-4" type="curve" smooth="yes"/>
      <point x="258" y="-4"/>
      <point x="393" y="96"/>
      <point x="416" y="229" type="curve" smooth="yes"/>
      <point x="431" y="313"/>
      <point x="373" y="379"/>
      <point x="281" y="379" type="curve" smooth="yes"/>
      <point x="238" y="379"/>
      <point x="187" y="366"/>
      <point x="134" y="339" type="curve"/>
    </contour>
    <contour>
      <point x="176" y="256" type="curve" smooth="yes"/>
      <point x="289" y="334"/>
      <point x="400" y="410"/>
      <point x="413" y="481" type="curve" smooth="yes"/>
      <point x="423" y="535"/>
      <point x="363" y="568"/>
      <point x="295" y="568" type="curve" smooth="yes"/>
      <point x="241" y="568"/>
      <point x="180" y="550"/>
      <point x="120" y="510" type="curve" smooth="yes"/>
      <point x="87" y="489"/>
      <point x="88" y="463"/>
      <point x="100" y="445" type="curve" smooth="yes"/>
      <point x="112" y="423"/>
      <point x="141" y="424"/>
      <point x="164" y="439" type="curve" smooth="yes"/>
      <point x="219" y="476"/>
      <point x="269" y="488"/>
      <point x="300" y="488" type="curve" smooth="yes"/>
      <point x="307" y="488"/>
      <point x="317" y="487"/>
      <point x="316" y="481" type="curve" smooth="yes"/>
      <point x="313" y="465"/>
      <point x="199" y="381"/>
      <point x="122" y="333" type="curve" smooth="yes"/>
      <point x="95" y="316"/>
      <point x="94" y="290"/>
      <point x="104" y="270" type="curve" smooth="yes"/>
      <point x="115" y="249"/>
      <point x="149" y="237"/>
    </contour>
  </outline>
</glyph>
<glyph name="four" format="2">
  <advance width="495"/>
  <unicode hex="0034"/>
  <outline>
    <contour>
      <point x="211" y="519" type="line" smooth="yes"/>
      <point x="217" y="551"/>
      <point x="191" y="568"/>
      <point x="165" y="568" type="curve" smooth="yes"/>
      <point x="142" y="568"/>
      <point x="116" y="555"/>
      <point x="111" y="527" type="curve" smooth="yes"/>
      <point x="48" y="170" type="line" smooth="yes"/>
      <point x="44" y="145"/>
      <point x="65" y="122"/>
      <point x="97" y="122" type="curve" smooth="yes"/>
      <point x="123" y="122"/>
      <point x="144" y="140"/>
      <point x="148" y="164" type="curve" smooth="yes"/>
    </contour>
    <contour>
      <point x="306" y="279" type="line" smooth="yes"/>
      <point x="311" y="308"/>
      <point x="300" y="326"/>
      <point x="276" y="331" type="curve" smooth="yes"/>
      <point x="252" y="335"/>
      <point x="232" y="320"/>
      <point x="227" y="292" type="curve" smooth="yes"/>
      <point x="185" y="59" type="line" smooth="yes"/>
      <point x="179" y="26"/>
      <point x="189" y="0"/>
      <point x="215" y="0" type="curve" smooth="yes"/>
      <point x="243" y="0"/>
      <point x="259" y="16"/>
      <point x="264" y="44" type="curve" smooth="yes"/>
    </contour>
    <contour>
      <point x="96" y="122" type="line"/>
      <point x="379" y="122" type="line" smooth="yes"/>
      <point x="407" y="122"/>
      <point x="428" y="143"/>
      <point x="428" y="168" type="curve" smooth="yes"/>
      <point x="428" y="192"/>
      <point x="407" y="212"/>
      <point x="379" y="212" type="curve" smooth="yes"/>
      <point x="96" y="212" type="line"/>
    </contour>
  </outline>
</glyph>
<glyph name="five" format="2">
  <advance width="495"/>
  <unicode hex="0035"/>
  <outline>
    <contour>
      <point x="126" y="265" type="line"/>
      <point x="178" y="281"/>
      <point x="182" y="281"/>
      <point x="209" y="281" type="curve" smooth="yes"/>
      <point x="269" y="281"/>
      <point x="287" y="248"/>
      <point x="287" y="215" type="curve" smooth="yes"/>
      <point x="287" y="164"/>
      <point x="230" y="83"/>
      <point x="152" y="83" type="curve" smooth="yes"/>
      <point x="134" y="83"/>
      <point x="119" y="86"/>
      <point x="109" y="93" type="curve" smooth="yes"/>
      <point x="97" y="101"/>
      <point x="88" y="110"/>
      <point x="75" y="110" type="curve" smooth="yes"/>
      <point x="50" y="110"/>
      <point x="27" y="97"/>
      <point x="27" y="72" type="curve" smooth="yes"/>
      <point x="27" y="58"/>
      <point x="33" y="45"/>
      <point x="47" y="31" type="curve" smooth="yes"/>
      <point x="71" y="8"/>
      <point x="110" y="-3"/>
      <point x="151" y="-3" type="curve" smooth="yes"/>
      <point x="291" y="-3"/>
      <point x="387" y="125"/>
      <point x="387" y="216" type="curve" smooth="yes"/>
      <point x="387" y="298"/>
      <point x="317" y="372"/>
      <point x="206" y="372" type="curve" smooth="yes"/>
      <point x="172" y="372"/>
      <point x="135" y="364"/>
      <point x="94" y="348" type="curve"/>
    </contour>
    <contour>
      <point x="209" y="529" type="line"/>
      <point x="181" y="571" type="line"/>
      <point x="159" y="571"/>
      <point x="138" y="571"/>
      <point x="127" y="562" type="curve" smooth="yes"/>
      <point x="117" y="554"/>
      <point x="111" y="543"/>
      <point x="108" y="528" type="curve" smooth="yes"/>
      <point x="69" y="312" type="line" smooth="yes"/>
      <point x="63" y="281"/>
      <point x="92" y="264"/>
      <point x="116" y="264" type="curve" smooth="yes"/>
      <point x="138" y="264"/>
      <point x="166" y="281"/>
      <point x="170" y="304" type="curve" smooth="yes"/>
    </contour>
    <contour>
      <point x="164" y="487" type="line"/>
      <point x="395" y="487" type="line" smooth="yes"/>
      <point x="427" y="487"/>
      <point x="444" y="505"/>
      <point x="444" y="529" type="curve" smooth="yes"/>
      <point x="444" y="556"/>
      <point x="425" y="571"/>
      <point x="395" y="571" type="curve" smooth="yes"/>
      <point x="179" y="571" type="line"/>
    </contour>
  </outline>
</glyph>
<glyph name="six" format="2">
  <advance width="385"/>
  <unicode hex="0036"/>
  <outline>
    <contour>
      <point x="355" y="559" type="curve" smooth="yes"/>
      <point x="340" y="576"/>
      <point x="314" y="581"/>
      <point x="289" y="568" type="curve"/>
      <point x="241" y="540"/>
      <point x="160" y="467"/>
      <point x="110" y="396" type="curve" smooth="yes"/>
      <point x="55" y="319"/>
      <point x="10" y="247"/>
      <point x="10" y="118" type="curve"/>
      <point x="105" y="140" type="line"/>
      <point x="105" y="231"/>
      <point x="137" y="265"/>
      <point x="192" y="347" type="curve"/>
      <point x="234" y="406"/>
      <point x="274" y="446"/>
      <point x="342" y="494" type="curve" smooth="yes"/>
      <point x="372" y="516"/>
      <point x="370" y="541"/>
    </contour>
    <contour>
      <point x="138" y="-1" type="curve" smooth="yes"/>
      <point x="245" y="-1"/>
      <point x="347" y="143"/>
      <point x="347" y="247" type="curve" smooth="yes"/>
      <point x="347" y="316"/>
      <point x="302" y="353"/>
      <point x="226" y="353" type="curve" smooth="yes"/>
      <point x="153" y="353"/>
      <point x="72" y="304"/>
      <point x="41" y="243" type="curve"/>
      <point x="10" y="118" type="line"/>
      <point x="10" y="48"/>
      <point x="57" y="-1"/>
    </contour>
    <contour>
      <point x="136" y="87" type="curve" smooth="yes"/>
      <point x="118" y="87"/>
      <point x="105" y="99"/>
      <point x="105" y="140" type="curve" smooth="yes"/>
      <point x="105" y="204"/>
      <point x="147" y="270"/>
      <point x="224" y="270" type="curve" smooth="yes"/>
      <point x="247" y="270"/>
      <point x="253" y="260"/>
      <point x="253" y="242" type="curve" smooth="yes"/>
      <point x="253" y="180"/>
      <point x="184" y="87"/>
    </contour>
  </outline>
</glyph>
<glyph name="seven" format="2">
  <advance width="495"/>
  <unicode hex="0037"/>
  <outline>
    <contour>
      <point x="398" y="524" type="line" smooth="yes"/>
      <point x="403" y="551"/>
      <point x="394" y="568"/>
      <point x="351" y="568" type="curve" smooth="yes"/>
      <point x="329" y="568"/>
      <point x="306" y="558"/>
      <point x="302" y="537" type="curve" smooth="yes"/>
      <point x="216" y="50" type="line" smooth="yes"/>
      <point x="211" y="20"/>
      <point x="233" y="0"/>
      <point x="260" y="0" type="curve" smooth="yes"/>
      <point x="283" y="0"/>
      <point x="308" y="15"/>
      <point x="313" y="42" type="curve" smooth="yes"/>
    </contour>
    <contour>
      <point x="352" y="488" type="line"/>
      <point x="352" y="568" type="line"/>
      <point x="119" y="568" type="line" smooth="yes"/>
      <point x="89" y="568"/>
      <point x="69" y="551"/>
      <point x="69" y="527" type="curve" smooth="yes"/>
      <point x="69" y="503"/>
      <point x="89" y="488"/>
      <point x="119" y="488" type="curve" smooth="yes"/>
    </contour>
  </outline>
</glyph>
<glyph name="eight" format="2">
  <advance width="400"/>
  <unicode hex="0038"/>
  <outline>
    <contour>
      <point x="168" y="81" type="curve" smooth="yes"/>
      <point x="209" y="81"/>
      <point x="240" y="114"/>
      <point x="240" y="148" type="curve" smooth="yes"/>
      <point x="240" y="191"/>
      <point x="197" y="236"/>
      <point x="173" y="263" type="curve" smooth="yes"/>
      <point x="146" y="292" type="line" smooth="yes"/>
      <point x="126" y="314"/>
      <point x="68" y="355"/>
      <point x="68" y="428" type="curve" smooth="yes"/>
      <point x="68" y="526"/>
      <point x="167" y="569"/>
      <point x="244" y="569" type="curve" smooth="yes"/>
      <point x="306" y="569"/>
      <point x="394" y="539"/>
      <point x="394" y="472" type="curve" smooth="yes"/>
      <point x="394" y="405"/>
      <point x="288" y="334"/>
      <point x="219" y="284" type="curve" smooth="yes"/>
      <point x="134" y="222"/>
      <point x="115" y="177"/>
      <point x="115" y="148" type="curve" smooth="yes"/>
      <point x="115" y="108"/>
      <point x="135" y="81"/>
    </contour>
    <contour>
      <point x="163" y="-4" type="curve" smooth="yes"/>
      <point x="52" y="-4"/>
      <point x="18" y="80"/>
      <point x="18" y="141" type="curve" smooth="yes"/>
      <point x="18" y="197"/>
      <point x="54" y="278"/>
      <point x="149" y="347" type="curve" smooth="yes"/>
      <point x="204" y="387"/>
      <point x="299" y="456"/>
      <point x="299" y="471" type="curve" smooth="yes"/>
      <point x="299" y="486"/>
      <point x="260" y="488"/>
      <point x="228" y="488" type="curve" smooth="yes"/>
      <point x="193" y="488"/>
      <point x="166" y="470"/>
      <point x="166" y="433" type="curve" smooth="yes"/>
      <point x="166" y="390"/>
      <point x="200" y="367"/>
      <point x="220" y="347" type="curve" smooth="yes"/>
      <point x="247" y="321" type="line" smooth="yes"/>
      <point x="291" y="278"/>
      <point x="338" y="219"/>
      <point x="338" y="157" type="curve" smooth="yes"/>
      <point x="338" y="87"/>
      <point x="278" y="-4"/>
    </contour>
  </outline>
</glyph>
<glyph name="nine" format="2">
  <advance width="445"/>
  <unicode hex="0039"/>
  <outline>
    <contour>
      <point x="33" y="291" type="curve" smooth="yes"/>
      <point x="33" y="226"/>
      <point x="66" y="196"/>
      <point x="108" y="196" type="curve" smooth="yes"/>
      <point x="196" y="196"/>
      <point x="354" y="439"/>
      <point x="394" y="527" type="curve"/>
      <point x="314" y="527" type="line"/>
      <point x="286" y="479"/>
      <point x="155" y="302"/>
      <point x="141" y="302" type="curve" smooth="yes"/>
      <point x="136" y="302"/>
      <point x="135" y="315"/>
      <point x="135" y="320" type="curve" smooth="yes"/>
      <point x="135" y="343"/>
      <point x="146" y="408"/>
      <point x="168" y="440" type="curve" smooth="yes"/>
      <point x="191" y="476"/>
      <point x="226.0" y="481.0"/>
      <point x="255" y="481" type="curve" smooth="yes"/>
      <point x="333" y="481" type="line"/>
      <point x="358" y="481" type="line"/>
      <point x="358" y="568" type="line"/>
      <point x="255" y="568" type="line" smooth="yes"/>
      <point x="196.0" y="568.0"/>
      <point x="130" y="554"/>
      <point x="89" y="493" type="curve" smooth="yes"/>
      <point x="56" y="443"/>
      <point x="33" y="348"/>
    </contour>
    <contour>
      <point x="271" y="-5" type="curve" smooth="yes"/>
      <point x="294" y="-5"/>
      <point x="321" y="10"/>
      <point x="326" y="36" type="curve" smooth="yes"/>
      <point x="409" y="506" type="line" smooth="yes"/>
      <point x="418" y="555"/>
      <point x="403" y="568"/>
      <point x="370" y="568" type="curve" smooth="yes"/>
      <point x="301" y="568" type="line"/>
      <point x="301" y="469" type="line"/>
      <point x="226" y="43" type="line" smooth="yes"/>
      <point x="220" y="11"/>
      <point x="249" y="-5"/>
    </contour>
  </outline>
</glyph>
<glyph name="colon" format="2">
	<advance width="220"/>
	<unicode hex="003A"/>
	<outline>
		<contour>
			<point x="119" y="175" type="curve" smooth="yes"/>
			<point x="149" y="175"/>
			<point x="175" y="202"/>
			<point x="175" y="232" type="curve" smooth="yes"/>
			<point x="175" y="261"/>
			<point x="149" y="285"/>
			<point x="120" y="285" type="curve" smooth="yes"/>
			<point x="89" y="285"/>
			<point x="65" y="259"/>
			<point x="65" y="231" type="curve" smooth="yes"/>
			<point x="65" y="203"/>
			<point x="89" y="175"/>
		</contour>
		<contour>
			<point x="83" y="-30" type="curve" smooth="yes"/>
			<point x="113" y="-30"/>
			<point x="139" y="-4"/>
			<point x="139" y="26" type="curve" smooth="yes"/>
			<point x="139" y="56"/>
			<point x="113" y="80"/>
			<point x="83" y="80" type="curve" smooth="yes"/>
			<point x="52" y="80"/>
			<point x="29" y="55"/>
			<point x="29" y="26" type="curve" smooth="yes"/>
			<point x="29" y="-3"/>
			<point x="52" y="-30"/>
		</contour>
	</outline>
</glyph>
<glyph name="semicolon" format="2">
	<advance width="327"/>
	<unicode hex="003B"/>
	<outline>
		<contour>
			<point x="190" y="39" type="line" smooth="yes"/>
			<point x="196" y="71"/>
			<point x="174" y="91"/>
			<point x="147" y="94" type="curve" smooth="yes"/>
			<point x="122" y="97"/>
			<point x="95" y="83"/>
			<point x="90" y="54" type="curve" smooth="yes"/>
			<point x="73" y="-45" type="line" smooth="yes"/>
			<point x="67" y="-78"/>
			<point x="91" y="-100"/>
			<point x="118" y="-102" type="curve" smooth="yes"/>
			<point x="141" y="-104"/>
			<point x="167" y="-89"/>
			<point x="172" y="-60" type="curve" smooth="yes"/>
		</contour>
		<contour>
			<point x="173" y="175" type="curve" smooth="yes"/>
			<point x="202" y="175"/>
			<point x="228" y="203"/>
			<point x="228" y="231" type="curve" smooth="yes"/>
			<point x="228" y="262"/>
			<point x="202" y="285"/>
			<point x="173" y="285" type="curve" smooth="yes"/>
			<point x="142" y="285"/>
			<point x="119" y="260"/>
			<point x="119" y="231" type="curve" smooth="yes"/>
			<point x="119" y="204"/>
			<point x="142" y="175"/>
		</contour>
	</outline>
</glyph>
<glyph name="less" format="2">
	<advance width="404"/>
	<unicode hex="003C"/>
	<outline>
		<contour>
			<point x="114" y="148" type="line"/>
			<point x="339" y="266" type="line" smooth="yes"/>
			<point x="369" y="281"/>
			<point x="377" y="301"/>
			<point x="371" y="323" type="curve" smooth="yes"/>
			<point x="364" y="347"/>
			<point x="334" y="363"/>
			<point x="303" y="348" type="curve" smooth="yes"/>
			<point x="62" y="220" type="line"/>
		</contour>
		<contour>
			<point x="255" y="49" type="line" smooth="yes"/>
			<point x="280" y="34"/>
			<point x="309" y="38"/>
			<point x="323" y="56" type="curve" smooth="yes"/>
			<point x="339" y="78"/>
			<point x="334" y="102"/>
			<point x="309" y="121" type="curve"/>
			<point x="138" y="229" type="line"/>
			<point x="114" y="246"/>
			<point x="83" y="239"/>
			<point x="69" y="217" type="curve" smooth="yes"/>
			<point x="56" y="195"/>
			<point x="59" y="175"/>
			<point x="84" y="158" type="curve" smooth="yes"/>
		</contour>
	</outline>
</glyph>
<glyph name="equal" format="2">
	<advance width="430"/>
	<unicode hex="003D"/>
	<outline>
		<contour>
			<point x="344" y="248" type="line" smooth="yes"/>
			<point x="374" y="248"/>
			<point x="395" y="266"/>
			<point x="395" y="290" type="curve" smooth="yes"/>
			<point x="395" y="314"/>
			<point x="374" y="333"/>
			<point x="344" y="333" type="curve" smooth="yes"/>
			<point x="126" y="333" type="line" smooth="yes"/>
			<point x="96" y="333"/>
			<point x="75" y="314"/>
			<point x="75" y="290" type="curve" smooth="yes"/>
			<point x="75" y="266"/>
			<point x="96" y="248"/>
			<point x="126" y="248" type="curve" smooth="yes"/>
		</contour>
		<contour>
			<point x="318" y="97" type="line" smooth="yes"/>
			<point x="348" y="97"/>
			<point x="369" y="116"/>
			<point x="369" y="141" type="curve" smooth="yes"/>
			<point x="369" y="165"/>
			<point x="348" y="182"/>
			<point x="318" y="182" type="curve" smooth="yes"/>
			<point x="100" y="182" type="line" smooth="yes"/>
			<point x="70" y="182"/>
			<point x="49" y="165"/>
			<point x="49" y="141" type="curve" smooth="yes"/>
			<point x="49" y="117"/>
			<point x="70" y="97"/>
			<point x="100" y="97" type="curve" smooth="yes"/>
		</contour>
	</outline>
</glyph>
<glyph name="greater" format="2">
	<advance width="403"/>
	<unicode hex="003E"/>
	<outline>
		<contour>
			<point x="349" y="173" type="line"/>
			<point x="297" y="245" type="line"/>
			<point x="72" y="127" type="line" smooth="yes"/>
			<point x="42" y="112"/>
			<point x="34" y="92"/>
			<point x="40" y="70" type="curve" smooth="yes"/>
			<point x="47" y="46"/>
			<point x="77" y="30"/>
			<point x="108" y="45" type="curve" smooth="yes"/>
		</contour>
		<contour>
			<point x="273" y="164" type="line"/>
			<point x="297" y="147"/>
			<point x="328" y="154"/>
			<point x="342" y="176" type="curve" smooth="yes"/>
			<point x="355" y="198"/>
			<point x="352" y="218"/>
			<point x="327" y="235" type="curve" smooth="yes"/>
			<point x="156" y="344" type="line" smooth="yes"/>
			<point x="131" y="359"/>
			<point x="102" y="355"/>
			<point x="88" y="337" type="curve" smooth="yes"/>
			<point x="72" y="315"/>
			<point x="77" y="291"/>
			<point x="102" y="272" type="curve"/>
		</contour>
	</outline>
</glyph>
<glyph name="question" format="2">
	<advance width="577"/>
	<unicode hex="003F"/>
	<outline>
		<contour>
			<point x="257" y="267" type="line"/>
			<point x="432" y="256"/>
			<point x="507" y="353"/>
			<point x="533" y="492" type="curve" smooth="yes"/>
			<point x="548" y="577"/>
			<point x="474" y="654"/>
			<point x="377" y="654" type="curve" smooth="yes"/>
			<point x="260" y="654"/>
			<point x="193" y="586"/>
			<point x="176" y="493" type="curve" smooth="yes"/>
			<point x="169" y="458"/>
			<point x="184" y="439"/>
			<point x="205" y="434" type="curve" smooth="yes"/>
			<point x="230" y="427"/>
			<point x="265" y="443"/>
			<point x="270" y="476" type="curve" smooth="yes"/>
			<point x="278" y="524"/>
			<point x="303" y="565"/>
			<point x="365" y="565" type="curve" smooth="yes"/>
			<point x="416" y="565"/>
			<point x="446" y="545"/>
			<point x="438" y="504" type="curve" smooth="yes"/>
			<point x="431" y="459"/>
			<point x="410" y="345"/>
			<point x="278" y="356" type="curve"/>
		</contour>
		<contour>
			<point x="224" y="-24" type="curve" smooth="yes"/>
			<point x="253" y="-24"/>
			<point x="281" y="2"/>
			<point x="281" y="32" type="curve" smooth="yes"/>
			<point x="281" y="61"/>
			<point x="255" y="86"/>
			<point x="225" y="86" type="curve" smooth="yes"/>
			<point x="194" y="86"/>
			<point x="171" y="60"/>
			<point x="171" y="32" type="curve" smooth="yes"/>
			<point x="171" y="4"/>
			<point x="194" y="-24"/>
		</contour>
		<contour>
			<point x="327" y="313" type="line" smooth="yes"/>
			<point x="332" y="338"/>
			<point x="308" y="356"/>
			<point x="279" y="356" type="curve" smooth="yes"/>
			<point x="258" y="356"/>
			<point x="236" y="342"/>
			<point x="232" y="321" type="curve" smooth="yes"/>
			<point x="216" y="233" type="line" smooth="yes"/>
			<point x="211" y="207"/>
			<point x="226" y="182"/>
			<point x="255" y="176" type="curve" smooth="yes"/>
			<point x="281" y="171"/>
			<point x="305" y="193"/>
			<point x="311" y="225" type="curve" smooth="yes"/>
		</contour>
	</outline>
</glyph>
<glyph name="at" format="2">
  <advance width="780"/>
  <unicode hex="0040"/>
  <outline>
    <contour>
      <point x="605" y="69" type="line"/>
      <point x="659" y="131"/>
      <point x="675" y="193"/>
      <point x="681" y="228" type="curve" smooth="yes"/>
      <point x="710" y="391"/>
      <point x="631" y="487"/>
      <point x="449" y="487" type="curve" smooth="yes"/>
      <point x="366" y="487"/>
      <point x="262" y="473"/>
      <point x="194" y="423" type="curve" smooth="yes"/>
      <point x="100" y="353"/>
      <point x="66" y="227"/>
      <point x="50" y="134" type="curve" smooth="yes"/>
      <point x="26" y="-4"/>
      <point x="67" y="-128"/>
      <point x="246" y="-128" type="curve" smooth="yes"/>
      <point x="298" y="-128"/>
      <point x="343" y="-116"/>
      <point x="374" y="-96" type="curve" smooth="yes"/>
      <point x="424" y="-65"/>
      <point x="422" y="-43"/>
      <point x="406" y="-19" type="curve" smooth="yes"/>
      <point x="396" y="-4"/>
      <point x="372" y="9"/>
      <point x="340" y="-12" type="curve" smooth="yes"/>
      <point x="305" y="-36"/>
      <point x="272" y="-40"/>
      <point x="242" y="-40" type="curve" smooth="yes"/>
      <point x="162" y="-40"/>
      <point x="127" y="28"/>
      <point x="144" y="127" type="curve" smooth="yes"/>
      <point x="154" y="186"/>
      <point x="175" y="295"/>
      <point x="246" y="349" type="curve" smooth="yes"/>
      <point x="298" y="389"/>
      <point x="376" y="397"/>
      <point x="447" y="397" type="curve" smooth="yes"/>
      <point x="575" y="397"/>
      <point x="606" y="348"/>
      <point x="589" y="249" type="curve" smooth="yes"/>
      <point x="582" y="208"/>
      <point x="562" y="160"/>
      <point x="528" y="118" type="curve"/>
    </contour>
    <contour>
      <point x="527" y="307" type="line"/>
      <point x="458" y="303" type="line"/>
      <point x="431" y="258"/>
      <point x="402" y="211"/>
      <point x="364" y="163" type="curve" smooth="yes"/>
      <point x="311" y="97"/>
      <point x="289" y="86"/>
      <point x="284" y="86" type="curve" smooth="yes"/>
      <point x="279" y="86"/>
      <point x="279" y="105"/>
      <point x="279" y="110" type="curve" smooth="yes"/>
      <point x="279" y="133"/>
      <point x="293" y="195"/>
      <point x="312" y="225" type="curve" smooth="yes"/>
      <point x="334" y="258"/>
      <point x="367" y="265"/>
      <point x="391" y="265" type="curve" smooth="yes"/>
      <point x="397" y="265"/>
      <point x="457" y="265"/>
      <point x="464" y="265" type="curve" smooth="yes"/>
      <point x="498" y="265" type="line"/>
      <point x="498" y="289"/>
      <point x="498" y="328"/>
      <point x="498" y="350" type="curve"/>
      <point x="475" y="350"/>
      <point x="410" y="350"/>
      <point x="391" y="350" type="curve" smooth="yes"/>
      <point x="336" y="350"/>
      <point x="273" y="335"/>
      <point x="235" y="276" type="curve" smooth="yes"/>
      <point x="205" y="229"/>
      <point x="185" y="139"/>
      <point x="185" y="85" type="curve" smooth="yes"/>
      <point x="185" y="25"/>
      <point x="202" y="-2"/>
      <point x="243" y="-2" type="curve" smooth="yes"/>
      <point x="306" y="-2"/>
      <point x="368" y="52"/>
      <point x="406" y="97" type="curve" smooth="yes"/>
      <point x="449" y="153"/>
      <point x="500" y="223"/>
      <point x="515" y="269" type="curve" smooth="yes"/>
    </contour>
    <contour>
      <point x="560" y="166" type="line"/>
      <point x="533" y="116"/>
      <point x="507" y="111"/>
      <point x="503" y="111" type="curve" smooth="yes"/>
      <point x="496" y="111"/>
      <point x="496" y="121"/>
      <point x="498" y="131" type="curve" smooth="yes"/>
      <point x="500" y="143"/>
      <point x="505" y="169"/>
      <point x="506" y="175" type="curve" smooth="yes"/>
      <point x="530" y="305" type="line" smooth="yes"/>
      <point x="535" y="333"/>
      <point x="517" y="350"/>
      <point x="489" y="350" type="curve" smooth="yes"/>
      <point x="442" y="350" type="line"/>
      <point x="406" y="153" type="line" smooth="yes"/>
      <point x="402" y="132"/>
      <point x="400" y="106"/>
      <point x="400" y="87" type="curve" smooth="yes"/>
      <point x="400" y="27"/>
      <point x="436" y="-1"/>
      <point x="479" y="-1" type="curve" smooth="yes"/>
      <point x="547" y="-1"/>
      <point x="607" y="60"/>
      <point x="635" y="113" type="curve"/>
    </contour>
  </outline>
</glyph>
<glyph name="A" format="2">
	<advance width="609"/>
	<unicode hex="0041"/>
	<outline>
		<contour>
			<point x="448" y="591" type="line"/>
			<point x="453" y="604" type="line"/>
			<point x="458" y="630"/>
			<point x="437" y="650"/>
			<point x="406" y="650" type="curve" smooth="yes"/>
			<point x="372" y="650"/>
			<point x="364" y="636"/>
			<point x="355" y="616" type="curve"/>
			<point x="65" y="60" type="line" smooth="yes"/>
			<point x="46" y="24"/>
			<point x="72" y="0"/>
			<point x="102" y="0" type="curve" smooth="yes"/>
			<point x="129" y="0"/>
			<point x="144" y="8"/>
			<point x="157" y="33" type="curve" smooth="yes"/>
		</contour>
		<contour>
			<point x="206" y="270" type="line"/>
			<point x="455" y="270" type="line"/>
			<point x="447" y="350" type="line"/>
			<point x="249" y="350" type="line"/>
		</contour>
		<contour>
			<point x="453" y="619" type="line"/>
			<point x="362" y="584" type="line"/>
			<point x="408" y="40" type="line" smooth="yes"/>
			<point x="410" y="16"/>
			<point x="426" y="0"/>
			<point x="457" y="0" type="curve" smooth="yes"/>
			<point x="485" y="0"/>
			<point x="505" y="15"/>
			<point x="502" y="46" type="curve" smooth="yes"/>
		</contour>
	</outline>
</glyph>
<glyph name="B" format="2">
	<advance width="650"/>
	<unicode hex="0042"/>
	<outline>
		<contour>
			<point x="218" y="277" type="line"/>
			<point x="518" y="277"/>
			<point x="584" y="344"/>
			<point x="600" y="462" type="curve" smooth="yes"/>
			<point x="618" y="597"/>
			<point x="495" y="650"/>
			<point x="238" y="650" type="curve"/>
			<point x="221" y="560" type="line"/>
			<point x="452" y="560"/>
			<point x="508" y="529"/>
			<point x="500" y="467" type="curve" smooth="yes"/>
			<point x="493" y="413"/>
			<point x="475" y="358"/>
			<point x="231" y="358" type="curve"/>
		</contour>
		<contour>
			<point x="134" y="0" type="line"/>
			<point x="427" y="0"/>
			<point x="528" y="26"/>
			<point x="545" y="151" type="curve" smooth="yes"/>
			<point x="564" y="292"/>
			<point x="413" y="358"/>
			<point x="226" y="358" type="curve"/>
			<point x="212" y="277" type="line"/>
			<point x="389" y="277"/>
			<point x="456" y="241"/>
			<point x="446" y="168" type="curve" smooth="yes"/>
			<point x="438" y="110"/>
			<point x="367" y="90"/>
			<point x="149" y="90" type="curve"/>
		</contour>
		<contour>
			<point x="289" y="599" type="line" smooth="yes"/>
			<point x="297" y="643"/>
			<point x="264" y="650"/>
			<point x="240" y="650" type="curve" smooth="yes"/>
			<point x="216" y="650"/>
			<point x="195" y="642"/>
			<point x="189" y="609" type="curve" smooth="yes"/>
			<point x="91" y="53" type="line" smooth="yes"/>
			<point x="86" y="23"/>
			<point x="108" y="0"/>
			<point x="138" y="0" type="curve" smooth="yes"/>
			<point x="161" y="0"/>
			<point x="185" y="11"/>
			<point x="191" y="44" type="curve" smooth="yes"/>
		</contour>
	</outline>
</glyph>
<glyph name="C" format="2">
	<advance width="549"/>
	<unicode hex="0043"/>
	<outline>
		<contour>
			<point x="219" y="-4" type="curve" smooth="yes"/>
			<point x="305" y="-4"/>
			<point x="399" y="47"/>
			<point x="479" y="166" type="curve" smooth="yes"/>
			<point x="503" y="201"/>
			<point x="504" y="210"/>
			<point x="504" y="219" type="curve" smooth="yes"/>
			<point x="504" y="243"/>
			<point x="482" y="259"/>
			<point x="458" y="259" type="curve" smooth="yes"/>
			<point x="435" y="259"/>
			<point x="422" y="248"/>
			<point x="400" y="218" type="curve" smooth="yes"/>
			<point x="329" y="115"/>
			<point x="275" y="85"/>
			<point x="225" y="85" type="curve" smooth="yes"/>
			<point x="189" y="85"/>
			<point x="167" y="113"/>
			<point x="167" y="148" type="curve" smooth="yes"/>
			<point x="167" y="214"/>
			<point x="185" y="308"/>
			<point x="191" y="343" type="curve" smooth="yes"/>
			<point x="212" y="454"/>
			<point x="253" y="561"/>
			<point x="457" y="561" type="curve" smooth="yes"/>
			<point x="512" y="561"/>
			<point x="538" y="563"/>
			<point x="552" y="571" type="curve" smooth="yes"/>
			<point x="578" y="587"/>
			<point x="580" y="623"/>
			<point x="555" y="641" type="curve" smooth="yes"/>
			<point x="542" y="650"/>
			<point x="514" y="650"/>
			<point x="458" y="650" type="curve" smooth="yes"/>
			<point x="182" y="650"/>
			<point x="116" y="494"/>
			<point x="89" y="341" type="curve" smooth="yes"/>
			<point x="85" y="321"/>
			<point x="67" y="212"/>
			<point x="67" y="149" type="curve" smooth="yes"/>
			<point x="67" y="80"/>
			<point x="106" y="-4"/>
		</contour>
	</outline>
</glyph>
<glyph name="D" format="2">
	<advance width="649"/>
	<unicode hex="0044"/>
	<outline>
		<contour>
			<point x="135" y="0" type="line"/>
			<point x="213" y="0" type="line" smooth="yes"/>
			<point x="406" y="0"/>
			<point x="550" y="129"/>
			<point x="580" y="351" type="curve" smooth="yes"/>
			<point x="603" y="523"/>
			<point x="482" y="650"/>
			<point x="290" y="650" type="curve" smooth="yes"/>
			<point x="240" y="650" type="line"/>
			<point x="232" y="561" type="line"/>
			<point x="295" y="561" type="line" smooth="yes"/>
			<point x="433" y="561"/>
			<point x="499" y="473"/>
			<point x="483" y="350" type="curve" smooth="yes"/>
			<point x="460" y="177"/>
			<point x="356" y="89"/>
			<point x="213" y="89" type="curve" smooth="yes"/>
			<point x="153" y="89" type="line"/>
		</contour>
		<contour>
			<point x="289" y="600" type="line" smooth="yes"/>
			<point x="296" y="641"/>
			<point x="269" y="650"/>
			<point x="241" y="650" type="curve" smooth="yes"/>
			<point x="209" y="650"/>
			<point x="194" y="636"/>
			<point x="189" y="609" type="curve" smooth="yes"/>
			<point x="90" y="49" type="line" smooth="yes"/>
			<point x="85" y="21"/>
			<point x="105" y="0"/>
			<point x="137" y="0" type="curve" smooth="yes"/>
			<point x="164" y="0"/>
			<point x="185" y="15"/>
			<point x="190" y="41" type="curve" smooth="yes"/>
		</contour>
	</outline>
</glyph>
<glyph name="E" format="2">
  <advance width="521"/>
  <unicode hex="0045"/>
  <outline>
    <contour>
      <point x="26" y="50" type="line" smooth="yes"/>
      <point x="21" y="22"/>
      <point x="33" y="0"/>
      <point x="63" y="0" type="curve" smooth="yes"/>
      <point x="95" y="0"/>
      <point x="121" y="18"/>
      <point x="125" y="40" type="curve" smooth="yes"/>
      <point x="223" y="597" type="line" smooth="yes"/>
      <point x="230" y="638"/>
      <point x="206" y="650"/>
      <point x="178" y="650" type="curve" smooth="yes"/>
      <point x="147" y="650"/>
      <point x="130" y="639"/>
      <point x="125" y="611" type="curve" smooth="yes"/>
    </contour>
    <contour>
      <point x="460.0" y="50" type="curve" smooth="yes"/>
      <point x="460.0" y="79"/>
      <point x="444.0" y="95"/>
      <point x="412.0" y="95" type="curve" smooth="yes"/>
      <point x="84.0" y="95" type="line"/>
      <point x="70.0" y="0.0" type="line"/>
      <point x="410.0" y="0.0" type="line" smooth="yes"/>
      <point x="440.0" y="0.0"/>
      <point x="460.0" y="19"/>
    </contour>
    <contour>
      <point x="482.0" y="312" type="curve" smooth="yes"/>
      <point x="482.0" y="340"/>
      <point x="463.0" y="358"/>
      <point x="433.0" y="358" type="curve" smooth="yes"/>
      <point x="132.0" y="358" type="line"/>
      <point x="116.0" y="266" type="line"/>
      <point x="428.0" y="266" type="line" smooth="yes"/>
      <point x="460.0" y="266"/>
      <point x="482.0" y="287"/>
    </contour>
    <contour>
      <point x="560" y="606" type="curve" smooth="yes"/>
      <point x="560" y="631"/>
      <point x="542" y="650"/>
      <point x="511" y="650" type="curve" smooth="yes"/>
      <point x="185" y="650" type="line"/>
      <point x="169" y="555" type="line"/>
      <point x="509" y="555" type="line" smooth="yes"/>
      <point x="539" y="555"/>
      <point x="560" y="580"/>
    </contour>
  </outline>
</glyph>
<glyph name="F" format="2">
  <advance width="506"/>
  <unicode hex="0046"/>
  <outline>
    <contour>
      <point x="26" y="54" type="line" smooth="yes"/>
      <point x="21" y="27"/>
      <point x="29" y="0"/>
      <point x="61" y="0" type="curve" smooth="yes"/>
      <point x="99" y="0"/>
      <point x="121" y="21"/>
      <point x="126" y="51" type="curve" smooth="yes"/>
      <point x="222" y="597" type="line" smooth="yes"/>
      <point x="229" y="638"/>
      <point x="203" y="650"/>
      <point x="175" y="650" type="curve" smooth="yes"/>
      <point x="144" y="650"/>
      <point x="129" y="638"/>
      <point x="124" y="610" type="curve" smooth="yes"/>
    </contour>
    <contour>
      <point x="471" y="308" type="curve" smooth="yes"/>
      <point x="471" y="334"/>
      <point x="456.0" y="356.0"/>
      <point x="424" y="356" type="curve" smooth="yes"/>
      <point x="128" y="356" type="line"/>
      <point x="112" y="265" type="line"/>
      <point x="422" y="265" type="line" smooth="yes"/>
      <point x="454.0" y="265.0"/>
      <point x="471" y="284"/>
    </contour>
    <contour>
      <point x="549" y="604" type="curve" smooth="yes"/>
      <point x="549" y="632"/>
      <point x="531.0" y="650.0"/>
      <point x="500" y="650" type="curve" smooth="yes"/>
      <point x="175" y="650" type="line"/>
      <point x="156" y="555" type="line"/>
      <point x="495" y="555" type="line" smooth="yes"/>
      <point x="525.0" y="555.0"/>
      <point x="549" y="575"/>
    </contour>
  </outline>
</glyph>
<glyph name="G" format="2">
  <advance width="510"/>
  <unicode hex="0047"/>
  <outline>
    <contour>
      <point x="136" y="-4" type="curve" smooth="yes"/>
      <point x="243" y="-4"/>
      <point x="342" y="153"/>
      <point x="413" y="265" type="curve"/>
      <point x="423" y="370" type="line"/>
      <point x="385" y="370"/>
      <point x="379" y="361"/>
      <point x="321" y="271" type="curve" smooth="yes"/>
      <point x="286" y="217"/>
      <point x="199" y="85"/>
      <point x="148" y="85" type="curve" smooth="yes"/>
      <point x="132" y="85"/>
      <point x="126" y="114"/>
      <point x="126" y="155" type="curve" smooth="yes"/>
      <point x="126" y="214"/>
      <point x="144" y="304"/>
      <point x="153" y="354" type="curve" smooth="yes"/>
      <point x="170" y="450"/>
      <point x="209" y="561"/>
      <point x="413" y="561" type="curve" smooth="yes"/>
      <point x="466" y="561" type="line" smooth="yes"/>
      <point x="493" y="561"/>
      <point x="514" y="582"/>
      <point x="514" y="607" type="curve" smooth="yes"/>
      <point x="514" y="631"/>
      <point x="494" y="650"/>
      <point x="469" y="650" type="curve" smooth="yes"/>
      <point x="414" y="650" type="line" smooth="yes"/>
      <point x="138" y="650"/>
      <point x="77" y="494"/>
      <point x="50" y="341" type="curve" smooth="yes"/>
      <point x="46" y="321"/>
      <point x="28" y="212"/>
      <point x="28" y="151" type="curve" smooth="yes"/>
      <point x="28" y="79"/>
      <point x="52" y="-4"/>
    </contour>
    <contour>
      <point x="367" y="0" type="curve" smooth="yes"/>
      <point x="402" y="0"/>
      <point x="411" y="18"/>
      <point x="415" y="42" type="curve" smooth="yes"/>
      <point x="464" y="320" type="line" smooth="yes"/>
      <point x="469" y="351"/>
      <point x="453" y="370"/>
      <point x="422" y="370" type="curve" smooth="yes"/>
      <point x="383" y="370"/>
      <point x="370" y="343"/>
      <point x="367" y="327" type="curve" smooth="yes"/>
      <point x="318" y="49" type="line" smooth="yes"/>
      <point x="313" y="18"/>
      <point x="333" y="0"/>
    </contour>
  </outline>
</glyph>
<glyph name="H" format="2">
	<advance width="653"/>
	<unicode hex="0048"/>
	<outline>
		<contour>
			<point x="288" y="597" type="line" smooth="yes"/>
			<point x="294" y="632"/>
			<point x="276" y="650"/>
			<point x="247" y="650" type="curve" smooth="yes"/>
			<point x="220" y="650"/>
			<point x="194" y="637"/>
			<point x="189" y="609" type="curve" smooth="yes"/>
			<point x="91" y="49" type="line" smooth="yes"/>
			<point x="86" y="21"/>
			<point x="106" y="0"/>
			<point x="138" y="0" type="curve" smooth="yes"/>
			<point x="172" y="0"/>
			<point x="188" y="20"/>
			<point x="191" y="40" type="curve" smooth="yes"/>
		</contour>
		<contour>
			<point x="211" y="270" type="line"/>
			<point x="483" y="270" type="line"/>
			<point x="497" y="350" type="line"/>
			<point x="225" y="350" type="line"/>
		</contour>
		<contour>
			<point x="623" y="599" type="line" smooth="yes"/>
			<point x="629" y="631"/>
			<point x="608" y="650"/>
			<point x="577" y="650" type="curve" smooth="yes"/>
			<point x="549" y="650"/>
			<point x="528" y="635"/>
			<point x="524" y="613" type="curve" smooth="yes"/>
			<point x="426" y="49" type="line" smooth="yes"/>
			<point x="421" y="20"/>
			<point x="438" y="0"/>
			<point x="471" y="0" type="curve" smooth="yes"/>
			<point x="500" y="0"/>
			<point x="521" y="17"/>
			<point x="525" y="37" type="curve" smooth="yes"/>
		</contour>
	</outline>
</glyph>
<glyph name="I" format="2">
	<advance width="292"/>
	<unicode hex="0049"/>
	<outline>
		<contour>
			<point x="73" y="21" type="line"/>
			<point x="171" y="21" type="line"/>
			<point x="276" y="622" type="line"/>
			<point x="178" y="624" type="line"/>
		</contour>
		<contour>
			<point x="167" y="0" type="line" smooth="yes"/>
			<point x="200" y="0"/>
			<point x="211" y="15"/>
			<point x="215" y="39" type="curve" smooth="yes"/>
			<point x="219" y="63"/>
			<point x="206" y="78"/>
			<point x="181" y="78" type="curve" smooth="yes"/>
			<point x="83" y="78" type="line" smooth="yes"/>
			<point x="51" y="78"/>
			<point x="36" y="63"/>
			<point x="32" y="39" type="curve" smooth="yes"/>
			<point x="28" y="15"/>
			<point x="44" y="0"/>
			<point x="69" y="0" type="curve" smooth="yes"/>
		</contour>
		<contour>
			<point x="267" y="570" type="line" smooth="yes"/>
			<point x="299" y="570"/>
			<point x="313" y="588"/>
			<point x="317" y="612" type="curve" smooth="yes"/>
			<point x="321" y="636"/>
			<point x="304" y="650"/>
			<point x="281" y="650" type="curve" smooth="yes"/>
			<point x="183" y="650" type="line" smooth="yes"/>
			<point x="152" y="650"/>
			<point x="138" y="636"/>
			<point x="134" y="612" type="curve" smooth="yes"/>
			<point x="130" y="588"/>
			<point x="146" y="570"/>
			<point x="169" y="570" type="curve" smooth="yes"/>
		</contour>
	</outline>
</glyph>
<glyph name="J" format="2">
	<advance width="671"/>
	<unicode hex="004A"/>
	<outline>
		<contour>
			<point x="492" y="573" type="line"/>
			<point x="390" y="573" type="line"/>
			<point x="343" y="306" type="line" smooth="yes"/>
			<point x="332" y="241"/>
			<point x="321" y="178"/>
			<point x="296" y="137" type="curve" smooth="yes"/>
			<point x="281" y="111"/>
			<point x="266" y="99"/>
			<point x="235" y="95" type="curve" smooth="yes"/>
			<point x="211" y="92"/>
			<point x="124" y="90"/>
			<point x="103" y="90" type="curve" smooth="yes"/>
			<point x="79" y="90"/>
			<point x="54" y="71"/>
			<point x="54" y="45" type="curve" smooth="yes"/>
			<point x="54" y="18"/>
			<point x="79" y="0"/>
			<point x="103" y="0" type="curve" smooth="yes"/>
			<point x="133" y="0"/>
			<point x="219" y="2"/>
			<point x="237" y="4" type="curve" smooth="yes"/>
			<point x="313" y="14"/>
			<point x="354" y="48"/>
			<point x="380" y="88" type="curve" smooth="yes"/>
			<point x="414" y="145"/>
			<point x="428" y="215"/>
			<point x="442" y="294" type="curve" smooth="yes"/>
		</contour>
		<contour>
			<point x="591" y="555" type="line" smooth="yes"/>
			<point x="623" y="555"/>
			<point x="641" y="576"/>
			<point x="641" y="602" type="curve" smooth="yes"/>
			<point x="641" y="630"/>
			<point x="622" y="650"/>
			<point x="592" y="650" type="curve" smooth="yes"/>
			<point x="304" y="650" type="line" smooth="yes"/>
			<point x="273" y="650"/>
			<point x="254" y="629"/>
			<point x="254" y="602" type="curve" smooth="yes"/>
			<point x="254" y="574"/>
			<point x="273" y="555"/>
			<point x="303" y="555" type="curve" smooth="yes"/>
		</contour>
	</outline>
</glyph>
<glyph name="K" format="2">
  <advance width="492"/>
  <unicode hex="004B"/>
  <outline>
    <contour>
      <point x="533" y="604" type="curve" smooth="yes"/>
      <point x="536" y="627"/>
      <point x="521" y="650"/>
      <point x="492" y="650" type="curve" smooth="yes"/>
      <point x="476" y="650"/>
      <point x="456" y="645"/>
      <point x="440" y="631" type="curve" smooth="yes"/>
      <point x="231" y="446" type="line"/>
      <point x="142" y="358" type="line"/>
      <point x="142" y="326" type="line"/>
      <point x="225" y="318" type="line"/>
      <point x="508" y="562" type="line" smooth="yes"/>
      <point x="522" y="574"/>
      <point x="531" y="589"/>
    </contour>
    <contour>
      <point x="408" y="0" type="curve" smooth="yes"/>
      <point x="428" y="0"/>
      <point x="451" y="10"/>
      <point x="455" y="31" type="curve" smooth="yes"/>
      <point x="458" y="44"/>
      <point x="457" y="60"/>
      <point x="447" y="74" type="curve" smooth="yes"/>
      <point x="242" y="368" type="line"/>
      <point x="142" y="382" type="line"/>
      <point x="141" y="348" type="line"/>
      <point x="188" y="271" type="line"/>
      <point x="359" y="25" type="line" smooth="yes"/>
      <point x="370" y="9"/>
      <point x="389" y="0"/>
    </contour>
    <contour>
      <point x="74" y="0" type="curve" smooth="yes"/>
      <point x="105" y="0"/>
      <point x="121" y="19"/>
      <point x="126" y="45" type="curve" smooth="yes"/>
      <point x="224" y="597" type="line" smooth="yes"/>
      <point x="231" y="636"/>
      <point x="204" y="650"/>
      <point x="180" y="650" type="curve" smooth="yes"/>
      <point x="154" y="650"/>
      <point x="130" y="637"/>
      <point x="125" y="609" type="curve" smooth="yes"/>
      <point x="26" y="54" type="line" smooth="yes"/>
      <point x="21" y="24"/>
      <point x="42" y="0"/>
    </contour>
  </outline>
</glyph>
<glyph name="L" format="2">
  <advance width="521"/>
  <unicode hex="004C"/>
  <outline>
    <contour>
      <point x="59" y="49" type="line" smooth="yes"/>
      <point x="54" y="21"/>
      <point x="72" y="0"/>
      <point x="102" y="0" type="curve" smooth="yes"/>
      <point x="136" y="0"/>
      <point x="155" y="18"/>
      <point x="159" y="39" type="curve" smooth="yes"/>
      <point x="258" y="597" type="line" smooth="yes"/>
      <point x="265" y="639"/>
      <point x="241" y="650"/>
      <point x="216" y="650" type="curve" smooth="yes"/>
      <point x="187" y="650"/>
      <point x="163" y="637"/>
      <point x="158" y="609" type="curve" smooth="yes"/>
    </contour>
    <contour>
      <point x="498" y="46" type="curve" smooth="yes"/>
      <point x="498" y="70"/>
      <point x="478" y="90"/>
      <point x="448" y="90" type="curve" smooth="yes"/>
      <point x="119" y="90" type="line"/>
      <point x="103" y="0" type="line"/>
      <point x="448" y="0" type="line" smooth="yes"/>
      <point x="478" y="0"/>
      <point x="498" y="22"/>
    </contour>
  </outline>
</glyph>
<glyph name="M" format="2">
  <advance width="827"/>
  <unicode hex="004D"/>
  <outline>
    <contour>
      <point x="24" y="0" type="curve" smooth="yes"/>
      <point x="42" y="0"/>
      <point x="70" y="9"/>
      <point x="82" y="33" type="curve" smooth="yes"/>
      <point x="266" y="392" type="line"/>
      <point x="341" y="555" type="line"/>
      <point x="322" y="650" type="line"/>
      <point x="294" y="650"/>
      <point x="285" y="638"/>
      <point x="274" y="617" type="curve" smooth="yes"/>
      <point x="-11" y="73" type="line" smooth="yes"/>
      <point x="-24" y="47"/>
      <point x="-23" y="34"/>
      <point x="-16" y="21" type="curve" smooth="yes"/>
      <point x="-9" y="8"/>
      <point x="9" y="0"/>
    </contour>
    <contour>
      <point x="322" y="50" type="line" smooth="yes"/>
      <point x="325" y="18"/>
      <point x="342" y="0"/>
      <point x="373" y="0" type="curve"/>
      <point x="411" y="90" type="line"/>
      <point x="400" y="277" type="line"/>
      <point x="373" y="606" type="line" smooth="yes"/>
      <point x="371" y="635"/>
      <point x="362" y="650"/>
      <point x="322" y="650" type="curve"/>
      <point x="290" y="559" type="line"/>
      <point x="293" y="393" type="line"/>
    </contour>
    <contour>
      <point x="434" y="41" type="curve" smooth="yes"/>
      <point x="611" y="392" type="line"/>
      <point x="685" y="566" type="line"/>
      <point x="682" y="650" type="line"/>
      <point x="651" y="650"/>
      <point x="634" y="638"/>
      <point x="622" y="616" type="curve" smooth="yes"/>
      <point x="440" y="271" type="line"/>
      <point x="362" y="86" type="line"/>
      <point x="373" y="0" type="line"/>
      <point x="412" y="0"/>
      <point x="423" y="19"/>
    </contour>
    <contour>
      <point x="724" y="0" type="curve" smooth="yes"/>
      <point x="753" y="0"/>
      <point x="772" y="20"/>
      <point x="769" y="52" type="curve" smooth="yes"/>
      <point x="724" y="606" type="line" smooth="yes"/>
      <point x="722" y="635"/>
      <point x="716" y="650"/>
      <point x="682" y="650" type="curve"/>
      <point x="637" y="562" type="line"/>
      <point x="644" y="390" type="line"/>
      <point x="673" y="46" type="line" smooth="yes"/>
      <point x="675" y="19"/>
      <point x="693" y="0"/>
    </contour>
  </outline>
</glyph>
<glyph name="N" format="2">
	<advance width="643"/>
	<unicode hex="004E"/>
	<outline>
		<contour>
			<point x="481" y="132" type="line"/>
			<point x="283" y="620" type="line" smooth="yes"/>
			<point x="275" y="641"/>
			<point x="256" y="650"/>
			<point x="230" y="650" type="curve"/>
			<point x="200" y="569" type="line"/>
			<point x="420" y="28" type="line" smooth="yes"/>
			<point x="427" y="10"/>
			<point x="443" y="0"/>
			<point x="469" y="0" type="curve"/>
		</contour>
		<contour>
			<point x="288" y="592" type="line"/>
			<point x="243" y="650" type="line"/>
			<point x="211" y="650"/>
			<point x="194" y="636"/>
			<point x="189" y="609" type="curve" smooth="yes"/>
			<point x="91" y="49" type="line" smooth="yes"/>
			<point x="86" y="21"/>
			<point x="105" y="0"/>
			<point x="134" y="0" type="curve" smooth="yes"/>
			<point x="167" y="0"/>
			<point x="187" y="19"/>
			<point x="191" y="42" type="curve" smooth="yes"/>
		</contour>
		<contour>
			<point x="468" y="0" type="line"/>
			<point x="502" y="0"/>
			<point x="511" y="19"/>
			<point x="515" y="40" type="curve" smooth="yes"/>
			<point x="613" y="597" type="line" smooth="yes"/>
			<point x="619" y="629"/>
			<point x="603" y="653"/>
			<point x="570" y="653" type="curve" smooth="yes"/>
			<point x="542" y="653"/>
			<point x="519" y="637"/>
			<point x="514" y="609" type="curve" smooth="yes"/>
			<point x="425" y="105" type="line"/>
		</contour>
	</outline>
</glyph>
<glyph name="O" format="2">
  <advance width="553"/>
  <unicode hex="004F"/>
  <outline>
    <contour>
      <point x="184" y="-10" type="curve" smooth="yes"/>
      <point x="336" y="-10"/>
      <point x="497" y="245"/>
      <point x="516" y="423" type="curve" smooth="yes"/>
      <point x="528" y="542"/>
      <point x="463" y="656"/>
      <point x="318" y="656" type="curve" smooth="yes"/>
      <point x="180" y="656"/>
      <point x="118" y="552"/>
      <point x="79" y="404" type="curve" smooth="yes"/>
      <point x="28" y="205"/>
      <point x="54" y="-10"/>
    </contour>
    <contour>
      <point x="187" y="80" type="curve" smooth="yes"/>
      <point x="145" y="80"/>
      <point x="152" y="261"/>
      <point x="175" y="372" type="curve" smooth="yes"/>
      <point x="201" y="498"/>
      <point x="229" y="566"/>
      <point x="316" y="566" type="curve" smooth="yes"/>
      <point x="417" y="566"/>
      <point x="420" y="478"/>
      <point x="415" y="421" type="curve" smooth="yes"/>
      <point x="400" y="275"/>
      <point x="256" y="80"/>
    </contour>
  </outline>
</glyph>
<glyph name="P" format="2">
	<advance width="574"/>
	<unicode hex="0050"/>
	<outline>
		<contour>
			<point x="218" y="273" type="line"/>
			<point x="382" y="274"/>
			<point x="575" y="289"/>
			<point x="600" y="467" type="curve" smooth="yes"/>
			<point x="619" y="602"/>
			<point x="487" y="656"/>
			<point x="238" y="652" type="curve"/>
			<point x="264" y="562" type="line"/>
			<point x="484" y="565"/>
			<point x="511" y="535"/>
			<point x="503" y="472" type="curve" smooth="yes"/>
			<point x="492" y="382"/>
			<point x="353" y="364"/>
			<point x="230" y="363" type="curve"/>
		</contour>
		<contour>
			<point x="286" y="597" type="line" smooth="yes"/>
			<point x="293" y="639"/>
			<point x="267" y="652"/>
			<point x="242" y="652" type="curve" smooth="yes"/>
			<point x="212" y="652"/>
			<point x="194" y="637"/>
			<point x="189" y="609" type="curve" smooth="yes"/>
			<point x="90" y="48" type="line" smooth="yes"/>
			<point x="85" y="21"/>
			<point x="104" y="-6"/>
			<point x="137" y="-6" type="curve" smooth="yes"/>
			<point x="171" y="-6"/>
			<point x="184" y="17"/>
			<point x="188" y="39" type="curve" smooth="yes"/>
		</contour>
	</outline>
</glyph>
<glyph name="Q" format="2">
	<advance width="657"/>
	<unicode hex="0051"/>
	<outline>
		<contour>
			<point x="364" y="172" type="line"/>
			<point x="343" y="199"/>
			<point x="308" y="204"/>
			<point x="290" y="189" type="curve" smooth="yes"/>
			<point x="271" y="174"/>
			<point x="265" y="149"/>
			<point x="283" y="122" type="curve" smooth="yes"/>
			<point x="381" y="-21" type="line" smooth="yes"/>
			<point x="399" y="-47"/>
			<point x="431" y="-55"/>
			<point x="452" y="-42" type="curve" smooth="yes"/>
			<point x="478" y="-28"/>
			<point x="480" y="1"/>
			<point x="464" y="25" type="curve" smooth="yes"/>
		</contour>
		<contour>
			<point x="255" y="-4" type="curve" smooth="yes"/>
			<point x="407" y="-4"/>
			<point x="571" y="251"/>
			<point x="602" y="429" type="curve" smooth="yes"/>
			<point x="623" y="548"/>
			<point x="558" y="652"/>
			<point x="413" y="652" type="curve" smooth="yes"/>
			<point x="275" y="652"/>
			<point x="207" y="555"/>
			<point x="165" y="410" type="curve" smooth="yes"/>
			<point x="154" y="370"/>
			<point x="145" y="325"/>
			<point x="142" y="283" type="curve" smooth="yes"/>
			<point x="130" y="150"/>
			<point x="135" y="-4"/>
		</contour>
		<contour>
			<point x="261" y="86" type="curve" smooth="yes"/>
			<point x="224" y="86"/>
			<point x="234" y="187"/>
			<point x="241" y="269" type="curve" smooth="yes"/>
			<point x="244" y="308"/>
			<point x="252" y="348"/>
			<point x="260" y="378" type="curve" smooth="yes"/>
			<point x="295" y="505"/>
			<point x="321" y="562"/>
			<point x="408" y="562" type="curve" smooth="yes"/>
			<point x="509" y="562"/>
			<point x="511" y="484"/>
			<point x="501" y="427" type="curve" smooth="yes"/>
			<point x="475" y="281"/>
			<point x="330" y="86"/>
		</contour>
	</outline>
</glyph>
<glyph name="R" format="2">
  <advance width="534"/>
  <unicode hex="0052"/>
  <outline>
    <contour>
      <point x="519" y="467" type="curve" smooth="yes"/>
      <point x="543" y="602"/>
      <point x="406" y="650"/>
      <point x="180" y="650" type="curve"/>
      <point x="199" y="560" type="line"/>
      <point x="375" y="563"/>
      <point x="433" y="533"/>
      <point x="422" y="470" type="curve" smooth="yes"/>
      <point x="407" y="382"/>
      <point x="285" y="345"/>
      <point x="138" y="344" type="curve"/>
      <point x="125" y="272" type="line"/>
      <point x="313" y="273"/>
      <point x="487" y="289"/>
    </contour>
    <contour>
      <point x="413" y="0" type="curve" smooth="yes"/>
      <point x="432" y="0"/>
      <point x="453" y="11"/>
      <point x="458" y="29" type="curve" smooth="yes"/>
      <point x="462" y="42"/>
      <point x="463" y="57"/>
      <point x="453" y="69" type="curve" smooth="yes"/>
      <point x="246" y="318" type="line"/>
      <point x="137" y="318" type="line"/>
      <point x="184" y="237" type="line"/>
      <point x="361" y="23" type="line" smooth="yes"/>
      <point x="378" y="3"/>
      <point x="400" y="0"/>
    </contour>
    <contour>
      <point x="65" y="0" type="curve" smooth="yes"/>
      <point x="96" y="0"/>
      <point x="122" y="23"/>
      <point x="127" y="53" type="curve" smooth="yes"/>
      <point x="223" y="597" type="line" smooth="yes"/>
      <point x="230" y="638"/>
      <point x="207" y="650"/>
      <point x="179" y="650" type="curve" smooth="yes"/>
      <point x="148" y="650"/>
      <point x="129" y="637"/>
      <point x="124" y="609" type="curve" smooth="yes"/>
      <point x="26" y="54" type="line" smooth="yes"/>
      <point x="21" y="24"/>
      <point x="33" y="0"/>
    </contour>
  </outline>
</glyph>
<glyph name="S" format="2">
	<advance width="530"/>
	<unicode hex="0053"/>
	<outline>
		<contour>
			<point x="198" y="0" type="line" smooth="yes"/>
			<point x="297" y="0"/>
			<point x="479" y="50"/>
			<point x="479" y="192" type="curve" smooth="yes"/>
			<point x="479" y="283"/>
			<point x="404" y="335"/>
			<point x="385" y="348" type="curve" smooth="yes"/>
			<point x="266" y="431"/>
			<point x="218" y="457"/>
			<point x="218" y="487" type="curve" smooth="yes"/>
			<point x="218" y="527"/>
			<point x="298" y="559"/>
			<point x="365" y="559" type="curve" smooth="yes"/>
			<point x="508" y="559" type="line" smooth="yes"/>
			<point x="534" y="559"/>
			<point x="555" y="580"/>
			<point x="555" y="605" type="curve" smooth="yes"/>
			<point x="555" y="641"/>
			<point x="525" y="650"/>
			<point x="507" y="650" type="curve" smooth="yes"/>
			<point x="366" y="650" type="line" smooth="yes"/>
			<point x="232" y="650"/>
			<point x="118" y="575"/>
			<point x="118" y="483" type="curve" smooth="yes"/>
			<point x="118" y="403"/>
			<point x="202" y="363"/>
			<point x="319" y="280" type="curve" smooth="yes"/>
			<point x="341" y="264"/>
			<point x="379" y="235"/>
			<point x="379" y="192" type="curve" smooth="yes"/>
			<point x="379" y="115"/>
			<point x="256" y="91"/>
			<point x="198" y="91" type="curve" smooth="yes"/>
			<point x="86" y="91" type="line" smooth="yes"/>
			<point x="60" y="91"/>
			<point x="38" y="69"/>
			<point x="38" y="44" type="curve" smooth="yes"/>
			<point x="38" y="8"/>
			<point x="72" y="0"/>
			<point x="86" y="0" type="curve" smooth="yes"/>
		</contour>
	</outline>
</glyph>
<glyph name="T" format="2">
	<advance width="746"/>
	<unicode hex="0054"/>
	<outline>
		<contour>
			<point x="505" y="580" type="line"/>
			<point x="404" y="580" type="line"/>
			<point x="310" y="49" type="line" smooth="yes"/>
			<point x="305" y="21"/>
			<point x="326" y="-2"/>
			<point x="357" y="-2" type="curve" smooth="yes"/>
			<point x="390" y="-2"/>
			<point x="406" y="18"/>
			<point x="410" y="39" type="curve" smooth="yes"/>
		</contour>
		<contour>
			<point x="671" y="563" type="line" smooth="yes"/>
			<point x="703" y="563"/>
			<point x="721" y="583"/>
			<point x="721" y="607" type="curve" smooth="yes"/>
			<point x="721" y="633"/>
			<point x="701" y="653"/>
			<point x="671" y="653" type="curve" smooth="yes"/>
			<point x="247" y="653" type="line" smooth="yes"/>
			<point x="217" y="653"/>
			<point x="197" y="633"/>
			<point x="197" y="607" type="curve" smooth="yes"/>
			<point x="197" y="583"/>
			<point x="215" y="563"/>
			<point x="247" y="563" type="curve" smooth="yes"/>
		</contour>
	</outline>
</glyph>
<glyph name="U" format="2">
	<advance width="545"/>
	<unicode hex="0055"/>
	<outline>
		<contour>
			<point x="506" y="385" type="line"/>
			<point x="540" y="543" type="line"/>
			<point x="462" y="543" type="line"/>
			<point x="454" y="510" type="line" smooth="yes"/>
			<point x="433" y="423"/>
			<point x="401" y="369"/>
			<point x="384" y="342" type="curve" smooth="yes"/>
			<point x="340" y="270"/>
			<point x="235" y="86"/>
			<point x="166" y="86" type="curve" smooth="yes"/>
			<point x="147" y="86"/>
			<point x="149" y="125"/>
			<point x="160" y="185" type="curve" smooth="yes"/>
			<point x="234" y="600" type="line" smooth="yes"/>
			<point x="239" y="629"/>
			<point x="218" y="650"/>
			<point x="189" y="650" type="curve" smooth="yes"/>
			<point x="157" y="651"/>
			<point x="137" y="624"/>
			<point x="134" y="606" type="curve" smooth="yes"/>
			<point x="60" y="195" type="line" smooth="yes"/>
			<point x="35" y="57"/>
			<point x="77" y="-4"/>
			<point x="150" y="-4" type="curve" smooth="yes"/>
			<point x="268" y="-4"/>
			<point x="347" y="108"/>
			<point x="433" y="247" type="curve"/>
		</contour>
		<contour>
			<point x="568" y="602" type="line" smooth="yes"/>
			<point x="573" y="630"/>
			<point x="555" y="650"/>
			<point x="521" y="650" type="curve" smooth="yes"/>
			<point x="493" y="650"/>
			<point x="472" y="635"/>
			<point x="468" y="612" type="curve" smooth="yes"/>
			<point x="370" y="49" type="line" smooth="yes"/>
			<point x="364" y="16"/>
			<point x="388" y="0"/>
			<point x="416" y="0" type="curve" smooth="yes"/>
			<point x="439" y="0"/>
			<point x="465" y="12"/>
			<point x="469" y="37" type="curve" smooth="yes"/>
		</contour>
	</outline>
</glyph>
<glyph name="V" format="2">
	<advance width="579"/>
	<unicode hex="0056"/>
	<outline>
		<contour>
			<point x="241" y="-2" type="line"/>
			<point x="270" y="-2"/>
			<point x="282" y="15"/>
			<point x="292" y="34" type="curve" smooth="yes"/>
			<point x="568" y="591" type="line" smooth="yes"/>
			<point x="585" y="625"/>
			<point x="563" y="650"/>
			<point x="531" y="650" type="curve" smooth="yes"/>
			<point x="502" y="650"/>
			<point x="483" y="638"/>
			<point x="473" y="618" type="curve" smooth="yes"/>
			<point x="197" y="59" type="line"/>
		</contour>
		<contour>
			<point x="286" y="64" type="line"/>
			<point x="256" y="610" type="line" smooth="yes"/>
			<point x="255" y="633"/>
			<point x="237" y="650"/>
			<point x="205" y="650" type="curve" smooth="yes"/>
			<point x="176" y="650"/>
			<point x="157" y="634"/>
			<point x="159" y="604" type="curve" smooth="yes"/>
			<point x="191" y="44" type="line" smooth="yes"/>
			<point x="192" y="19"/>
			<point x="212" y="-1"/>
			<point x="242" y="-2" type="curve"/>
		</contour>
	</outline>
</glyph>
<glyph name="W" format="2">
  <advance width="779"/>
  <unicode hex="0057"/>
  <outline>
    <contour>
      <point x="544" y="33" type="curve" smooth="yes"/>
      <point x="817" y="585" type="line" smooth="yes"/>
      <point x="832" y="616"/>
      <point x="810" y="650"/>
      <point x="786" y="650" type="curve" smooth="yes"/>
      <point x="752" y="650"/>
      <point x="734" y="636"/>
      <point x="724" y="615" type="curve" smooth="yes"/>
      <point x="556" y="263" type="line"/>
      <point x="467" y="74" type="line"/>
      <point x="494" y="0" type="line"/>
      <point x="522" y="0"/>
      <point x="534" y="12"/>
    </contour>
    <contour>
      <point x="104" y="44" type="line" smooth="yes"/>
      <point x="106" y="15"/>
      <point x="125" y="0"/>
      <point x="158" y="0" type="curve"/>
      <point x="188" y="75" type="line"/>
      <point x="183" y="256" type="line"/>
      <point x="163" y="610" type="line" smooth="yes"/>
      <point x="162" y="633"/>
      <point x="145" y="650"/>
      <point x="113" y="650" type="curve" smooth="yes"/>
      <point x="84" y="650"/>
      <point x="64" y="634"/>
      <point x="66" y="604" type="curve" smooth="yes"/>
    </contour>
    <contour>
      <point x="209" y="39" type="curve" smooth="yes"/>
      <point x="383" y="388" type="line"/>
      <point x="473" y="578" type="line"/>
      <point x="444" y="650" type="line"/>
      <point x="410" y="650"/>
      <point x="401" y="631"/>
      <point x="395" y="619" type="curve" smooth="yes"/>
      <point x="215" y="257" type="line"/>
      <point x="130" y="75" type="line"/>
      <point x="158" y="0" type="line"/>
      <point x="189" y="0"/>
      <point x="197" y="14"/>
    </contour>
    <contour>
      <point x="445" y="38" type="line" smooth="yes"/>
      <point x="447" y="15"/>
      <point x="474" y="0"/>
      <point x="494" y="0" type="curve"/>
      <point x="529" y="74" type="line"/>
      <point x="523" y="267" type="line"/>
      <point x="497" y="610" type="line" smooth="yes"/>
      <point x="495" y="635"/>
      <point x="479" y="650"/>
      <point x="444" y="650" type="curve"/>
      <point x="412" y="582" type="line"/>
      <point x="418" y="385" type="line"/>
    </contour>
  </outline>
</glyph>
<glyph name="X" format="2">
	<advance width="598"/>
	<unicode hex="0058"/>
	<outline>
		<contour>
			<point x="583" y="578" type="line" smooth="yes"/>
			<point x="600" y="602"/>
			<point x="596" y="623"/>
			<point x="578" y="639" type="curve" smooth="yes"/>
			<point x="560" y="655"/>
			<point x="524" y="656"/>
			<point x="506" y="631" type="curve" smooth="yes"/>
			<point x="101" y="69" type="line" smooth="yes"/>
			<point x="86" y="48"/>
			<point x="86" y="29"/>
			<point x="104" y="13" type="curve" smooth="yes"/>
			<point x="123" y="-3"/>
			<point x="163" y="-8"/>
			<point x="180" y="16" type="curve" smooth="yes"/>
		</contour>
		<contour>
			<point x="284" y="623" type="line" smooth="yes"/>
			<point x="273" y="651"/>
			<point x="241" y="654"/>
			<point x="218" y="647" type="curve" smooth="yes"/>
			<point x="192" y="637"/>
			<point x="183" y="617"/>
			<point x="195" y="586" type="curve" smooth="yes"/>
			<point x="403" y="28" type="line" smooth="yes"/>
			<point x="414" y="-1"/>
			<point x="452" y="-6"/>
			<point x="475" y="6" type="curve" smooth="yes"/>
			<point x="496" y="17"/>
			<point x="506" y="36"/>
			<point x="496" y="61" type="curve" smooth="yes"/>
		</contour>
	</outline>
</glyph>
<glyph name="Y" format="2">
	<advance width="526"/>
	<unicode hex="0059"/>
	<outline>
		<contour>
			<point x="296" y="254" type="line"/>
			<point x="538" y="578" type="line" smooth="yes"/>
			<point x="546" y="589"/>
			<point x="550" y="599"/>
			<point x="550" y="611" type="curve" smooth="yes"/>
			<point x="550" y="623"/>
			<point x="544" y="634"/>
			<point x="533" y="642" type="curve" smooth="yes"/>
			<point x="521" y="653"/>
			<point x="503" y="653"/>
			<point x="493" y="653" type="curve"/>
			<point x="482" y="650"/>
			<point x="467" y="642"/>
			<point x="460" y="632" type="curve" smooth="yes"/>
			<point x="252" y="350" type="line"/>
		</contour>
		<contour>
			<point x="352" y="371" type="line"/>
			<point x="251" y="371" type="line"/>
			<point x="195" y="49" type="line" smooth="yes"/>
			<point x="190" y="21"/>
			<point x="211" y="-2"/>
			<point x="243" y="-2" type="curve" smooth="yes"/>
			<point x="277" y="-2"/>
			<point x="291" y="19"/>
			<point x="295" y="40" type="curve" smooth="yes"/>
		</contour>
		<contour>
			<point x="267" y="266" type="line"/>
			<point x="337" y="340" type="line"/>
			<point x="229" y="621" type="line" smooth="yes"/>
			<point x="225" y="632"/>
			<point x="216" y="642"/>
			<point x="203" y="648" type="curve" smooth="yes"/>
			<point x="194" y="653"/>
			<point x="176" y="654"/>
			<point x="163" y="649" type="curve" smooth="yes"/>
			<point x="148" y="643"/>
			<point x="137" y="632"/>
			<point x="134" y="619" type="curve" smooth="yes"/>
			<point x="132" y="609"/>
			<point x="136" y="599"/>
			<point x="140" y="588" type="curve" smooth="yes"/>
		</contour>
	</outline>
</glyph>
<glyph name="Z" format="2">
	<advance width="527"/>
	<unicode hex="005A"/>
	<outline>
		<contour>
			<point x="538" y="577" type="line" smooth="yes"/>
			<point x="552" y="595"/>
			<point x="555" y="614"/>
			<point x="547" y="629" type="curve" smooth="yes"/>
			<point x="539" y="644"/>
			<point x="522" y="653"/>
			<point x="498" y="653" type="curve" smooth="yes"/>
			<point x="484" y="653"/>
			<point x="468" y="644"/>
			<point x="460" y="633" type="curve" smooth="yes"/>
			<point x="44" y="70" type="line" smooth="yes"/>
			<point x="34" y="57"/>
			<point x="29" y="39"/>
			<point x="37" y="23" type="curve" smooth="yes"/>
			<point x="43" y="11"/>
			<point x="61" y="0"/>
			<point x="90" y="0" type="curve" smooth="yes"/>
			<point x="106" y="0"/>
			<point x="121" y="10"/>
			<point x="126" y="17" type="curve" smooth="yes"/>
		</contour>
		<contour>
			<point x="87" y="0" type="line"/>
			<point x="400" y="0" type="line" smooth="yes"/>
			<point x="432" y="0"/>
			<point x="450" y="19"/>
			<point x="450" y="43" type="curve" smooth="yes"/>
			<point x="450" y="69"/>
			<point x="430" y="90"/>
			<point x="400" y="90" type="curve" smooth="yes"/>
			<point x="87" y="90" type="line"/>
		</contour>
		<contour>
			<point x="500" y="563" type="line"/>
			<point x="500" y="653" type="line"/>
			<point x="184" y="653" type="line" smooth="yes"/>
			<point x="154" y="653"/>
			<point x="134" y="633"/>
			<point x="134" y="607" type="curve" smooth="yes"/>
			<point x="134" y="583"/>
			<point x="152" y="563"/>
			<point x="184" y="563" type="curve" smooth="yes"/>
		</contour>
	</outline>
</glyph>
<glyph name="bracketleft" format="2">
	<advance width="346"/>
	<unicode hex="005B"/>
	<outline>
		<contour>
			<point x="233" y="600" type="line" smooth="yes"/>
			<point x="240" y="640"/>
			<point x="215" y="650"/>
			<point x="188" y="650" type="curve" smooth="yes"/>
			<point x="158" y="650"/>
			<point x="138" y="637"/>
			<point x="133" y="609" type="curve" smooth="yes"/>
			<point x="-19" y="-251" type="line" smooth="yes"/>
			<point x="-24" y="-279"/>
			<point x="-4" y="-300"/>
			<point x="30" y="-300" type="curve" smooth="yes"/>
			<point x="63" y="-300"/>
			<point x="78" y="-278"/>
			<point x="82" y="-255" type="curve" smooth="yes"/>
		</contour>
		<contour>
			<point x="28" y="-300" type="line"/>
			<point x="166" y="-300" type="line" smooth="yes"/>
			<point x="196" y="-300"/>
			<point x="213" y="-284"/>
			<point x="218" y="-258" type="curve" smooth="yes"/>
			<point x="223" y="-230"/>
			<point x="197" y="-215"/>
			<point x="166" y="-215" type="curve" smooth="yes"/>
			<point x="40" y="-215" type="line"/>
		</contour>
		<contour>
			<point x="176" y="565" type="line"/>
			<point x="319" y="565" type="line" smooth="yes"/>
			<point x="347" y="565"/>
			<point x="366" y="582"/>
			<point x="370" y="605" type="curve" smooth="yes"/>
			<point x="375" y="633"/>
			<point x="348" y="650"/>
			<point x="319" y="650" type="curve" smooth="yes"/>
			<point x="186" y="650" type="line"/>
		</contour>
	</outline>
</glyph>
<glyph name="backslash" format="2">
	<advance width="546"/>
	<unicode hex="005C"/>
	<outline>
		<contour>
			<point x="230" y="614" type="line" smooth="yes"/>
			<point x="215" y="648"/>
			<point x="184" y="655"/>
			<point x="159" y="646" type="curve" smooth="yes"/>
			<point x="137" y="638"/>
			<point x="123" y="608"/>
			<point x="138" y="574" type="curve" smooth="yes"/>
			<point x="373" y="32" type="line" smooth="yes"/>
			<point x="386" y="1"/>
			<point x="420" y="-6"/>
			<point x="445" y="4" type="curve" smooth="yes"/>
			<point x="466" y="13"/>
			<point x="478" y="41"/>
			<point x="466" y="69" type="curve" smooth="yes"/>
		</contour>
	</outline>
</glyph>
<glyph name="bracketright" format="2">
  <advance width="453"/>
  <unicode hex="005D"/>
  <outline>
    <contour>
      <point x="393" y="601" type="line" smooth="yes"/>
      <point x="398" y="629"/>
      <point x="378" y="650"/>
      <point x="344" y="650" type="curve" smooth="yes"/>
      <point x="310" y="650"/>
      <point x="297" y="632"/>
      <point x="293" y="610" type="curve" smooth="yes"/>
      <point x="142" y="-246" type="line" smooth="yes"/>
      <point x="134" y="-291"/>
      <point x="159" y="-300"/>
      <point x="186" y="-300" type="curve" smooth="yes"/>
      <point x="217" y="-300"/>
      <point x="236" y="-287"/>
      <point x="241" y="-259" type="curve" smooth="yes"/>
    </contour>
    <contour>
      <point x="187" y="-300" type="line"/>
      <point x="201" y="-215" type="line"/>
      <point x="56" y="-215" type="line" smooth="yes"/>
      <point x="30" y="-215"/>
      <point x="9" y="-233"/>
      <point x="5" y="-257" type="curve" smooth="yes"/>
      <point x="1" y="-281"/>
      <point x="22" y="-300"/>
      <point x="56" y="-300" type="curve" smooth="yes"/>
    </contour>
    <contour>
      <point x="329" y="565" type="line"/>
      <point x="345" y="650" type="line"/>
      <point x="209" y="650" type="line" smooth="yes"/>
      <point x="178" y="650"/>
      <point x="162" y="634"/>
      <point x="157" y="607" type="curve" smooth="yes"/>
      <point x="153" y="583"/>
      <point x="178" y="565"/>
      <point x="209" y="565" type="curve" smooth="yes"/>
    </contour>
  </outline>
</glyph>
<glyph name="asciicircum" format="2">
	<advance width="547"/>
	<unicode hex="005E"/>
	<outline>
		<contour>
			<point x="387" y="569" type="line" smooth="yes"/>
			<point x="413" y="590"/>
			<point x="411" y="617"/>
			<point x="393" y="635" type="curve" smooth="yes"/>
			<point x="376" y="653"/>
			<point x="342" y="657"/>
			<point x="319" y="638" type="curve" smooth="yes"/>
			<point x="186" y="527" type="line" smooth="yes"/>
			<point x="162" y="507"/>
			<point x="166" y="481"/>
			<point x="179" y="464" type="curve" smooth="yes"/>
			<point x="197" y="442"/>
			<point x="232" y="439"/>
			<point x="256" y="459" type="curve" smooth="yes"/>
		</contour>
		<contour>
			<point x="393" y="635" type="line"/>
			<point x="318" y="573" type="line"/>
			<point x="410" y="464" type="line" smooth="yes"/>
			<point x="429" y="441"/>
			<point x="464" y="443"/>
			<point x="482" y="460" type="curve" smooth="yes"/>
			<point x="501" y="477"/>
			<point x="505" y="502"/>
			<point x="486" y="525" type="curve" smooth="yes"/>
		</contour>
	</outline>
</glyph>
<glyph name="underscore" format="2">
	<advance width="502"/>
	<unicode hex="005F"/>
	<outline>
		<contour>
			<point x="355" y="-99" type="line" smooth="yes"/>
			<point x="386" y="-99"/>
			<point x="407" y="-79"/>
			<point x="407" y="-54" type="curve" smooth="yes"/>
			<point x="407" y="-30"/>
			<point x="386" y="-10"/>
			<point x="355" y="-10" type="curve" smooth="yes"/>
			<point x="66" y="-10" type="line" smooth="yes"/>
			<point x="34" y="-10"/>
			<point x="14" y="-30"/>
			<point x="14" y="-55" type="curve" smooth="yes"/>
			<point x="14" y="-79"/>
			<point x="36" y="-99"/>
			<point x="66" y="-99" type="curve" smooth="yes"/>
		</contour>
	</outline>
</glyph>
<glyph name="grave" format="2">
  <advance width="382"/>
  <unicode hex="0060"/>
  <outline>
    <contour>
      <point x="267" y="669" type="line" smooth="yes"/>
      <point x="258" y="690"/>
      <point x="234" y="700"/>
      <point x="214" y="700" type="curve" smooth="yes"/>
      <point x="181" y="698"/>
      <point x="151" y="669"/>
      <point x="176" y="630" type="curve" smooth="yes"/>
      <point x="233" y="542" type="line" smooth="yes"/>
      <point x="251" y="515"/>
      <point x="276" y="508"/>
      <point x="295" y="519" type="curve" smooth="yes"/>
      <point x="314" y="530"/>
      <point x="317" y="547"/>
      <point x="306" y="573" type="curve" smooth="yes"/>
    </contour>
  </outline>
</glyph>
<glyph name="a" format="2">
	<advance width="536"/>
	<unicode hex="0061"/>
	<outline>
		<contour>
			<point x="440" y="308" type="line"/>
			<point x="372" y="308" type="line"/>
			<point x="346" y="262"/>
			<point x="319" y="215"/>
			<point x="281" y="167" type="curve" smooth="yes"/>
			<point x="228" y="101"/>
			<point x="202" y="84"/>
			<point x="197" y="84" type="curve" smooth="yes"/>
			<point x="192" y="84"/>
			<point x="191" y="97"/>
			<point x="191" y="102" type="curve" smooth="yes"/>
			<point x="191" y="134"/>
			<point x="206" y="194"/>
			<point x="225" y="224" type="curve" smooth="yes"/>
			<point x="247" y="257"/>
			<point x="280" y="263"/>
			<point x="306" y="263" type="curve" smooth="yes"/>
			<point x="316" y="263"/>
			<point x="353" y="263"/>
			<point x="392" y="263" type="curve"/>
			<point x="392" y="350" type="line"/>
			<point x="361" y="350"/>
			<point x="323" y="350"/>
			<point x="306" y="350" type="curve" smooth="yes"/>
			<point x="250" y="350"/>
			<point x="188" y="333"/>
			<point x="149" y="276" type="curve" smooth="yes"/>
			<point x="118" y="228"/>
			<point x="97" y="139"/>
			<point x="97" y="85" type="curve" smooth="yes"/>
			<point x="97" y="22"/>
			<point x="115" y="-4"/>
			<point x="154" y="-4" type="curve" smooth="yes"/>
			<point x="218" y="-4"/>
			<point x="284" y="51"/>
			<point x="338" y="118" type="curve" smooth="yes"/>
			<point x="365" y="152"/>
			<point x="426" y="257"/>
			<point x="432" y="272" type="curve"/>
		</contour>
		<contour>
			<point x="449" y="295" type="line" smooth="yes"/>
			<point x="452" y="310"/>
			<point x="451" y="320"/>
			<point x="448" y="329" type="curve" smooth="yes"/>
			<point x="442" y="342"/>
			<point x="427" y="350"/>
			<point x="411" y="350" type="curve" smooth="yes"/>
			<point x="346" y="350" type="line"/>
			<point x="346" y="252" type="line"/>
			<point x="309" y="44" type="line" smooth="yes"/>
			<point x="305" y="21"/>
			<point x="321" y="0"/>
			<point x="353" y="0" type="curve" smooth="yes"/>
			<point x="389" y="0"/>
			<point x="401" y="22"/>
			<point x="404" y="37" type="curve" smooth="yes"/>
		</contour>
	</outline>
</glyph>
<glyph name="b" format="2">
  <advance width="404"/>
  <unicode hex="0062"/>
  <outline>
    <contour>
      <point x="159" y="0" type="line"/>
      <point x="321" y="0"/>
      <point x="368" y="150"/>
      <point x="368" y="265" type="curve" smooth="yes"/>
      <point x="368" y="331"/>
      <point x="340" y="354"/>
      <point x="299" y="354" type="curve" smooth="yes"/>
      <point x="225" y="354"/>
      <point x="107" y="227"/>
      <point x="51" y="112" type="curve"/>
      <point x="51" y="42" type="line"/>
      <point x="92" y="42" type="line"/>
      <point x="135" y="124"/>
      <point x="244" y="266"/>
      <point x="268" y="266" type="curve" smooth="yes"/>
      <point x="273" y="266"/>
      <point x="274" y="255"/>
      <point x="274" y="246" type="curve" smooth="yes"/>
      <point x="274" y="155"/>
      <point x="233" y="87"/>
      <point x="159" y="87" type="curve"/>
      <point x="51" y="87" type="line"/>
      <point x="51" y="0" type="line"/>
    </contour>
    <contour>
      <point x="36" y="0" type="curve" smooth="yes"/>
      <point x="100" y="0" type="line"/>
      <point x="96" y="101" type="line"/>
      <point x="188" y="599" type="line" smooth="yes"/>
      <point x="194" y="632"/>
      <point x="176" y="650"/>
      <point x="149" y="650" type="curve" smooth="yes"/>
      <point x="129" y="650"/>
      <point x="101" y="640"/>
      <point x="95" y="607" type="curve" smooth="yes"/>
      <point x="-4" y="44" type="line" smooth="yes"/>
      <point x="-9" y="18"/>
      <point x="9" y="0"/>
    </contour>
  </outline>
</glyph>
<glyph name="c" format="2">
	<advance width="335"/>
	<unicode hex="0063"/>
	<outline>
		<contour>
			<point x="106" y="-4" type="curve" smooth="yes"/>
			<point x="150" y="-4"/>
			<point x="203" y="32"/>
			<point x="243" y="81" type="curve" smooth="yes"/>
			<point x="256" y="96"/>
			<point x="269" y="114"/>
			<point x="278" y="126" type="curve" smooth="yes"/>
			<point x="285" y="137"/>
			<point x="289" y="148"/>
			<point x="289" y="157" type="curve" smooth="yes"/>
			<point x="289" y="182"/>
			<point x="266" y="197"/>
			<point x="245" y="197" type="curve" smooth="yes"/>
			<point x="232" y="197"/>
			<point x="216" y="189"/>
			<point x="204" y="173" type="curve" smooth="yes"/>
			<point x="195" y="162"/>
			<point x="186" y="150"/>
			<point x="178" y="139" type="curve" smooth="yes"/>
			<point x="149" y="102"/>
			<point x="137" y="85"/>
			<point x="127" y="85" type="curve" smooth="yes"/>
			<point x="119" y="85"/>
			<point x="119" y="99"/>
			<point x="119" y="104" type="curve" smooth="yes"/>
			<point x="119" y="136"/>
			<point x="136" y="197"/>
			<point x="156" y="227" type="curve" smooth="yes"/>
			<point x="177" y="260"/>
			<point x="215" y="265"/>
			<point x="273" y="265" type="curve" smooth="yes"/>
			<point x="298" y="265"/>
			<point x="317" y="285"/>
			<point x="317" y="308" type="curve" smooth="yes"/>
			<point x="317" y="329"/>
			<point x="298" y="350"/>
			<point x="273" y="350" type="curve" smooth="yes"/>
			<point x="187" y="350"/>
			<point x="124" y="334"/>
			<point x="85" y="276" type="curve" smooth="yes"/>
			<point x="54" y="228"/>
			<point x="33" y="139"/>
			<point x="33" y="85" type="curve" smooth="yes"/>
			<point x="33" y="23"/>
			<point x="68" y="-4"/>
		</contour>
	</outline>
</glyph>
<glyph name="d" format="2">
	<advance width="595"/>
	<unicode hex="0064"/>
	<outline>
		<contour>
			<point x="442" y="108" type="line" smooth="yes"/>
			<point x="439" y="104"/>
			<point x="432" y="99"/>
			<point x="424" y="99" type="curve" smooth="yes"/>
			<point x="416" y="99"/>
			<point x="414" y="113"/>
			<point x="420" y="146" type="curve" smooth="yes"/>
			<point x="501" y="602" type="line" smooth="yes"/>
			<point x="507" y="635"/>
			<point x="485" y="650"/>
			<point x="457" y="650" type="curve" smooth="yes"/>
			<point x="434" y="650"/>
			<point x="405" y="637"/>
			<point x="400" y="606" type="curve" smooth="yes"/>
			<point x="335" y="238" type="line" smooth="yes"/>
			<point x="331" y="217"/>
			<point x="296" y="0"/>
			<point x="415" y="0" type="curve" smooth="yes"/>
			<point x="455" y="0"/>
			<point x="481" y="21"/>
			<point x="511" y="57" type="curve" smooth="yes"/>
			<point x="531" y="81"/>
			<point x="532" y="100"/>
			<point x="532" y="113" type="curve" smooth="yes"/>
			<point x="532" y="140"/>
			<point x="512" y="153"/>
			<point x="490" y="153" type="curve" smooth="yes"/>
			<point x="478" y="153"/>
			<point x="466" y="142"/>
			<point x="457" y="129" type="curve" smooth="yes"/>
		</contour>
		<contour>
			<point x="431" y="307" type="line"/>
			<point x="352" y="307" type="line"/>
			<point x="324" y="261"/>
			<point x="292" y="205"/>
			<point x="257" y="162" type="curve" smooth="yes"/>
			<point x="214" y="109"/>
			<point x="185" y="84"/>
			<point x="177" y="84" type="curve" smooth="yes"/>
			<point x="171" y="84"/>
			<point x="171" y="101"/>
			<point x="171" y="106" type="curve" smooth="yes"/>
			<point x="171" y="132"/>
			<point x="186" y="197"/>
			<point x="206" y="226" type="curve" smooth="yes"/>
			<point x="228" y="258"/>
			<point x="262" y="263"/>
			<point x="294" y="263" type="curve" smooth="yes"/>
			<point x="300" y="263"/>
			<point x="360" y="263"/>
			<point x="367" y="263" type="curve" smooth="yes"/>
			<point x="401" y="263" type="line"/>
			<point x="402" y="350" type="line"/>
			<point x="379" y="350"/>
			<point x="314" y="350"/>
			<point x="295" y="350" type="curve" smooth="yes"/>
			<point x="230" y="350"/>
			<point x="169" y="334"/>
			<point x="130" y="277" type="curve" smooth="yes"/>
			<point x="99" y="229"/>
			<point x="76" y="138"/>
			<point x="76" y="84" type="curve" smooth="yes"/>
			<point x="76" y="21"/>
			<point x="101" y="-4"/>
			<point x="140" y="-4" type="curve" smooth="yes"/>
			<point x="203" y="-4"/>
			<point x="262" y="49"/>
			<point x="312" y="110" type="curve" smooth="yes"/>
			<point x="350" y="156"/>
			<point x="411" y="239"/>
			<point x="420" y="269" type="curve" smooth="yes"/>
		</contour>
	</outline>
</glyph>
<glyph name="e" format="2">
  <advance width="338"/>
  <unicode hex="0065"/>
  <outline>
    <contour>
      <point x="124" y="-5" type="curve" smooth="yes"/>
      <point x="202" y="-5"/>
      <point x="251" y="47"/>
      <point x="259" y="58" type="curve" smooth="yes"/>
      <point x="279" y="83"/>
      <point x="274" y="114"/>
      <point x="257" y="128" type="curve" smooth="yes"/>
      <point x="238" y="143"/>
      <point x="212" y="135"/>
      <point x="191" y="110" type="curve" smooth="yes"/>
      <point x="179" y="96"/>
      <point x="156" y="80"/>
      <point x="131" y="80" type="curve" smooth="yes"/>
      <point x="110" y="80"/>
      <point x="100" y="102"/>
      <point x="100" y="118" type="curve" smooth="yes"/>
      <point x="100" y="155"/>
      <point x="116" y="205"/>
      <point x="138" y="239" type="curve" smooth="yes"/>
      <point x="155" y="265"/>
      <point x="183" y="286"/>
      <point x="199" y="286" type="curve" smooth="yes"/>
      <point x="208" y="286"/>
      <point x="217" y="280"/>
      <point x="217" y="273" type="curve" smooth="yes"/>
      <point x="217" y="259"/>
      <point x="199" y="234"/>
      <point x="158" y="210" type="curve" smooth="yes"/>
      <point x="131" y="194"/>
      <point x="84" y="166"/>
      <point x="66" y="157" type="curve"/>
      <point x="54" y="80" type="line"/>
      <point x="113" y="107"/>
      <point x="167" y="136"/>
      <point x="201" y="156" type="curve" smooth="yes"/>
      <point x="248" y="183"/>
      <point x="306" y="244"/>
      <point x="306" y="280" type="curve" smooth="yes"/>
      <point x="306" y="325"/>
      <point x="260" y="354"/>
      <point x="202" y="354" type="curve" smooth="yes"/>
      <point x="154" y="354"/>
      <point x="99" y="337"/>
      <point x="63" y="285" type="curve" smooth="yes"/>
      <point x="34" y="243"/>
      <point x="13" y="173"/>
      <point x="9" y="117" type="curve" smooth="yes"/>
      <point x="2" y="23"/>
      <point x="72" y="-5"/>
    </contour>
  </outline>
</glyph>
<glyph name="f" format="2">
	<advance width="483"/>
	<unicode hex="0066"/>
	<outline>
		<contour>
			<point x="347" y="502" type="line" smooth="yes"/>
			<point x="353" y="534"/>
			<point x="369" y="560"/>
			<point x="386" y="560" type="curve" smooth="yes"/>
			<point x="474" y="560" type="line" smooth="yes"/>
			<point x="503" y="560"/>
			<point x="523" y="584"/>
			<point x="523" y="607" type="curve" smooth="yes"/>
			<point x="523" y="629"/>
			<point x="503" y="650"/>
			<point x="474" y="650" type="curve" smooth="yes"/>
			<point x="386" y="650" type="line" smooth="yes"/>
			<point x="328" y="650"/>
			<point x="266" y="614"/>
			<point x="249" y="519" type="curve" smooth="yes"/>
			<point x="166" y="49" type="line" smooth="yes"/>
			<point x="162" y="26"/>
			<point x="182" y="-2"/>
			<point x="216" y="-2" type="curve" smooth="yes"/>
			<point x="243" y="-2"/>
			<point x="262" y="18"/>
			<point x="266" y="42" type="curve" smooth="yes"/>
		</contour>
		<contour>
			<point x="356" y="265" type="line" smooth="yes"/>
			<point x="386" y="265"/>
			<point x="405" y="281"/>
			<point x="405" y="307" type="curve" smooth="yes"/>
			<point x="405" y="331"/>
			<point x="388" y="350"/>
			<point x="356" y="350" type="curve" smooth="yes"/>
			<point x="173" y="350" type="line" smooth="yes"/>
			<point x="142" y="350"/>
			<point x="124" y="331"/>
			<point x="124" y="307" type="curve" smooth="yes"/>
			<point x="124" y="283"/>
			<point x="142" y="265"/>
			<point x="173" y="265" type="curve" smooth="yes"/>
		</contour>
	</outline>
</glyph>
<glyph name="g" format="2">
  <advance width="444"/>
  <unicode hex="0067"/>
  <outline>
    <contour>
      <point x="-58" y="-255" type="curve" smooth="yes"/>
      <point x="-58" y="-279"/>
      <point x="-37" y="-300"/>
      <point x="3" y="-300" type="curve" smooth="yes"/>
      <point x="21" y="-300"/>
      <point x="111" y="-294"/>
      <point x="143" y="-289" type="curve" smooth="yes"/>
      <point x="201" y="-281"/>
      <point x="246" y="-253"/>
      <point x="272" y="-210" type="curve" smooth="yes"/>
      <point x="306" y="-154"/>
      <point x="312" y="-80"/>
      <point x="326" y="-2" type="curve" smooth="yes"/>
      <point x="378" y="292" type="line" smooth="yes"/>
      <point x="385" y="330"/>
      <point x="368" y="350"/>
      <point x="335" y="350" type="curve" smooth="yes"/>
      <point x="295" y="350" type="line"/>
      <point x="269" y="192" type="line"/>
      <point x="236" y="6" type="line" smooth="yes"/>
      <point x="225" y="-58"/>
      <point x="214" y="-122"/>
      <point x="190" y="-161" type="curve" smooth="yes"/>
      <point x="174" y="-187"/>
      <point x="158" y="-199"/>
      <point x="123" y="-203" type="curve" smooth="yes"/>
      <point x="101" y="-206"/>
      <point x="12" y="-211"/>
      <point x="-1" y="-211" type="curve" smooth="yes"/>
      <point x="-33" y="-211"/>
      <point x="-58" y="-229"/>
    </contour>
    <contour>
      <point x="7" y="85" type="curve" smooth="yes"/>
      <point x="7" y="22"/>
      <point x="40" y="-4"/>
      <point x="79" y="-4" type="curve" smooth="yes"/>
      <point x="147" y="-4"/>
      <point x="199" y="54"/>
      <point x="229" y="92" type="curve" smooth="yes"/>
      <point x="280" y="156"/>
      <point x="322" y="226"/>
      <point x="368" y="308" type="curve"/>
      <point x="304" y="308" type="line"/>
      <point x="276" y="262"/>
      <point x="237" y="207"/>
      <point x="203" y="163" type="curve" smooth="yes"/>
      <point x="167" y="117"/>
      <point x="117" y="84"/>
      <point x="107" y="84" type="curve" smooth="yes"/>
      <point x="102" y="84"/>
      <point x="101" y="99"/>
      <point x="101" y="108" type="curve" smooth="yes"/>
      <point x="101" y="123"/>
      <point x="116" y="197"/>
      <point x="138" y="228" type="curve" smooth="yes"/>
      <point x="160" y="260"/>
      <point x="192" y="263"/>
      <point x="229" y="263" type="curve" smooth="yes"/>
      <point x="327" y="263" type="line"/>
      <point x="327" y="350" type="line"/>
      <point x="229" y="350" type="line" smooth="yes"/>
      <point x="173" y="350"/>
      <point x="101" y="336"/>
      <point x="62" y="279" type="curve" smooth="yes"/>
      <point x="31" y="231"/>
      <point x="7" y="151"/>
    </contour>
  </outline>
</glyph>
<glyph name="h" format="2">
  <advance width="563"/>
  <unicode hex="0068"/>
  <outline>
    <contour>
      <point x="254" y="601" type="line" smooth="yes"/>
      <point x="260" y="633"/>
      <point x="235" y="653"/>
      <point x="208" y="653" type="curve" smooth="yes"/>
      <point x="184" y="653"/>
      <point x="159" y="637"/>
      <point x="154" y="609" type="curve" smooth="yes"/>
      <point x="55" y="45" type="line" smooth="yes"/>
      <point x="50" y="17"/>
      <point x="72" y="-2"/>
      <point x="99" y="-2" type="curve" smooth="yes"/>
      <point x="123" y="-2"/>
      <point x="150" y="11"/>
      <point x="155" y="37" type="curve" smooth="yes"/>
    </contour>
    <contour>
      <point x="432" y="223" type="line" smooth="yes"/>
      <point x="444" y="287"/>
      <point x="420" y="355"/>
      <point x="352" y="355" type="curve" smooth="yes"/>
      <point x="248" y="355"/>
      <point x="178" y="243"/>
      <point x="129" y="171" type="curve"/>
      <point x="154" y="33" type="line"/>
      <point x="210" y="141"/>
      <point x="307" y="271"/>
      <point x="329" y="271" type="curve" smooth="yes"/>
      <point x="341" y="271"/>
      <point x="337" y="256"/>
      <point x="332" y="231" type="curve" smooth="yes"/>
      <point x="298" y="45" type="line" smooth="yes"/>
      <point x="294" y="21"/>
      <point x="310" y="-1"/>
      <point x="342" y="-1" type="curve" smooth="yes"/>
      <point x="378" y="-1"/>
      <point x="395" y="22"/>
      <point x="398" y="37" type="curve" smooth="yes"/>
    </contour>
  </outline>
</glyph>
<glyph name="i" format="2">
  <advance width="320"/>
  <unicode hex="0069"/>
  <outline>
    <contour>
      <point x="200" y="294" type="line" smooth="yes"/>
      <point x="206" y="327"/>
      <point x="179" y="350"/>
      <point x="154" y="350" type="curve" smooth="yes"/>
      <point x="130" y="350"/>
      <point x="105" y="332"/>
      <point x="100" y="305" type="curve" smooth="yes"/>
      <point x="55" y="49" type="line" smooth="yes"/>
      <point x="50" y="19"/>
      <point x="73" y="0"/>
      <point x="99" y="0" type="curve" smooth="yes"/>
      <point x="121" y="0"/>
      <point x="150" y="10"/>
      <point x="155" y="37" type="curve" smooth="yes"/>
    </contour>
    <contour>
      <point x="182" y="417" type="curve" smooth="yes"/>
      <point x="209" y="417"/>
      <point x="232" y="439"/>
      <point x="232" y="466" type="curve" smooth="yes"/>
      <point x="232" y="495"/>
      <point x="208" y="515"/>
      <point x="182" y="515" type="curve" smooth="yes"/>
      <point x="155" y="515"/>
      <point x="134" y="493"/>
      <point x="134" y="466" type="curve" smooth="yes"/>
      <point x="134" y="439"/>
      <point x="156" y="417"/>
    </contour>
  </outline>
</glyph>
<glyph name="j" format="2">
  <advance width="213"/>
  <unicode hex="006A"/>
  <outline>
    <contour>
      <point x="-275" y="-257" type="curve" smooth="yes"/>
      <point x="-275" y="-282"/>
      <point x="-253" y="-300"/>
      <point x="-214" y="-300" type="curve" smooth="yes"/>
      <point x="-195" y="-300"/>
      <point x="-110" y="-300"/>
      <point x="-78" y="-295" type="curve" smooth="yes"/>
      <point x="-20" y="-285"/>
      <point x="24" y="-256"/>
      <point x="50" y="-215" type="curve" smooth="yes"/>
      <point x="85" y="-158"/>
      <point x="94" y="-83"/>
      <point x="108" y="-5" type="curve" smooth="yes"/>
      <point x="162" y="295" type="line" smooth="yes"/>
      <point x="168" y="330"/>
      <point x="142" y="350"/>
      <point x="115" y="350" type="curve" smooth="yes"/>
      <point x="93" y="350"/>
      <point x="67" y="337"/>
      <point x="62" y="306" type="curve" smooth="yes"/>
      <point x="10" y="3" type="line" smooth="yes"/>
      <point x="-1" y="-62"/>
      <point x="-8" y="-126"/>
      <point x="-31" y="-165" type="curve" smooth="yes"/>
      <point x="-47" y="-190"/>
      <point x="-63" y="-203"/>
      <point x="-100" y="-208" type="curve" smooth="yes"/>
      <point x="-119" y="-210"/>
      <point x="-196" y="-209"/>
      <point x="-213" y="-209" type="curve" smooth="yes"/>
      <point x="-250" y="-209"/>
      <point x="-275" y="-231"/>
    </contour>
    <contour>
      <point x="130" y="409" type="curve" smooth="yes"/>
      <point x="159" y="409"/>
      <point x="185" y="433"/>
      <point x="185" y="463" type="curve" smooth="yes"/>
      <point x="185" y="494"/>
      <point x="159" y="516"/>
      <point x="130" y="516" type="curve" smooth="yes"/>
      <point x="102" y="516"/>
      <point x="77" y="494"/>
      <point x="77" y="463" type="curve" smooth="yes"/>
      <point x="77" y="433"/>
      <point x="102" y="409"/>
    </contour>
  </outline>
</glyph>
<glyph name="k" format="2">
  <advance width="415"/>
  <unicode hex="006B"/>
  <outline>
    <contour>
      <point x="39" y="-2" type="curve" smooth="yes"/>
      <point x="66" y="-2"/>
      <point x="86" y="11"/>
      <point x="91" y="40" type="curve" smooth="yes"/>
      <point x="189" y="599" type="line" smooth="yes"/>
      <point x="195" y="633"/>
      <point x="175" y="653"/>
      <point x="145" y="653" type="curve" smooth="yes"/>
      <point x="122" y="653"/>
      <point x="99" y="638"/>
      <point x="94" y="608" type="curve" smooth="yes"/>
      <point x="-4" y="48" type="line" smooth="yes"/>
      <point x="-9" y="19"/>
      <point x="12" y="-2"/>
    </contour>
    <contour>
      <point x="300" y="-2" type="curve" smooth="yes"/>
      <point x="320" y="-2"/>
      <point x="340" y="11"/>
      <point x="344" y="31" type="curve"/>
      <point x="348" y="43"/>
      <point x="346" y="55"/>
      <point x="336" y="69" type="curve" smooth="yes"/>
      <point x="270" y="166" type="line"/>
      <point x="317" y="201"/>
      <point x="355" y="236"/>
      <point x="355" y="281" type="curve" smooth="yes"/>
      <point x="355" y="315"/>
      <point x="323" y="354"/>
      <point x="268" y="354" type="curve" smooth="yes"/>
      <point x="201" y="354"/>
      <point x="126" y="282"/>
      <point x="69" y="208" type="curve"/>
      <point x="63" y="101" type="line"/>
      <point x="127" y="191"/>
      <point x="215" y="280"/>
      <point x="251" y="280" type="curve" smooth="yes"/>
      <point x="259" y="280"/>
      <point x="266" y="274"/>
      <point x="266" y="267" type="curve" smooth="yes"/>
      <point x="266" y="256"/>
      <point x="235" y="223"/>
      <point x="177" y="189" type="curve" smooth="yes"/>
      <point x="163" y="180"/>
      <point x="157" y="165"/>
      <point x="166" y="152" type="curve" smooth="yes"/>
      <point x="253" y="25" type="line" smooth="yes"/>
      <point x="264" y="9"/>
      <point x="282" y="-2"/>
    </contour>
  </outline>
</glyph>
<glyph name="l" format="2">
  <advance width="316"/>
  <unicode hex="006C"/>
  <outline>
    <contour>
      <point x="252" y="599" type="line" smooth="yes"/>
      <point x="258" y="631"/>
      <point x="231" y="650"/>
      <point x="203" y="650" type="curve" smooth="yes"/>
      <point x="181" y="650"/>
      <point x="159" y="640"/>
      <point x="154" y="612" type="curve" smooth="yes"/>
      <point x="55" y="50" type="line" smooth="yes"/>
      <point x="49" y="15"/>
      <point x="78" y="0"/>
      <point x="101" y="0" type="curve" smooth="yes"/>
      <point x="123" y="0"/>
      <point x="149" y="15"/>
      <point x="154" y="44" type="curve" smooth="yes"/>
    </contour>
  </outline>
</glyph>
<glyph name="m" format="2">
  <advance width="791"/>
  <unicode hex="006D"/>
  <outline>
    <contour>
      <point x="660" y="223" type="line" smooth="yes"/>
      <point x="672" y="289"/>
      <point x="660" y="354"/>
      <point x="588" y="354" type="curve" smooth="yes"/>
      <point x="487" y="354"/>
      <point x="434" y="270"/>
      <point x="384" y="197" type="curve"/>
      <point x="380" y="30" type="line"/>
      <point x="414" y="77"/>
      <point x="531" y="276"/>
      <point x="556" y="276" type="curve" smooth="yes"/>
      <point x="567" y="276"/>
      <point x="564" y="256"/>
      <point x="560" y="231" type="curve" smooth="yes"/>
      <point x="527" y="45" type="line" smooth="yes"/>
      <point x="523" y="21"/>
      <point x="540" y="0"/>
      <point x="572" y="0" type="curve" smooth="yes"/>
      <point x="608" y="0"/>
      <point x="624" y="22"/>
      <point x="627" y="37" type="curve" smooth="yes"/>
    </contour>
    <contour>
      <point x="201" y="302" type="line" smooth="yes"/>
      <point x="206" y="331"/>
      <point x="189" y="350"/>
      <point x="160" y="350" type="curve" smooth="yes"/>
      <point x="131" y="350"/>
      <point x="109" y="337"/>
      <point x="101" y="309" type="curve"/>
      <point x="54" y="43" type="line" smooth="yes"/>
      <point x="49" y="15"/>
      <point x="67" y="0"/>
      <point x="96" y="0" type="curve" smooth="yes"/>
      <point x="133" y="0"/>
      <point x="151" y="23"/>
      <point x="154" y="37" type="curve" smooth="yes"/>
    </contour>
    <contour>
      <point x="418" y="222" type="line" smooth="yes"/>
      <point x="430" y="288"/>
      <point x="408" y="354"/>
      <point x="336" y="354" type="curve" smooth="yes"/>
      <point x="234" y="354"/>
      <point x="189" y="256"/>
      <point x="139" y="196" type="curve"/>
      <point x="146" y="30" type="line"/>
      <point x="171" y="74"/>
      <point x="283" y="276"/>
      <point x="322" y="276" type="curve" smooth="yes"/>
      <point x="330" y="276"/>
      <point x="328" y="255"/>
      <point x="323" y="230" type="curve" smooth="yes"/>
      <point x="289" y="45" type="line" smooth="yes"/>
      <point x="284" y="20"/>
      <point x="301" y="0"/>
      <point x="333" y="0" type="curve" smooth="yes"/>
      <point x="369" y="0"/>
      <point x="381" y="21"/>
      <point x="384" y="37" type="curve" smooth="yes"/>
    </contour>
  </outline>
</glyph>
<glyph name="n" format="2">
  <advance width="549"/>
  <unicode hex="006E"/>
  <outline>
    <contour>
      <point x="418" y="222" type="line" smooth="yes"/>
      <point x="430" y="288"/>
      <point x="408" y="354"/>
      <point x="337" y="354" type="curve" smooth="yes"/>
      <point x="236" y="354"/>
      <point x="197" y="268"/>
      <point x="139" y="196" type="curve"/>
      <point x="146" y="30" type="line"/>
      <point x="181" y="91"/>
      <point x="284" y="276"/>
      <point x="322" y="276" type="curve" smooth="yes"/>
      <point x="330" y="276"/>
      <point x="328" y="256"/>
      <point x="323" y="231" type="curve" smooth="yes"/>
      <point x="289" y="44" type="line" smooth="yes"/>
      <point x="285" y="20"/>
      <point x="300" y="0"/>
      <point x="333" y="0" type="curve" smooth="yes"/>
      <point x="370" y="0"/>
      <point x="381" y="20"/>
      <point x="385" y="42" type="curve" smooth="yes"/>
    </contour>
    <contour>
      <point x="201" y="302" type="line" smooth="yes"/>
      <point x="206" y="332"/>
      <point x="190" y="350"/>
      <point x="158" y="350" type="curve" smooth="yes"/>
      <point x="116" y="350"/>
      <point x="103" y="320"/>
      <point x="101" y="308" type="curve" smooth="yes"/>
      <point x="54" y="44" type="line" smooth="yes"/>
      <point x="50" y="20"/>
      <point x="61" y="0"/>
      <point x="95" y="0" type="curve" smooth="yes"/>
      <point x="132" y="0"/>
      <point x="151" y="22"/>
      <point x="154" y="37" type="curve" smooth="yes"/>
    </contour>
  </outline>
</glyph>
<glyph name="o" format="2">
	<advance width="379"/>
	<unicode hex="006F"/>
	<outline>
		<contour>
			<point x="133" y="-4" type="curve" smooth="yes"/>
			<point x="241" y="-4"/>
			<point x="334" y="152"/>
			<point x="351" y="250" type="curve" smooth="yes"/>
			<point x="362" y="314"/>
			<point x="300" y="352"/>
			<point x="224" y="352" type="curve" smooth="yes"/>
			<point x="159" y="352"/>
			<point x="108" y="312"/>
			<point x="85" y="270" type="curve" smooth="yes"/>
			<point x="68" y="238"/>
			<point x="35" y="174"/>
			<point x="35" y="104" type="curve" smooth="yes"/>
			<point x="35" y="24"/>
			<point x="83" y="-4"/>
		</contour>
		<contour>
			<point x="143" y="83" type="curve" smooth="yes"/>
			<point x="137" y="83"/>
			<point x="134" y="94"/>
			<point x="134" y="113" type="curve" smooth="yes"/>
			<point x="134" y="151"/>
			<point x="155" y="189"/>
			<point x="176" y="230" type="curve" smooth="yes"/>
			<point x="192" y="257"/>
			<point x="206" y="264"/>
			<point x="222" y="264" type="curve" smooth="yes"/>
			<point x="242" y="264"/>
			<point x="254" y="255"/>
			<point x="251" y="236" type="curve" smooth="yes"/>
			<point x="242" y="185"/>
			<point x="179" y="83"/>
		</contour>
	</outline>
</glyph>
<glyph name="p" format="2">
	<advance width="524"/>
	<unicode hex="0070"/>
	<outline>
		<contour>
			<point x="232" y="299" type="line" smooth="yes"/>
			<point x="237" y="327"/>
			<point x="214" y="350"/>
			<point x="187" y="350" type="curve" smooth="yes"/>
			<point x="164" y="350"/>
			<point x="136" y="335"/>
			<point x="132" y="310" type="curve" smooth="yes"/>
			<point x="33" y="-254" type="line" smooth="yes"/>
			<point x="28" y="-283"/>
			<point x="53" y="-303"/>
			<point x="80" y="-303" type="curve" smooth="yes"/>
			<point x="103" y="-303"/>
			<point x="129" y="-288"/>
			<point x="133" y="-263" type="curve" smooth="yes"/>
		</contour>
		<contour>
			<point x="108" y="42" type="line"/>
			<point x="178" y="42" type="line"/>
			<point x="210" y="96"/>
			<point x="239" y="147"/>
			<point x="283" y="201" type="curve" smooth="yes"/>
			<point x="322" y="249"/>
			<point x="349" y="266"/>
			<point x="353" y="266" type="curve" smooth="yes"/>
			<point x="358" y="266"/>
			<point x="359" y="256"/>
			<point x="359" y="251" type="curve" smooth="yes"/>
			<point x="359" y="220"/>
			<point x="346" y="158"/>
			<point x="327" y="129" type="curve" smooth="yes"/>
			<point x="304" y="95"/>
			<point x="274" y="87"/>
			<point x="250" y="87" type="curve" smooth="yes"/>
			<point x="244" y="87"/>
			<point x="184" y="87"/>
			<point x="177" y="87" type="curve" smooth="yes"/>
			<point x="143" y="87" type="line"/>
			<point x="143" y="62"/>
			<point x="143" y="22"/>
			<point x="143" y="0" type="curve"/>
			<point x="166" y="0"/>
			<point x="231" y="0"/>
			<point x="250" y="0" type="curve" smooth="yes"/>
			<point x="297" y="0"/>
			<point x="362" y="16"/>
			<point x="401" y="73" type="curve" smooth="yes"/>
			<point x="432" y="121"/>
			<point x="454" y="211"/>
			<point x="454" y="265" type="curve" smooth="yes"/>
			<point x="454" y="332"/>
			<point x="433" y="354"/>
			<point x="390" y="354" type="curve" smooth="yes"/>
			<point x="331" y="354"/>
			<point x="257" y="290"/>
			<point x="222" y="243" type="curve" smooth="yes"/>
			<point x="172" y="176"/>
			<point x="127" y="114"/>
			<point x="118" y="80" type="curve" smooth="yes"/>
		</contour>
	</outline>
</glyph>
<glyph name="q" format="2">
	<advance width="419"/>
	<unicode hex="0071"/>
	<outline>
		<contour>
			<point x="376" y="307" type="line"/>
			<point x="307" y="306" type="line"/>
			<point x="281" y="261"/>
			<point x="255" y="215"/>
			<point x="217" y="167" type="curve" smooth="yes"/>
			<point x="164" y="101"/>
			<point x="138" y="87"/>
			<point x="133" y="87" type="curve" smooth="yes"/>
			<point x="128" y="87"/>
			<point x="127" y="100"/>
			<point x="127" y="105" type="curve" smooth="yes"/>
			<point x="127" y="137"/>
			<point x="141" y="194"/>
			<point x="161" y="224" type="curve" smooth="yes"/>
			<point x="182" y="256"/>
			<point x="213" y="263"/>
			<point x="241" y="263" type="curve" smooth="yes"/>
			<point x="247" y="263"/>
			<point x="307" y="263"/>
			<point x="314" y="263" type="curve" smooth="yes"/>
			<point x="349" y="263" type="line"/>
			<point x="349" y="288"/>
			<point x="349" y="328"/>
			<point x="349" y="350" type="curve"/>
			<point x="326" y="350"/>
			<point x="261" y="350"/>
			<point x="241" y="350" type="curve" smooth="yes"/>
			<point x="186" y="350"/>
			<point x="123" y="332"/>
			<point x="85" y="275" type="curve" smooth="yes"/>
			<point x="53" y="228"/>
			<point x="33" y="139"/>
			<point x="33" y="85" type="curve" smooth="yes"/>
			<point x="33" y="22"/>
			<point x="51" y="-4"/>
			<point x="90" y="-4" type="curve" smooth="yes"/>
			<point x="153" y="-4"/>
			<point x="220" y="51"/>
			<point x="274" y="118" type="curve" smooth="yes"/>
			<point x="320" y="176"/>
			<point x="352" y="223"/>
			<point x="365" y="269" type="curve" smooth="yes"/>
		</contour>
		<contour>
			<point x="242" y="-205" type="line"/>
			<point x="288" y="-284" type="line"/>
			<point x="382" y="-205" type="line" smooth="yes"/>
			<point x="397" y="-193"/>
			<point x="408" y="-179"/>
			<point x="410" y="-166" type="curve" smooth="yes"/>
			<point x="414" y="-141"/>
			<point x="394" y="-122"/>
			<point x="369" y="-121" type="curve" smooth="yes"/>
			<point x="356" y="-120"/>
			<point x="340" y="-125"/>
			<point x="324" y="-138" type="curve" smooth="yes"/>
		</contour>
		<contour>
			<point x="402" y="306" type="line" smooth="yes"/>
			<point x="406" y="328"/>
			<point x="390" y="350"/>
			<point x="357" y="350" type="curve" smooth="yes"/>
			<point x="312" y="350" type="line"/>
			<point x="206" y="-248" type="line" smooth="yes"/>
			<point x="200" y="-280"/>
			<point x="221" y="-300"/>
			<point x="248" y="-300" type="curve" smooth="yes"/>
			<point x="271" y="-300"/>
			<point x="298" y="-284"/>
			<point x="303" y="-256" type="curve" smooth="yes"/>
		</contour>
	</outline>
</glyph>
<glyph name="r" format="2">
	<advance width="489"/>
	<unicode hex="0072"/>
	<outline>
		<contour>
			<point x="159" y="46" type="line"/>
			<point x="198" y="109"/>
			<point x="244" y="180"/>
			<point x="257" y="196" type="curve" smooth="yes"/>
			<point x="270" y="212"/>
			<point x="285" y="228"/>
			<point x="296" y="239" type="curve" smooth="yes"/>
			<point x="305" y="248"/>
			<point x="330" y="258"/>
			<point x="333" y="258" type="curve" smooth="yes"/>
			<point x="338" y="258"/>
			<point x="341" y="250"/>
			<point x="343" y="244" type="curve" smooth="yes"/>
			<point x="349" y="224"/>
			<point x="366" y="211"/>
			<point x="389" y="211" type="curve" smooth="yes"/>
			<point x="413" y="211"/>
			<point x="427" y="228"/>
			<point x="427" y="256" type="curve" smooth="yes"/>
			<point x="427" y="274"/>
			<point x="418" y="319"/>
			<point x="396" y="338" type="curve" smooth="yes"/>
			<point x="390" y="344"/>
			<point x="373" y="354"/>
			<point x="355" y="354" type="curve" smooth="yes"/>
			<point x="332" y="354"/>
			<point x="293" y="348"/>
			<point x="269" y="333" type="curve" smooth="yes"/>
			<point x="252" y="322"/>
			<point x="226" y="300"/>
			<point x="203" y="274" type="curve" smooth="yes"/>
			<point x="186" y="257"/>
			<point x="169" y="239"/>
			<point x="159" y="227" type="curve"/>
		</contour>
		<contour>
			<point x="231" y="297" type="line" smooth="yes"/>
			<point x="237" y="329"/>
			<point x="211" y="350"/>
			<point x="185" y="350" type="curve" smooth="yes"/>
			<point x="163" y="350"/>
			<point x="137" y="336"/>
			<point x="132" y="309" type="curve" smooth="yes"/>
			<point x="86" y="48" type="line" smooth="yes"/>
			<point x="81" y="18"/>
			<point x="106" y="0"/>
			<point x="132" y="0" type="curve" smooth="yes"/>
			<point x="155" y="0"/>
			<point x="181" y="14"/>
			<point x="186" y="41" type="curve" smooth="yes"/>
		</contour>
	</outline>
</glyph>
<glyph name="s" format="2">
	<advance width="340"/>
	<unicode hex="0073"/>
	<outline>
		<contour>
			<point x="142" y="0" type="line" smooth="yes"/>
			<point x="201" y="0"/>
			<point x="271" y="18"/>
			<point x="283" y="87" type="curve" smooth="yes"/>
			<point x="290" y="127"/>
			<point x="273" y="160"/>
			<point x="250" y="178" type="curve" smooth="yes"/>
			<point x="234" y="191"/>
			<point x="199" y="214"/>
			<point x="169" y="237" type="curve" smooth="yes"/>
			<point x="159" y="246"/>
			<point x="154" y="250"/>
			<point x="154" y="254" type="curve" smooth="yes"/>
			<point x="154" y="258"/>
			<point x="167" y="263"/>
			<point x="188" y="263" type="curve" smooth="yes"/>
			<point x="273" y="263" type="line" smooth="yes"/>
			<point x="297" y="263"/>
			<point x="322" y="279"/>
			<point x="322" y="307" type="curve" smooth="yes"/>
			<point x="322" y="340"/>
			<point x="299" y="351"/>
			<point x="259" y="351" type="curve" smooth="yes"/>
			<point x="188" y="351" type="line" smooth="yes"/>
			<point x="124" y="351"/>
			<point x="63" y="314"/>
			<point x="60" y="253" type="curve" smooth="yes"/>
			<point x="59" y="208"/>
			<point x="90" y="183"/>
			<point x="117" y="163" type="curve" smooth="yes"/>
			<point x="139" y="147"/>
			<point x="167" y="132"/>
			<point x="180" y="121" type="curve" smooth="yes"/>
			<point x="189" y="114"/>
			<point x="193" y="110"/>
			<point x="191" y="101" type="curve" smooth="yes"/>
			<point x="189" y="88"/>
			<point x="176" y="87"/>
			<point x="142" y="87" type="curve" smooth="yes"/>
			<point x="74" y="87" type="line" smooth="yes"/>
			<point x="45" y="87"/>
			<point x="22" y="72"/>
			<point x="22" y="43" type="curve" smooth="yes"/>
			<point x="22" y="15"/>
			<point x="44" y="0"/>
			<point x="73" y="0" type="curve" smooth="yes"/>
		</contour>
	</outline>
</glyph>
<glyph name="t" format="2">
  <advance width="292"/>
  <unicode hex="0074"/>
  <outline>
    <contour>
      <point x="88" y="0" type="curve" smooth="yes"/>
      <point x="113" y="0"/>
      <point x="135" y="9"/>
      <point x="140" y="35" type="curve" smooth="yes"/>
      <point x="226" y="523" type="line" smooth="yes"/>
      <point x="232" y="557"/>
      <point x="203" y="568"/>
      <point x="176" y="568" type="curve" smooth="yes"/>
      <point x="154" y="568"/>
      <point x="131" y="555"/>
      <point x="127" y="532" type="curve" smooth="yes"/>
      <point x="41" y="44" type="line" smooth="yes"/>
      <point x="35" y="12"/>
      <point x="62" y="0"/>
    </contour>
    <contour>
      <point x="-13" y="307" type="curve" smooth="yes"/>
      <point x="-13" y="283"/>
      <point x="5" y="265"/>
      <point x="37" y="265" type="curve" smooth="yes"/>
      <point x="247" y="265" type="line" smooth="yes"/>
      <point x="279" y="265"/>
      <point x="297" y="283"/>
      <point x="297" y="307" type="curve" smooth="yes"/>
      <point x="297" y="332"/>
      <point x="279" y="350"/>
      <point x="247" y="350" type="curve" smooth="yes"/>
      <point x="37" y="350" type="line" smooth="yes"/>
      <point x="5" y="350"/>
      <point x="-13" y="332"/>
    </contour>
  </outline>
</glyph>
<glyph name="u" format="2">
	<advance width="548"/>
	<unicode hex="0075"/>
	<outline>
		<contour>
			<point x="369" y="314" type="line"/>
			<point x="322" y="231"/>
			<point x="231" y="74"/>
			<point x="196" y="74" type="curve" smooth="yes"/>
			<point x="188" y="74"/>
			<point x="191" y="94"/>
			<point x="195" y="119" type="curve" smooth="yes"/>
			<point x="227" y="299" type="line" smooth="yes"/>
			<point x="233" y="333"/>
			<point x="217" y="350"/>
			<point x="185" y="350" type="curve" smooth="yes"/>
			<point x="160" y="350"/>
			<point x="138" y="340"/>
			<point x="132" y="308" type="curve" smooth="yes"/>
			<point x="100" y="127" type="line" smooth="yes"/>
			<point x="88" y="58"/>
			<point x="112" y="-4"/>
			<point x="179" y="-4" type="curve" smooth="yes"/>
			<point x="279" y="-4"/>
			<point x="313" y="72"/>
			<point x="379" y="153" type="curve"/>
		</contour>
		<contour>
			<point x="463" y="305" type="line" smooth="yes"/>
			<point x="468" y="336"/>
			<point x="449" y="350"/>
			<point x="424" y="350" type="curve" smooth="yes"/>
			<point x="397" y="350"/>
			<point x="367" y="336"/>
			<point x="362" y="309" type="curve" smooth="yes"/>
			<point x="317" y="52" type="line" smooth="yes"/>
			<point x="310" y="14"/>
			<point x="331" y="0"/>
			<point x="361" y="0" type="curve" smooth="yes"/>
			<point x="383" y="0"/>
			<point x="411" y="11"/>
			<point x="417" y="44" type="curve" smooth="yes"/>
		</contour>
	</outline>
</glyph>
<glyph name="v" format="2">
	<advance width="567"/>
	<unicode hex="0076"/>
	<outline>
		<contour>
			<point x="231" y="298" type="line" smooth="yes"/>
			<point x="237" y="331"/>
			<point x="214" y="351"/>
			<point x="187" y="351" type="curve" smooth="yes"/>
			<point x="165" y="351"/>
			<point x="136" y="335"/>
			<point x="131" y="308" type="curve" smooth="yes"/>
			<point x="97" y="115" type="line" smooth="yes"/>
			<point x="93" y="90"/>
			<point x="95" y="62"/>
			<point x="102" y="39" type="curve" smooth="yes"/>
			<point x="113" y="12"/>
			<point x="134" y="-4"/>
			<point x="167" y="-4" type="curve" smooth="yes"/>
			<point x="195" y="-4"/>
			<point x="234" y="4"/>
			<point x="268" y="27" type="curve" smooth="yes"/>
			<point x="308" y="54"/>
			<point x="344" y="97"/>
			<point x="366" y="129" type="curve" smooth="yes"/>
			<point x="398" y="173"/>
			<point x="446" y="248"/>
			<point x="453" y="264" type="curve"/>
			<point x="491" y="336"/>
			<point x="447" y="351"/>
			<point x="425" y="351" type="curve" smooth="yes"/>
			<point x="398" y="351"/>
			<point x="385" y="338"/>
			<point x="369" y="308" type="curve" smooth="yes"/>
			<point x="361" y="293"/>
			<point x="343" y="262"/>
			<point x="317" y="223" type="curve" smooth="yes"/>
			<point x="288" y="179"/>
			<point x="280" y="168"/>
			<point x="262" y="143" type="curve" smooth="yes"/>
			<point x="249" y="126"/>
			<point x="233" y="106"/>
			<point x="223" y="96" type="curve" smooth="yes"/>
			<point x="215" y="88"/>
			<point x="203" y="78"/>
			<point x="199" y="78" type="curve" smooth="yes"/>
			<point x="193" y="78"/>
			<point x="196" y="107"/>
			<point x="205" y="157" type="curve" smooth="yes"/>
		</contour>
		<contour>
			<point x="462" y="334" type="line"/>
			<point x="387" y="278" type="line"/>
			<point x="432" y="212" type="line" smooth="yes"/>
			<point x="443" y="196"/>
			<point x="459" y="184"/>
			<point x="480" y="184" type="curve" smooth="yes"/>
			<point x="499" y="184"/>
			<point x="518" y="196"/>
			<point x="524" y="214" type="curve" smooth="yes"/>
			<point x="528" y="229"/>
			<point x="525" y="241"/>
			<point x="515" y="256" type="curve" smooth="yes"/>
		</contour>
	</outline>
</glyph>
<glyph name="w" format="2">
	<advance width="723"/>
	<unicode hex="0077"/>
	<outline>
		<contour>
			<point x="415" y="298" type="line" smooth="yes"/>
			<point x="422" y="335"/>
			<point x="393" y="350"/>
			<point x="371" y="350" type="curve"/>
			<point x="312" y="264" type="line"/>
			<point x="282" y="115" type="line" smooth="yes"/>
			<point x="277" y="90"/>
			<point x="279" y="62"/>
			<point x="286" y="39" type="curve" smooth="yes"/>
			<point x="295" y="12"/>
			<point x="319" y="-5"/>
			<point x="351" y="-5" type="curve" smooth="yes"/>
			<point x="384" y="-5"/>
			<point x="422" y="6"/>
			<point x="448" y="24" type="curve" smooth="yes"/>
			<point x="486" y="50"/>
			<point x="520" y="86"/>
			<point x="542" y="118" type="curve" smooth="yes"/>
			<point x="574" y="162"/>
			<point x="629" y="244"/>
			<point x="637" y="260" type="curve" smooth="yes"/>
			<point x="673" y="331"/>
			<point x="634" y="350"/>
			<point x="612" y="350" type="curve" smooth="yes"/>
			<point x="584" y="350"/>
			<point x="572" y="343"/>
			<point x="557" y="314" type="curve" smooth="yes"/>
			<point x="544" y="289"/>
			<point x="528" y="263"/>
			<point x="502" y="224" type="curve" smooth="yes"/>
			<point x="473" y="180"/>
			<point x="460" y="161"/>
			<point x="450" y="147" type="curve" smooth="yes"/>
			<point x="441" y="135"/>
			<point x="418" y="106"/>
			<point x="412" y="100" type="curve" smooth="yes"/>
			<point x="403" y="91"/>
			<point x="389" y="77"/>
			<point x="383" y="77" type="curve" smooth="yes"/>
			<point x="378" y="77"/>
			<point x="380" y="102"/>
			<point x="383" y="117" type="curve" smooth="yes"/>
		</contour>
		<contour>
			<point x="378" y="350" type="line"/>
			<point x="347" y="350"/>
			<point x="335" y="344"/>
			<point x="314" y="307" type="curve" smooth="yes"/>
			<point x="304" y="289"/>
			<point x="292" y="267"/>
			<point x="268" y="230" type="curve" smooth="yes"/>
			<point x="248" y="199"/>
			<point x="232" y="177"/>
			<point x="219" y="158" type="curve" smooth="yes"/>
			<point x="210" y="145"/>
			<point x="195" y="126"/>
			<point x="177" y="105" type="curve" smooth="yes"/>
			<point x="164" y="90"/>
			<point x="149" y="78"/>
			<point x="145" y="78" type="curve" smooth="yes"/>
			<point x="140" y="78"/>
			<point x="143" y="109"/>
			<point x="146" y="125" type="curve" smooth="yes"/>
			<point x="177" y="298" type="line" smooth="yes"/>
			<point x="183" y="332"/>
			<point x="160" y="350"/>
			<point x="134" y="350" type="curve" smooth="yes"/>
			<point x="107" y="350"/>
			<point x="83" y="336"/>
			<point x="77" y="304" type="curve" smooth="yes"/>
			<point x="43" y="113" type="line" smooth="yes"/>
			<point x="39" y="88"/>
			<point x="41" y="60"/>
			<point x="49" y="37" type="curve" smooth="yes"/>
			<point x="58" y="10"/>
			<point x="85" y="-4"/>
			<point x="115" y="-4" type="curve" smooth="yes"/>
			<point x="143" y="-4"/>
			<point x="184" y="7"/>
			<point x="209" y="24" type="curve" smooth="yes"/>
			<point x="254" y="54"/>
			<point x="289" y="97"/>
			<point x="312" y="129" type="curve" smooth="yes"/>
			<point x="348" y="183"/>
			<point x="380" y="243"/>
			<point x="384" y="250" type="curve"/>
		</contour>
		<contour>
			<point x="646" y="333" type="line"/>
			<point x="570" y="277" type="line"/>
			<point x="617" y="210" type="line" smooth="yes"/>
			<point x="628" y="194"/>
			<point x="646" y="183"/>
			<point x="664" y="183" type="curve" smooth="yes"/>
			<point x="684" y="183"/>
			<point x="705" y="196"/>
			<point x="710" y="217" type="curve" smooth="yes"/>
			<point x="712" y="229"/>
			<point x="709" y="240"/>
			<point x="699" y="255" type="curve" smooth="yes"/>
		</contour>
	</outline>
</glyph>
<glyph name="x" format="2">
  <advance width="342"/>
  <unicode hex="0078"/>
  <outline>
    <contour>
      <point x="-26" y="13" type="curve" smooth="yes"/>
      <point x="-10" y="-3"/>
      <point x="22" y="-7"/>
      <point x="46" y="16" type="curve" smooth="yes"/>
      <point x="166" y="134" type="line"/>
      <point x="178" y="145" type="line"/>
      <point x="313" y="277" type="line" smooth="yes"/>
      <point x="336" y="299"/>
      <point x="331" y="324"/>
      <point x="314" y="339" type="curve" smooth="yes"/>
      <point x="298" y="354"/>
      <point x="269" y="359"/>
      <point x="246" y="337" type="curve" smooth="yes"/>
      <point x="123" y="218" type="line"/>
      <point x="110" y="206" type="line"/>
      <point x="-24" y="76" type="line" smooth="yes"/>
      <point x="-48" y="53"/>
      <point x="-42" y="29"/>
    </contour>
    <contour>
      <point x="265" y="11" type="curve" smooth="yes"/>
      <point x="281" y="26"/>
      <point x="287" y="49"/>
      <point x="272" y="71" type="curve" smooth="yes"/>
      <point x="185" y="199" type="line"/>
      <point x="94" y="332" type="line"/>
      <point x="75" y="358"/>
      <point x="47" y="357"/>
      <point x="28" y="343" type="curve" smooth="yes"/>
      <point x="10" y="330"/>
      <point x="2" y="305"/>
      <point x="18" y="282" type="curve"/>
      <point x="110" y="146" type="line"/>
      <point x="197" y="18" type="line" smooth="yes"/>
      <point x="216" y="-10"/>
      <point x="247" y="-5"/>
    </contour>
  </outline>
</glyph>
<glyph name="y" format="2">
  <advance width="429"/>
  <unicode hex="0079"/>
  <outline>
    <contour>
      <point x="-53" y="-257" type="curve" smooth="yes"/>
      <point x="-53" y="-282"/>
      <point x="-45" y="-300"/>
      <point x="-6" y="-300" type="curve" smooth="yes"/>
      <point x="13" y="-300"/>
      <point x="104" y="-298"/>
      <point x="136" y="-293" type="curve"/>
      <point x="187" y="-286"/>
      <point x="232" y="-260"/>
      <point x="263" y="-214" type="curve" smooth="yes"/>
      <point x="300" y="-159"/>
      <point x="308" y="-83"/>
      <point x="321" y="-5" type="curve" smooth="yes"/>
      <point x="372" y="295" type="line" smooth="yes"/>
      <point x="378" y="331"/>
      <point x="371" y="350"/>
      <point x="333" y="350" type="curve" smooth="yes"/>
      <point x="300" y="350"/>
      <point x="280" y="333"/>
      <point x="275" y="302" type="curve" smooth="yes"/>
      <point x="225" y="3" type="line" smooth="yes"/>
      <point x="214" y="-62"/>
      <point x="206" y="-126"/>
      <point x="183" y="-165" type="curve" smooth="yes"/>
      <point x="167" y="-190"/>
      <point x="141" y="-204"/>
      <point x="114" y="-207" type="curve" smooth="yes"/>
      <point x="95" y="-209"/>
      <point x="12" y="-209"/>
      <point x="-5" y="-209" type="curve" smooth="yes"/>
      <point x="-42" y="-209"/>
      <point x="-53" y="-231"/>
    </contour>
    <contour>
      <point x="83" y="-4" type="curve" smooth="yes"/>
      <point x="169" y="-4"/>
      <point x="235" y="70"/>
      <point x="287" y="172" type="curve"/>
      <point x="275" y="302" type="line"/>
      <point x="242" y="207"/>
      <point x="148" y="74"/>
      <point x="114" y="74" type="curve" smooth="yes"/>
      <point x="104" y="74"/>
      <point x="105" y="94"/>
      <point x="109" y="119" type="curve" smooth="yes"/>
      <point x="141" y="300" type="line" smooth="yes"/>
      <point x="146" y="330"/>
      <point x="134" y="350"/>
      <point x="99" y="350" type="curve" smooth="yes"/>
      <point x="68" y="350"/>
      <point x="51" y="335"/>
      <point x="46" y="307" type="curve" smooth="yes"/>
      <point x="14" y="127" type="line" smooth="yes"/>
      <point x="2" y="58"/>
      <point x="16" y="-4"/>
    </contour>
  </outline>
</glyph>
<glyph name="z" format="2">
  <advance width="538"/>
  <unicode hex="007A"/>
  <outline>
    <contour>
      <point x="406" y="277" type="line" smooth="yes"/>
      <point x="415" y="285"/>
      <point x="421" y="294"/>
      <point x="421" y="309" type="curve" smooth="yes"/>
      <point x="421" y="321"/>
      <point x="416" y="331"/>
      <point x="408" y="340" type="curve" smooth="yes"/>
      <point x="399" y="348"/>
      <point x="385" y="350"/>
      <point x="372" y="350" type="curve" smooth="yes"/>
      <point x="360" y="350"/>
      <point x="347" y="344"/>
      <point x="339" y="337" type="curve" smooth="yes"/>
      <point x="69" y="75" type="line" smooth="yes"/>
      <point x="58" y="65"/>
      <point x="53" y="52"/>
      <point x="55" y="38" type="curve" smooth="yes"/>
      <point x="56" y="29"/>
      <point x="60" y="21"/>
      <point x="67" y="12" type="curve" smooth="yes"/>
      <point x="74" y="4"/>
      <point x="88" y="0"/>
      <point x="101" y="0" type="curve" smooth="yes"/>
      <point x="115" y="0"/>
      <point x="129" y="7"/>
      <point x="139" y="16" type="curve" smooth="yes"/>
    </contour>
    <contour>
      <point x="100" y="0" type="line"/>
      <point x="327" y="0" type="line" smooth="yes"/>
      <point x="357" y="0"/>
      <point x="375" y="19"/>
      <point x="375" y="43" type="curve" smooth="yes"/>
      <point x="375" y="67"/>
      <point x="357" y="85"/>
      <point x="327" y="85" type="curve" smooth="yes"/>
      <point x="138" y="85" type="line"/>
    </contour>
    <contour>
      <point x="331" y="260" type="line"/>
      <point x="373" y="350" type="line"/>
      <point x="149" y="350" type="line" smooth="yes"/>
      <point x="119" y="350"/>
      <point x="101" y="329"/>
      <point x="101" y="305" type="curve" smooth="yes"/>
      <point x="101" y="281"/>
      <point x="119" y="260"/>
      <point x="149" y="260" type="curve" smooth="yes"/>
    </contour>
  </outline>
</glyph>
<glyph name="braceleft" format="2">
	<advance width="315"/>
	<unicode hex="007B"/>
	<outline>
		<contour>
			<point x="134" y="173" type="line"/>
			<point x="186" y="219"/>
			<point x="201" y="255"/>
			<point x="210" y="302" type="curve" smooth="yes"/>
			<point x="219" y="357"/>
			<point x="205" y="459"/>
			<point x="223" y="511" type="curve" smooth="yes"/>
			<point x="239" y="552"/>
			<point x="273" y="567"/>
			<point x="302" y="576" type="curve" smooth="yes"/>
			<point x="325" y="585"/>
			<point x="337" y="605"/>
			<point x="327" y="628" type="curve" smooth="yes"/>
			<point x="317" y="656"/>
			<point x="284" y="652"/>
			<point x="261" y="642" type="curve" smooth="yes"/>
			<point x="232" y="629"/>
			<point x="166" y="599"/>
			<point x="145" y="540" type="curve" smooth="yes"/>
			<point x="123" y="475"/>
			<point x="134" y="369"/>
			<point x="125" y="316" type="curve" smooth="yes"/>
			<point x="119" y="291"/>
			<point x="109" y="273"/>
			<point x="90" y="254" type="curve" smooth="yes"/>
			<point x="69" y="235"/>
			<point x="58" y="225"/>
			<point x="64" y="187" type="curve"/>
		</contour>
		<contour>
			<point x="66" y="224" type="line"/>
			<point x="54" y="182"/>
			<point x="66" y="172"/>
			<point x="76" y="153" type="curve" smooth="yes"/>
			<point x="89" y="126"/>
			<point x="93" y="103"/>
			<point x="90" y="79" type="curve" smooth="yes"/>
			<point x="83" y="26"/>
			<point x="38" y="-75"/>
			<point x="41" y="-143" type="curve" smooth="yes"/>
			<point x="44" y="-203"/>
			<point x="81" y="-256"/>
			<point x="108" y="-285" type="curve" smooth="yes"/>
			<point x="131" y="-311"/>
			<point x="162" y="-308"/>
			<point x="176" y="-289" type="curve" smooth="yes"/>
			<point x="193" y="-268"/>
			<point x="181" y="-252"/>
			<point x="166" y="-235" type="curve" smooth="yes"/>
			<point x="142" y="-211"/>
			<point x="127" y="-187"/>
			<point x="125" y="-139" type="curve" smooth="yes"/>
			<point x="124" y="-83"/>
			<point x="170" y="12"/>
			<point x="175" y="66" type="curve" smooth="yes"/>
			<point x="181" y="114"/>
			<point x="175" y="155"/>
			<point x="144" y="216" type="curve"/>
		</contour>
	</outline>
</glyph>
<glyph name="bar" format="2">
	<advance width="317"/>
	<unicode hex="007C"/>
	<outline>
		<contour>
			<point x="296" y="645" type="line" smooth="yes"/>
			<point x="302" y="681"/>
			<point x="279" y="702"/>
			<point x="251" y="702" type="curve" smooth="yes"/>
			<point x="229" y="702"/>
			<point x="203" y="685"/>
			<point x="198" y="657" type="curve" smooth="yes"/>
			<point x="37" y="-250" type="line" smooth="yes"/>
			<point x="31" y="-278"/>
			<point x="53" y="-302"/>
			<point x="85" y="-302" type="curve" smooth="yes"/>
			<point x="119" y="-302"/>
			<point x="131" y="-281"/>
			<point x="136" y="-260" type="curve"/>
		</contour>
	</outline>
</glyph>
<glyph name="braceright" format="2">
	<advance width="315"/>
	<unicode hex="007D"/>
	<outline>
		<contour>
			<point x="186" y="187" type="line"/>
			<point x="133" y="139"/>
			<point x="115" y="101"/>
			<point x="105" y="55" type="curve" smooth="yes"/>
			<point x="93" y="0"/>
			<point x="98" y="-99"/>
			<point x="79" y="-151" type="curve" smooth="yes"/>
			<point x="61" y="-195"/>
			<point x="41" y="-213"/>
			<point x="12" y="-227" type="curve" smooth="yes"/>
			<point x="-13" y="-240"/>
			<point x="-26" y="-254"/>
			<point x="-19" y="-275" type="curve" smooth="yes"/>
			<point x="-12" y="-300"/>
			<point x="21" y="-309"/>
			<point x="49" y="-291" type="curve"/>
			<point x="83" y="-273"/>
			<point x="135" y="-235"/>
			<point x="157" y="-179" type="curve" smooth="yes"/>
			<point x="183" y="-116"/>
			<point x="178" y="-10"/>
			<point x="189" y="40" type="curve" smooth="yes"/>
			<point x="196" y="66"/>
			<point x="206" y="85"/>
			<point x="228" y="107" type="curve" smooth="yes"/>
			<point x="242" y="122"/>
			<point x="258" y="130"/>
			<point x="261" y="175" type="curve"/>
		</contour>
		<contour>
			<point x="250" y="132" type="line"/>
			<point x="269" y="171"/>
			<point x="261" y="182"/>
			<point x="248" y="205" type="curve" smooth="yes"/>
			<point x="235" y="231"/>
			<point x="232" y="253"/>
			<point x="234" y="278" type="curve"/>
			<point x="244" y="332"/>
			<point x="291" y="430"/>
			<point x="290" y="497" type="curve" smooth="yes"/>
			<point x="289" y="558"/>
			<point x="240" y="607"/>
			<point x="215" y="630" type="curve" smooth="yes"/>
			<point x="194" y="648"/>
			<point x="163" y="662"/>
			<point x="145" y="637" type="curve" smooth="yes"/>
			<point x="130" y="618"/>
			<point x="132" y="598"/>
			<point x="154" y="580" type="curve" smooth="yes"/>
			<point x="177" y="562"/>
			<point x="204" y="536"/>
			<point x="206" y="493" type="curve" smooth="yes"/>
			<point x="205" y="437"/>
			<point x="158" y="343"/>
			<point x="148" y="289" type="curve" smooth="yes"/>
			<point x="141" y="241"/>
			<point x="145" y="202"/>
			<point x="178" y="143" type="curve"/>
		</contour>
	</outline>
</glyph>
<glyph name="asciitilde" format="2">
  <advance width="538"/>
  <unicode hex="007E"/>
  <outline>
    <contour>
      <point x="283" y="139" type="curve" smooth="yes"/>
      <point x="320" y="139"/>
      <point x="345" y="151"/>
      <point x="363" y="159" type="curve" smooth="yes"/>
      <point x="391" y="172"/>
      <point x="403" y="183"/>
      <point x="403" y="203" type="curve" smooth="yes"/>
      <point x="403" y="231"/>
      <point x="371" y="261"/>
      <point x="339" y="245" type="curve" smooth="yes"/>
      <point x="315" y="233"/>
      <point x="310" y="226"/>
      <point x="291" y="226" type="curve" smooth="yes"/>
      <point x="274" y="226"/>
      <point x="232" y="262"/>
      <point x="193" y="262" type="curve" smooth="yes"/>
      <point x="162" y="262"/>
      <point x="140" y="252"/>
      <point x="124" y="245" type="curve" smooth="yes"/>
      <point x="97" y="234"/>
      <point x="83" y="223"/>
      <point x="83" y="203" type="curve" smooth="yes"/>
      <point x="83" y="171"/>
      <point x="115" y="144"/>
      <point x="146" y="159" type="curve" smooth="yes"/>
      <point x="164" y="168"/>
      <point x="172" y="175"/>
      <point x="185" y="175" type="curve" smooth="yes"/>
      <point x="205" y="175"/>
      <point x="246" y="139"/>
    </contour>
  </outline>
</glyph>
<glyph name="exclamdown" format="2">
	<advance width="220"/>
	<unicode hex="00A1"/>
	<outline>
		<contour>
			<point x="203" y="399" type="line" smooth="yes"/>
			<point x="209" y="433"/>
			<point x="183" y="450"/>
			<point x="160" y="452" type="curve" smooth="yes"/>
			<point x="136" y="454"/>
			<point x="108" y="437"/>
			<point x="103" y="407" type="curve" smooth="yes"/>
			<point x="39" y="47" type="line" smooth="yes"/>
			<point x="34" y="17"/>
			<point x="59" y="-2"/>
			<point x="87" y="0" type="curve" smooth="yes"/>
			<point x="109" y="0"/>
			<point x="135" y="14"/>
			<point x="139" y="39" type="curve" smooth="yes"/>
		</contour>
		<contour>
			<point x="188" y="540" type="curve" smooth="yes"/>
			<point x="219" y="540"/>
			<point x="241" y="566"/>
			<point x="241" y="594" type="curve" smooth="yes"/>
			<point x="241" y="623"/>
			<point x="219" y="650"/>
			<point x="188" y="650" type="curve" smooth="yes"/>
			<point x="158" y="650"/>
			<point x="131" y="623"/>
			<point x="131" y="594" type="curve" smooth="yes"/>
			<point x="131" y="566"/>
			<point x="158" y="540"/>
		</contour>
	</outline>
</glyph>
<glyph name="brokenbar" format="2">
	<advance width="208"/>
	<unicode hex="00A6"/>
	<outline>
		<contour>
			<point x="145" y="111" type="line" smooth="yes"/>
			<point x="150" y="141"/>
			<point x="128" y="163"/>
			<point x="101" y="163" type="curve" smooth="yes"/>
			<point x="78" y="163"/>
			<point x="51" y="146"/>
			<point x="46" y="119" type="curve" smooth="yes"/>
			<point x="-19" y="-248" type="line" smooth="yes"/>
			<point x="-24" y="-276"/>
			<point x="-3" y="-300"/>
			<point x="29" y="-300" type="curve" smooth="yes"/>
			<point x="63" y="-300"/>
			<point x="76" y="-279"/>
			<point x="80" y="-258" type="curve" smooth="yes"/>
		</contour>
		<contour>
			<point x="239" y="643" type="line" smooth="yes"/>
			<point x="245" y="679"/>
			<point x="222" y="700"/>
			<point x="194" y="700" type="curve" smooth="yes"/>
			<point x="172" y="700"/>
			<point x="146" y="683"/>
			<point x="141" y="655" type="curve" smooth="yes"/>
			<point x="76" y="290" type="line" smooth="yes"/>
			<point x="70" y="259"/>
			<point x="94" y="236"/>
			<point x="122" y="238" type="curve" smooth="yes"/>
			<point x="145" y="239"/>
			<point x="170" y="256"/>
			<point x="175" y="282" type="curve" smooth="yes"/>
		</contour>
	</outline>
</glyph>
<glyph name="degree" format="2">
  <advance width="422"/>
  <unicode hex="00B0"/>
  <outline>
    <contour>
      <point x="210" y="398" type="curve" smooth="yes"/>
      <point x="289" y="398"/>
      <point x="360" y="508"/>
      <point x="360" y="577" type="curve" smooth="yes"/>
      <point x="360" y="625"/>
      <point x="328" y="654"/>
      <point x="272" y="654" type="curve" smooth="yes"/>
      <point x="223" y="654"/>
      <point x="191" y="621"/>
      <point x="175" y="593" type="curve" smooth="yes"/>
      <point x="163" y="573"/>
      <point x="146" y="528"/>
      <point x="146" y="478" type="curve" smooth="yes"/>
      <point x="146" y="410"/>
      <point x="182" y="398"/>
    </contour>
    <contour>
      <point x="227" y="476" type="curve" smooth="yes"/>
      <point x="223" y="476"/>
      <point x="221" y="492"/>
      <point x="222" y="504" type="curve" smooth="yes"/>
      <point x="225" y="524"/>
      <point x="231" y="543"/>
      <point x="241" y="562" type="curve" smooth="yes"/>
      <point x="249" y="577"/>
      <point x="259" y="580"/>
      <point x="269" y="580" type="curve" smooth="yes"/>
      <point x="280" y="580"/>
      <point x="280" y="571"/>
      <point x="279" y="555" type="curve" smooth="yes"/>
      <point x="277" y="523"/>
      <point x="245" y="476"/>
    </contour>
  </outline>
</glyph>
<glyph name="plusminus" format="2">
	<advance width="511"/>
	<unicode hex="00B1"/>
	<outline>
		<contour>
			<point x="335" y="357" type="line" smooth="yes"/>
			<point x="341" y="390"/>
			<point x="316" y="411"/>
			<point x="290" y="411" type="curve" smooth="yes"/>
			<point x="269" y="411"/>
			<point x="248" y="398"/>
			<point x="243" y="371" type="curve" smooth="yes"/>
			<point x="216" y="222" type="line" smooth="yes"/>
			<point x="210" y="188"/>
			<point x="235" y="167"/>
			<point x="261" y="167" type="curve" smooth="yes"/>
			<point x="282" y="167"/>
			<point x="303" y="181"/>
			<point x="308" y="207" type="curve" smooth="yes"/>
		</contour>
		<contour>
			<point x="338" y="57" type="line" smooth="yes"/>
			<point x="368" y="57"/>
			<point x="389" y="74"/>
			<point x="389" y="99" type="curve" smooth="yes"/>
			<point x="389" y="122"/>
			<point x="368" y="142"/>
			<point x="338" y="142" type="curve" smooth="yes"/>
			<point x="148" y="142" type="line" smooth="yes"/>
			<point x="118" y="142"/>
			<point x="98" y="122"/>
			<point x="98" y="99" type="curve" smooth="yes"/>
			<point x="98" y="75"/>
			<point x="118" y="57"/>
			<point x="148" y="57" type="curve" smooth="yes"/>
		</contour>
		<contour>
			<point x="369" y="248" type="line" smooth="yes"/>
			<point x="399" y="248"/>
			<point x="419" y="266"/>
			<point x="419" y="290" type="curve" smooth="yes"/>
			<point x="419" y="313"/>
			<point x="399" y="333"/>
			<point x="369" y="333" type="curve" smooth="yes"/>
			<point x="179" y="333" type="line" smooth="yes"/>
			<point x="149" y="333"/>
			<point x="129" y="313"/>
			<point x="129" y="290" type="curve" smooth="yes"/>
			<point x="129" y="266"/>
			<point x="149" y="248"/>
			<point x="179" y="248" type="curve" smooth="yes"/>
		</contour>
	</outline>
</glyph>
<glyph name="periodcentered" format="2">
	<advance width="219"/>
	<unicode hex="00B7"/>
	<outline>
		<contour>
			<point x="109" y="121" type="curve" smooth="yes"/>
			<point x="138" y="121"/>
			<point x="165" y="149"/>
			<point x="165" y="178" type="curve" smooth="yes"/>
			<point x="165" y="209"/>
			<point x="138" y="231"/>
			<point x="109" y="231" type="curve" smooth="yes"/>
			<point x="78" y="231"/>
			<point x="55" y="207"/>
			<point x="55" y="178" type="curve" smooth="yes"/>
			<point x="55" y="151"/>
			<point x="78" y="121"/>
		</contour>
	</outline>
</glyph>
<glyph name="questiondown" format="2">
	<advance width="466"/>
	<unicode hex="00BF"/>
	<outline>
		<contour>
			<point x="337" y="386" type="line"/>
			<point x="163" y="398"/>
			<point x="82" y="296"/>
			<point x="57" y="160" type="curve" smooth="yes"/>
			<point x="43" y="76"/>
			<point x="114" y="1"/>
			<point x="209" y="1" type="curve" smooth="yes"/>
			<point x="324" y="1"/>
			<point x="396" y="67"/>
			<point x="413" y="159" type="curve" smooth="yes"/>
			<point x="418" y="194"/>
			<point x="405" y="212"/>
			<point x="384" y="217" type="curve" smooth="yes"/>
			<point x="360" y="224"/>
			<point x="325" y="208"/>
			<point x="319" y="175" type="curve" smooth="yes"/>
			<point x="312" y="128"/>
			<point x="287" y="89"/>
			<point x="227" y="89" type="curve" smooth="yes"/>
			<point x="177" y="89"/>
			<point x="149" y="108"/>
			<point x="156" y="148" type="curve" smooth="yes"/>
			<point x="163" y="192"/>
			<point x="187" y="300"/>
			<point x="308" y="289" type="curve"/>
		</contour>
		<contour>
			<point x="375" y="428" type="line" smooth="yes"/>
			<point x="380" y="454"/>
			<point x="361" y="473"/>
			<point x="337" y="479" type="curve" smooth="yes"/>
			<point x="311" y="484"/>
			<point x="281" y="470"/>
			<point x="275" y="435" type="curve" smooth="yes"/>
			<point x="257" y="333" type="line" smooth="yes"/>
			<point x="253" y="310"/>
			<point x="277" y="289"/>
			<point x="308" y="289" type="curve" smooth="yes"/>
			<point x="330" y="289"/>
			<point x="353" y="304"/>
			<point x="357" y="326" type="curve" smooth="yes"/>
		</contour>
		<contour>
			<point x="354" y="540" type="curve" smooth="yes"/>
			<point x="385" y="540"/>
			<point x="407" y="568"/>
			<point x="407" y="597" type="curve" smooth="yes"/>
			<point x="407" y="625"/>
			<point x="383" y="650"/>
			<point x="353" y="650" type="curve" smooth="yes"/>
			<point x="322" y="650"/>
			<point x="297" y="625"/>
			<point x="297" y="598" type="curve" smooth="yes"/>
			<point x="297" y="568"/>
			<point x="322" y="540"/>
		</contour>
	</outline>
</glyph>
<glyph name="multiply" format="2">
	<advance width="537"/>
	<unicode hex="00D7"/>
	<outline>
		<contour>
			<point x="434" y="270" type="line"/>
			<point x="457" y="292"/>
			<point x="456" y="319"/>
			<point x="436" y="336" type="curve" smooth="yes"/>
			<point x="419" y="351"/>
			<point x="388" y="355"/>
			<point x="365" y="337" type="curve" smooth="yes"/>
			<point x="110" y="122" type="line" smooth="yes"/>
			<point x="88" y="102"/>
			<point x="88" y="78"/>
			<point x="104" y="59" type="curve" smooth="yes"/>
			<point x="122" y="40"/>
			<point x="154" y="36"/>
			<point x="180" y="56" type="curve" smooth="yes"/>
		</contour>
		<contour>
			<point x="220" y="331" type="line"/>
			<point x="197" y="355"/>
			<point x="162" y="353"/>
			<point x="145" y="335" type="curve" smooth="yes"/>
			<point x="130" y="317"/>
			<point x="126" y="294"/>
			<point x="144" y="273" type="curve" smooth="yes"/>
			<point x="325" y="59" type="line"/>
			<point x="345" y="38"/>
			<point x="378" y="40"/>
			<point x="395" y="55" type="curve" smooth="yes"/>
			<point x="414" y="72"/>
			<point x="419" y="97"/>
			<point x="399" y="120" type="curve" smooth="yes"/>
		</contour>
	</outline>
</glyph>
<glyph name="divide" format="2">
	<advance width="427"/>
	<unicode hex="00F7"/>
	<outline>
		<contour>
			<point x="326" y="154" type="line" smooth="yes"/>
			<point x="392" y="154"/>
			<point x="395" y="241"/>
			<point x="326" y="241" type="curve" smooth="yes"/>
			<point x="109" y="241" type="line" smooth="yes"/>
			<point x="40" y="241"/>
			<point x="43" y="154"/>
			<point x="109" y="154" type="curve" smooth="yes"/>
		</contour>
		<contour>
			<point x="195" y="16" type="curve" smooth="yes"/>
			<point x="225" y="16"/>
			<point x="252" y="40"/>
			<point x="252" y="69" type="curve" smooth="yes"/>
			<point x="252" y="100"/>
			<point x="224" y="122"/>
			<point x="195" y="122" type="curve" smooth="yes"/>
			<point x="164" y="122"/>
			<point x="140" y="98"/>
			<point x="140" y="69" type="curve" smooth="yes"/>
			<point x="140" y="40"/>
			<point x="165" y="16"/>
		</contour>
		<contour>
			<point x="241" y="273" type="curve" smooth="yes"/>
			<point x="271" y="273"/>
			<point x="298" y="297"/>
			<point x="298" y="327" type="curve" smooth="yes"/>
			<point x="298" y="356"/>
			<point x="271" y="379"/>
			<point x="241" y="379" type="curve" smooth="yes"/>
			<point x="211" y="379"/>
			<point x="186" y="355"/>
			<point x="186" y="327" type="curve" smooth="yes"/>
			<point x="186" y="298"/>
			<point x="211" y="273"/>
		</contour>
	</outline>
</glyph>
<glyph name="tilde" format="2">
	<advance width="430"/>
	<unicode hex="02DC"/>
	<outline>
		<contour>
			<point x="260" y="139" type="curve" smooth="yes"/>
			<point x="297" y="139"/>
			<point x="322" y="151"/>
			<point x="340" y="159" type="curve" smooth="yes"/>
			<point x="368" y="172"/>
			<point x="380" y="183"/>
			<point x="380" y="203" type="curve" smooth="yes"/>
			<point x="380" y="231"/>
			<point x="348" y="261"/>
			<point x="316" y="245" type="curve" smooth="yes"/>
			<point x="292" y="233"/>
			<point x="287" y="226"/>
			<point x="268" y="226" type="curve" smooth="yes"/>
			<point x="251" y="226"/>
			<point x="209" y="262"/>
			<point x="170" y="262" type="curve" smooth="yes"/>
			<point x="139" y="262"/>
			<point x="117" y="252"/>
			<point x="101" y="245" type="curve" smooth="yes"/>
			<point x="74" y="234"/>
			<point x="60" y="223"/>
			<point x="60" y="203" type="curve" smooth="yes"/>
			<point x="60" y="171"/>
			<point x="92" y="144"/>
			<point x="123" y="159" type="curve" smooth="yes"/>
			<point x="141" y="168"/>
			<point x="149" y="175"/>
			<point x="162" y="175" type="curve" smooth="yes"/>
			<point x="182" y="175"/>
			<point x="223" y="139"/>
		</contour>
	</outline>
</glyph>
<glyph name="endash" format="2">
	<advance width="548"/>
	<unicode hex="2013"/>
	<outline>
		<contour>
			<point x="392" y="153" type="line" smooth="yes"/>
			<point x="423" y="153"/>
			<point x="444" y="174"/>
			<point x="444" y="199" type="curve" smooth="yes"/>
			<point x="444" y="223"/>
			<point x="423" y="242"/>
			<point x="392" y="242" type="curve" smooth="yes"/>
			<point x="165" y="242" type="line" smooth="yes"/>
			<point x="134" y="242"/>
			<point x="113" y="223"/>
			<point x="113" y="199" type="curve" smooth="yes"/>
			<point x="113" y="174"/>
			<point x="134" y="153"/>
			<point x="165" y="153" type="curve" smooth="yes"/>
		</contour>
	</outline>
</glyph>
<glyph name="emdash" format="2">
	<advance width="543"/>
	<unicode hex="2014"/>
	<outline>
		<contour>
			<point x="437" y="153" type="line" smooth="yes"/>
			<point x="470" y="153"/>
			<point x="493" y="174"/>
			<point x="493" y="199" type="curve" smooth="yes"/>
			<point x="493" y="222"/>
			<point x="471" y="242"/>
			<point x="437" y="242" type="curve" smooth="yes"/>
			<point x="114" y="242" type="line" smooth="yes"/>
			<point x="81" y="242"/>
			<point x="59" y="222"/>
			<point x="59" y="199" type="curve" smooth="yes"/>
			<point x="59" y="174"/>
			<point x="82" y="153"/>
			<point x="114" y="153" type="curve" smooth="yes"/>
		</contour>
	</outline>
</glyph>
<glyph name="bullet" format="2">
	<advance width="419"/>
	<unicode hex="2022"/>
	<outline>
		<contour>
			<point x="238" y="254" type="curve" smooth="yes"/>
			<point x="292" y="254"/>
			<point x="341" y="301"/>
			<point x="341" y="355" type="curve" smooth="yes"/>
			<point x="341" y="409"/>
			<point x="293" y="454"/>
			<point x="239" y="454" type="curve" smooth="yes"/>
			<point x="184" y="454"/>
			<point x="141" y="408"/>
			<point x="141" y="355" type="curve" smooth="yes"/>
			<point x="141" y="304"/>
			<point x="182" y="254"/>
		</contour>
	</outline>
</glyph>
<glyph name="ellipsis" format="2">
	<advance width="617"/>
	<unicode hex="2026"/>
	<outline>
		<contour>
			<point x="427" y="-31" type="curve" smooth="yes"/>
			<point x="455" y="-31"/>
			<point x="482" y="-6"/>
			<point x="482" y="25" type="curve" smooth="yes"/>
			<point x="482" y="56"/>
			<point x="455" y="79"/>
			<point x="426" y="79" type="curve" smooth="yes"/>
			<point x="398" y="79"/>
			<point x="372" y="57"/>
			<point x="372" y="25" type="curve" smooth="yes"/>
			<point x="372" y="-6"/>
			<point x="398" y="-31"/>
		</contour>
		<contour>
			<point x="137" y="-31" type="curve" smooth="yes"/>
			<point x="165" y="-31"/>
			<point x="192" y="-6"/>
			<point x="192" y="25" type="curve" smooth="yes"/>
			<point x="192" y="56"/>
			<point x="165" y="79"/>
			<point x="136" y="79" type="curve" smooth="yes"/>
			<point x="108" y="79"/>
			<point x="82" y="57"/>
			<point x="82" y="25" type="curve" smooth="yes"/>
			<point x="82" y="-6"/>
			<point x="108" y="-31"/>
		</contour>
		<contour>
			<point x="282" y="-30" type="curve" smooth="yes"/>
			<point x="310" y="-30"/>
			<point x="337" y="-6"/>
			<point x="337" y="25" type="curve" smooth="yes"/>
			<point x="337" y="56"/>
			<point x="310" y="79"/>
			<point x="282" y="79" type="curve" smooth="yes"/>
			<point x="253" y="79"/>
			<point x="227" y="56"/>
			<point x="227" y="25" type="curve" smooth="yes"/>
			<point x="227" y="-6"/>
			<point x="253" y="-30"/>
		</contour>
	</outline>
</glyph>
<glyph name="minus" format="2">
	<advance width="537"/>
	<unicode hex="2212"/>
	<outline>
		<contour>
			<point x="381" y="154" type="line" smooth="yes"/>
			<point x="412" y="154"/>
			<point x="432" y="174"/>
			<point x="432" y="198" type="curve" smooth="yes"/>
			<point x="432" y="222"/>
			<point x="412" y="241"/>
			<point x="381" y="241" type="curve" smooth="yes"/>
			<point x="164" y="241" type="line" smooth="yes"/>
			<point x="133" y="241"/>
			<point x="113" y="222"/>
			<point x="113" y="198" type="curve" smooth="yes"/>
			<point x="113" y="173"/>
			<point x="133" y="154"/>
			<point x="164" y="154" type="curve" smooth="yes"/>
		</contour>
	</outline>
</glyph>
<glyph name="infinity" format="2">
	<advance width="753"/>
	<unicode hex="221E"/>
	<outline>
		<contour>
			<point x="325" y="204" type="line"/>
			<point x="341" y="179" type="line" smooth="yes"/>
			<point x="374" y="127"/>
			<point x="426" y="71"/>
			<point x="487" y="61" type="curve" smooth="yes"/>
			<point x="556" y="49"/>
			<point x="656" y="92"/>
			<point x="676" y="205" type="curve" smooth="yes"/>
			<point x="695" y="314"/>
			<point x="618" y="362"/>
			<point x="558" y="373" type="curve" smooth="yes"/>
			<point x="503" y="383"/>
			<point x="421" y="369"/>
			<point x="336" y="284" type="curve"/>
		</contour>
		<contour>
			<point x="323" y="272" type="line"/>
			<point x="277" y="221"/>
			<point x="199" y="151"/>
			<point x="184" y="154" type="curve" smooth="yes"/>
			<point x="169" y="156"/>
			<point x="174" y="195"/>
			<point x="180" y="227" type="curve" smooth="yes"/>
			<point x="186" y="261"/>
			<point x="208" y="284"/>
			<point x="245" y="278" type="curve" smooth="yes"/>
			<point x="287" y="271"/>
			<point x="307" y="220"/>
			<point x="324" y="198" type="curve"/>
			<point x="387" y="272" type="line"/>
			<point x="371" y="296"/>
			<point x="339" y="361"/>
			<point x="267" y="374" type="curve" smooth="yes"/>
			<point x="170" y="391"/>
			<point x="111" y="301"/>
			<point x="97" y="225" type="curve" smooth="yes"/>
			<point x="86" y="164"/>
			<point x="101" y="72"/>
			<point x="167" y="60" type="curve" smooth="yes"/>
			<point x="233" y="49"/>
			<point x="309" y="126"/>
			<point x="379" y="197" type="curve"/>
		</contour>
		<contour>
			<point x="419" y="233" type="line"/>
			<point x="468" y="277"/>
			<point x="506" y="284"/>
			<point x="534" y="279" type="curve" smooth="yes"/>
			<point x="574" y="272"/>
			<point x="597" y="247"/>
			<point x="591" y="215" type="curve" smooth="yes"/>
			<point x="584" y="175"/>
			<point x="546" y="150"/>
			<point x="513" y="156" type="curve" smooth="yes"/>
			<point x="470" y="163"/>
			<point x="433" y="212"/>
			<point x="423" y="227" type="curve" smooth="yes"/>
		</contour>
	</outline>
</glyph>
<glyph name="approxequal" format="2">
	<advance width="429"/>
	<unicode hex="2248"/>
	<outline>
		<contour>
			<point x="275" y="229" type="curve" smooth="yes"/>
			<point x="312" y="229"/>
			<point x="337" y="241"/>
			<point x="355" y="249" type="curve" smooth="yes"/>
			<point x="383" y="262"/>
			<point x="395" y="273"/>
			<point x="395" y="293" type="curve" smooth="yes"/>
			<point x="395" y="321"/>
			<point x="363" y="351"/>
			<point x="331" y="335" type="curve" smooth="yes"/>
			<point x="307" y="323"/>
			<point x="302" y="316"/>
			<point x="283" y="316" type="curve" smooth="yes"/>
			<point x="266" y="316"/>
			<point x="224" y="352"/>
			<point x="185" y="352" type="curve" smooth="yes"/>
			<point x="154" y="352"/>
			<point x="132" y="342"/>
			<point x="116" y="335" type="curve" smooth="yes"/>
			<point x="89" y="324"/>
			<point x="75" y="313"/>
			<point x="75" y="293" type="curve" smooth="yes"/>
			<point x="75" y="261"/>
			<point x="107" y="234"/>
			<point x="138" y="249" type="curve" smooth="yes"/>
			<point x="156" y="258"/>
			<point x="164" y="265"/>
			<point x="177" y="265" type="curve" smooth="yes"/>
			<point x="197" y="265"/>
			<point x="238" y="229"/>
		</contour>
		<contour>
			<point x="241" y="35" type="curve" smooth="yes"/>
			<point x="278" y="35"/>
			<point x="303" y="47"/>
			<point x="321" y="55" type="curve" smooth="yes"/>
			<point x="349" y="68"/>
			<point x="361" y="79"/>
			<point x="361" y="99" type="curve" smooth="yes"/>
			<point x="361" y="127"/>
			<point x="329" y="157"/>
			<point x="297" y="141" type="curve" smooth="yes"/>
			<point x="273" y="129"/>
			<point x="268" y="122"/>
			<point x="249" y="122" type="curve" smooth="yes"/>
			<point x="232" y="122"/>
			<point x="190" y="158"/>
			<point x="151" y="158" type="curve" smooth="yes"/>
			<point x="120" y="158"/>
			<point x="98" y="148"/>
			<point x="82" y="141" type="curve" smooth="yes"/>
			<point x="55" y="130"/>
			<point x="41" y="119"/>
			<point x="41" y="99" type="curve" smooth="yes"/>
			<point x="41" y="67"/>
			<point x="73" y="40"/>
			<point x="104" y="55" type="curve" smooth="yes"/>
			<point x="122" y="64"/>
			<point x="130" y="71"/>
			<point x="143" y="71" type="curve" smooth="yes"/>
			<point x="163" y="71"/>
			<point x="204" y="35"/>
		</contour>
	</outline>
</glyph>
<glyph name="notequal" format="2">
	<advance width="430"/>
	<unicode hex="2260"/>
	<outline>
		<contour>
			<point x="336" y="333" type="line" smooth="yes"/>
			<point x="356" y="376"/>
			<point x="328" y="401"/>
			<point x="299" y="401" type="curve" smooth="yes"/>
			<point x="282" y="401"/>
			<point x="260" y="391"/>
			<point x="251" y="372" type="curve" smooth="yes"/>
			<point x="106" y="60" type="line" smooth="yes"/>
			<point x="92" y="30"/>
			<point x="107" y="8"/>
			<point x="132" y="-1" type="curve" smooth="yes"/>
			<point x="152" y="-7"/>
			<point x="180" y="-1"/>
			<point x="191" y="22" type="curve" smooth="yes"/>
		</contour>
		<contour>
			<point x="318" y="97" type="line" smooth="yes"/>
			<point x="348" y="97"/>
			<point x="369" y="116"/>
			<point x="369" y="141" type="curve" smooth="yes"/>
			<point x="369" y="165"/>
			<point x="348" y="182"/>
			<point x="318" y="182" type="curve" smooth="yes"/>
			<point x="100" y="182" type="line" smooth="yes"/>
			<point x="70" y="182"/>
			<point x="49" y="165"/>
			<point x="49" y="141" type="curve" smooth="yes"/>
			<point x="49" y="117"/>
			<point x="70" y="97"/>
			<point x="100" y="97" type="curve" smooth="yes"/>
		</contour>
		<contour>
			<point x="344" y="248" type="line" smooth="yes"/>
			<point x="374" y="248"/>
			<point x="395" y="266"/>
			<point x="395" y="290" type="curve" smooth="yes"/>
			<point x="395" y="314"/>
			<point x="374" y="333"/>
			<point x="344" y="333" type="curve" smooth="yes"/>
			<point x="126" y="333" type="line" smooth="yes"/>
			<point x="96" y="333"/>
			<point x="75" y="314"/>
			<point x="75" y="290" type="curve" smooth="yes"/>
			<point x="75" y="266"/>
			<point x="96" y="248"/>
			<point x="126" y="248" type="curve" smooth="yes"/>
		</contour>
	</outline>
</glyph>
<glyph name="lessequal" format="2">
	<advance width="517"/>
	<unicode hex="2264"/>
	<outline>
		<contour>
			<point x="413" y="322" type="line" smooth="yes"/>
			<point x="441" y="337"/>
			<point x="449" y="362"/>
			<point x="432" y="386" type="curve" smooth="yes"/>
			<point x="420" y="403"/>
			<point x="394" y="408"/>
			<point x="365" y="393" type="curve" smooth="yes"/>
			<point x="148" y="281" type="line" smooth="yes"/>
			<point x="120" y="266"/>
			<point x="116" y="242"/>
			<point x="132" y="221" type="curve" smooth="yes"/>
			<point x="145" y="201"/>
			<point x="170" y="197"/>
			<point x="195" y="210" type="curve" smooth="yes"/>
		</contour>
		<contour>
			<point x="342" y="57" type="line" smooth="yes"/>
			<point x="372" y="57"/>
			<point x="393" y="75"/>
			<point x="393" y="98" type="curve" smooth="yes"/>
			<point x="393" y="122"/>
			<point x="372" y="142"/>
			<point x="342" y="142" type="curve" smooth="yes"/>
			<point x="146" y="142" type="line" smooth="yes"/>
			<point x="116" y="142"/>
			<point x="95" y="122"/>
			<point x="95" y="98" type="curve" smooth="yes"/>
			<point x="95" y="74"/>
			<point x="116" y="57"/>
			<point x="146" y="57" type="curve" smooth="yes"/>
		</contour>
		<contour>
			<point x="169" y="202" type="line"/>
			<point x="370" y="202" type="line" smooth="yes"/>
			<point x="398" y="202"/>
			<point x="420" y="222"/>
			<point x="420" y="245" type="curve" smooth="yes"/>
			<point x="422" y="272"/>
			<point x="396" y="287"/>
			<point x="364" y="287" type="curve" smooth="yes"/>
			<point x="171" y="287" type="line"/>
		</contour>
	</outline>
</glyph>
<glyph name="greaterequal" format="2">
	<advance width="516"/>
	<unicode hex="2265"/>
	<outline>
		<contour>
			<point x="347" y="212" type="line" smooth="yes"/>
			<point x="370" y="197"/>
			<point x="397" y="200"/>
			<point x="410" y="219" type="curve" smooth="yes"/>
			<point x="425" y="241"/>
			<point x="423" y="261"/>
			<point x="398" y="279" type="curve"/>
			<point x="220" y="393" type="line" smooth="yes"/>
			<point x="192" y="411"/>
			<point x="164" y="403"/>
			<point x="152" y="386" type="curve" smooth="yes"/>
			<point x="136" y="364"/>
			<point x="143" y="344"/>
			<point x="168" y="325" type="curve"/>
		</contour>
		<contour>
			<point x="342" y="57" type="line" smooth="yes"/>
			<point x="373" y="57"/>
			<point x="393" y="75"/>
			<point x="393" y="99" type="curve" smooth="yes"/>
			<point x="393" y="123"/>
			<point x="373" y="142"/>
			<point x="342" y="142" type="curve" smooth="yes"/>
			<point x="146" y="142" type="line" smooth="yes"/>
			<point x="116" y="142"/>
			<point x="95" y="122"/>
			<point x="95" y="98" type="curve" smooth="yes"/>
			<point x="95" y="75"/>
			<point x="116" y="57"/>
			<point x="146" y="57" type="curve" smooth="yes"/>
		</contour>
		<contour>
			<point x="378" y="202" type="line"/>
			<point x="376" y="287" type="line"/>
			<point x="177" y="287" type="line" smooth="yes"/>
			<point x="143" y="287"/>
			<point x="124" y="271"/>
			<point x="121" y="247" type="curve" smooth="yes"/>
			<point x="119" y="223"/>
			<point x="136" y="202"/>
			<point x="171" y="202" type="curve" smooth="yes"/>
		</contour>
	</outline>
</glyph>
<glyph name=".notdef" format="2">
	<advance width="697"/>
	<outline>
		<contour>
			<point x="519" y="0" type="line" smooth="yes"/>
			<point x="544" y="0"/>
			<point x="567" y="26"/>
			<point x="571" y="49" type="curve" smooth="yes"/>
			<point x="678" y="659" type="line" smooth="yes"/>
			<point x="683" y="687"/>
			<point x="668" y="700"/>
			<point x="631" y="700" type="curve"/>
			<point x="251" y="700" type="line"/>
			<point x="223" y="700"/>
			<point x="202" y="687"/>
			<point x="197" y="659" type="curve" smooth="yes"/>
			<point x="90" y="49" type="line" smooth="yes"/>
			<point x="85" y="21"/>
			<point x="99" y="0"/>
			<point x="138" y="0" type="curve" smooth="yes"/>
		</contour>
		<contour>
			<point x="200" y="95" type="line"/>
			<point x="290" y="605" type="line"/>
			<point x="567" y="605" type="line"/>
			<point x="477" y="95" type="line"/>
		</contour>
	</outline>
</glyph>
<glyph name="a.sc" format="2">
	<advance width="448"/>
	<guideline x="270" y="396" angle="0"/>
	<outline>
		<contour>
			<point x="286" y="317" type="line"/>
			<point x="303" y="348" type="line"/>
			<point x="312" y="380"/>
			<point x="294" y="396"/>
			<point x="263" y="396" type="curve" smooth="yes"/>
			<point x="239" y="396"/>
			<point x="227" y="383"/>
			<point x="219" y="367" type="curve" smooth="yes"/>
			<point x="62" y="65" type="line" smooth="yes"/>
			<point x="46" y="34"/>
			<point x="56" y="0"/>
			<point x="89" y="0" type="curve" smooth="yes"/>
			<point x="111" y="0"/>
			<point x="126" y="9"/>
			<point x="137" y="31" type="curve" smooth="yes"/>
		</contour>
		<contour>
			<point x="121" y="151" type="line"/>
			<point x="311" y="151" type="line"/>
			<point x="304" y="221" type="line"/>
			<point x="164" y="221" type="line"/>
		</contour>
		<contour>
			<point x="305" y="371" type="line"/>
			<point x="238" y="326" type="line"/>
			<point x="255" y="45" type="line" smooth="yes"/>
			<point x="257" y="18"/>
			<point x="269" y="0"/>
			<point x="297" y="0" type="curve" smooth="yes"/>
			<point x="324" y="0"/>
			<point x="340" y="21"/>
			<point x="337" y="50" type="curve" smooth="yes"/>
		</contour>
	</outline>
</glyph>
<glyph name="b.sc" format="2">
	<advance width="355"/>
	<outline>
		<contour>
			<point x="178" y="340" type="line" smooth="yes"/>
			<point x="184" y="374"/>
			<point x="162" y="396"/>
			<point x="133" y="396" type="curve" smooth="yes"/>
			<point x="108" y="396"/>
			<point x="89" y="380"/>
			<point x="84" y="352" type="curve" smooth="yes"/>
			<point x="31" y="54" type="line" smooth="yes"/>
			<point x="26" y="25"/>
			<point x="48" y="0"/>
			<point x="78" y="0" type="curve" smooth="yes"/>
			<point x="100" y="0"/>
			<point x="121" y="16"/>
			<point x="126" y="43" type="curve" smooth="yes"/>
		</contour>
		<contour>
			<point x="77" y="0" type="line"/>
			<point x="221" y="0"/>
			<point x="271" y="17"/>
			<point x="288" y="100" type="curve" smooth="yes"/>
			<point x="304" y="199"/>
			<point x="192" y="226"/>
			<point x="91" y="226" type="curve"/>
			<point x="77" y="153" type="line"/>
			<point x="164" y="153"/>
			<point x="203" y="141"/>
			<point x="199" y="115" type="curve" smooth="yes"/>
			<point x="195" y="91"/>
			<point x="175" y="80"/>
			<point x="91" y="80" type="curve"/>
		</contour>
		<contour>
			<point x="80" y="153" type="line"/>
			<point x="262" y="153"/>
			<point x="303" y="194"/>
			<point x="317" y="267" type="curve" smooth="yes"/>
			<point x="333" y="361"/>
			<point x="238" y="396"/>
			<point x="130" y="396" type="curve"/>
			<point x="113" y="317" type="line"/>
			<point x="208" y="317"/>
			<point x="232" y="302"/>
			<point x="228" y="280" type="curve" smooth="yes"/>
			<point x="222" y="248"/>
			<point x="213" y="226"/>
			<point x="94" y="226" type="curve"/>
		</contour>
	</outline>
</glyph>
<glyph name="c.sc" format="2">
	<advance width="370"/>
	<outline>
		<contour>
			<point x="146" y="0" type="curve" smooth="yes"/>
			<point x="207" y="0"/>
			<point x="244" y="34"/>
			<point x="291" y="101" type="curve" smooth="yes"/>
			<point x="304" y="122"/>
			<point x="308" y="142"/>
			<point x="304" y="157" type="curve" smooth="yes"/>
			<point x="300" y="175"/>
			<point x="286" y="186"/>
			<point x="264" y="186" type="curve" smooth="yes"/>
			<point x="242" y="186"/>
			<point x="231" y="177"/>
			<point x="214" y="154" type="curve" smooth="yes"/>
			<point x="177" y="101"/>
			<point x="163" y="90"/>
			<point x="151" y="90" type="curve" smooth="yes"/>
			<point x="145" y="90"/>
			<point x="145" y="99"/>
			<point x="145" y="113" type="curve" smooth="yes"/>
			<point x="145" y="139"/>
			<point x="153" y="178"/>
			<point x="157" y="203" type="curve" smooth="yes"/>
			<point x="168" y="265"/>
			<point x="179" y="306"/>
			<point x="270" y="306" type="curve" smooth="yes"/>
			<point x="284" y="306"/>
			<point x="310" y="305"/>
			<point x="322" y="312" type="curve" smooth="yes"/>
			<point x="350" y="327"/>
			<point x="353" y="369"/>
			<point x="325" y="387" type="curve" smooth="yes"/>
			<point x="316" y="392"/>
			<point x="291" y="396"/>
			<point x="270" y="396" type="curve" smooth="yes"/>
			<point x="104" y="396"/>
			<point x="77" y="294"/>
			<point x="62" y="211" type="curve" smooth="yes"/>
			<point x="61" y="203"/>
			<point x="51" y="148"/>
			<point x="51" y="111" type="curve" smooth="yes"/>
			<point x="51" y="61"/>
			<point x="60" y="0"/>
		</contour>
	</outline>
</glyph>
<glyph name="d.sc" format="2">
	<advance width="376"/>
	<outline>
		<contour>
			<point x="76" y="0" type="line"/>
			<point x="109" y="0" type="line" smooth="yes"/>
			<point x="210" y="0"/>
			<point x="304" y="78"/>
			<point x="327" y="205" type="curve" smooth="yes"/>
			<point x="345" y="313"/>
			<point x="258" y="396"/>
			<point x="150" y="396" type="curve" smooth="yes"/>
			<point x="132" y="396" type="line"/>
			<point x="122" y="316" type="line"/>
			<point x="153" y="316" type="line" smooth="yes"/>
			<point x="210" y="316"/>
			<point x="242" y="270"/>
			<point x="232" y="216" type="curve" smooth="yes"/>
			<point x="219" y="129"/>
			<point x="166" y="74"/>
			<point x="109" y="74" type="curve" smooth="yes"/>
			<point x="97" y="74" type="line"/>
		</contour>
		<contour>
			<point x="176" y="336" type="line" smooth="yes"/>
			<point x="181" y="367"/>
			<point x="165" y="396"/>
			<point x="133" y="396" type="curve" smooth="yes"/>
			<point x="110" y="396"/>
			<point x="89" y="385"/>
			<point x="83" y="353" type="curve" smooth="yes"/>
			<point x="30" y="52" type="line" smooth="yes"/>
			<point x="25" y="24"/>
			<point x="46" y="0"/>
			<point x="77" y="0" type="curve" smooth="yes"/>
			<point x="104" y="0"/>
			<point x="119" y="17"/>
			<point x="124" y="38" type="curve"/>
		</contour>
	</outline>
</glyph>
<glyph name="e.sc" format="2">
	<advance width="478"/>
	<outline>
		<contour>
			<point x="233" y="338" type="line" smooth="yes"/>
			<point x="238" y="367"/>
			<point x="223" y="396"/>
			<point x="189" y="396" type="curve" smooth="yes"/>
			<point x="164" y="396"/>
			<point x="144" y="384"/>
			<point x="139" y="353" type="curve" smooth="yes"/>
			<point x="86" y="52" type="line" smooth="yes"/>
			<point x="81" y="25"/>
			<point x="102" y="0"/>
			<point x="132" y="0" type="curve" smooth="yes"/>
			<point x="160" y="0"/>
			<point x="176" y="18"/>
			<point x="180" y="41" type="curve" smooth="yes"/>
		</contour>
		<contour>
			<point x="130" y="0" type="line"/>
			<point x="298" y="0" type="line" smooth="yes"/>
			<point x="327" y="0"/>
			<point x="346" y="18"/>
			<point x="346" y="42" type="curve" smooth="yes"/>
			<point x="346" y="66"/>
			<point x="326" y="77"/>
			<point x="298" y="77" type="curve" smooth="yes"/>
			<point x="146" y="77" type="line"/>
		</contour>
		<contour>
			<point x="145" y="151" type="line"/>
			<point x="311" y="151" type="line" smooth="yes"/>
			<point x="339" y="151"/>
			<point x="359" y="164"/>
			<point x="359" y="188" type="curve" smooth="yes"/>
			<point x="359" y="213"/>
			<point x="339" y="225"/>
			<point x="311" y="225" type="curve" smooth="yes"/>
			<point x="159" y="225" type="line"/>
		</contour>
		<contour>
			<point x="170" y="303" type="line"/>
			<point x="353" y="303" type="line" smooth="yes"/>
			<point x="380" y="303"/>
			<point x="400" y="323"/>
			<point x="400" y="349" type="curve" smooth="yes"/>
			<point x="400" y="376"/>
			<point x="380" y="396"/>
			<point x="353" y="396" type="curve" smooth="yes"/>
			<point x="186" y="396" type="line"/>
		</contour>
	</outline>
</glyph>
<glyph name="eight.c2sc" format="2">
	<advance width="404"/>
	<outline>
		<contour>
			<point x="213" y="242" type="line"/>
			<point x="160" y="245" type="line"/>
			<point x="91" y="197"/>
			<point x="68" y="145"/>
			<point x="68" y="106" type="curve" smooth="yes"/>
			<point x="68" y="64"/>
			<point x="92" y="-3"/>
			<point x="172" y="-3" type="curve" smooth="yes"/>
			<point x="253" y="-3"/>
			<point x="296" y="66"/>
			<point x="296" y="117" type="curve" smooth="yes"/>
			<point x="296" y="160"/>
			<point x="258" y="197"/>
			<point x="230" y="225" type="curve" smooth="yes"/>
		</contour>
		<contour>
			<point x="181" y="162" type="line" smooth="yes"/>
			<point x="177" y="166"/>
			<point x="216" y="137"/>
			<point x="216" y="117" type="curve" smooth="yes"/>
			<point x="216" y="99"/>
			<point x="194" y="78"/>
			<point x="175" y="78" type="curve" smooth="yes"/>
			<point x="161" y="78"/>
			<point x="148" y="89"/>
			<point x="148" y="110" type="curve" smooth="yes"/>
			<point x="148" y="129"/>
			<point x="163" y="147"/>
			<point x="182" y="161" type="curve"/>
		</contour>
		<contour>
			<point x="207" y="187" type="line"/>
			<point x="261" y="223"/>
			<point x="331" y="267"/>
			<point x="331" y="317" type="curve" smooth="yes"/>
			<point x="331" y="369"/>
			<point x="268" y="396"/>
			<point x="223" y="396" type="curve" smooth="yes"/>
			<point x="169" y="396"/>
			<point x="99" y="361"/>
			<point x="99" y="290" type="curve" smooth="yes"/>
			<point x="99" y="243"/>
			<point x="134" y="212"/>
			<point x="161" y="186" type="curve"/>
			<point x="230" y="225" type="line"/>
			<point x="217" y="248"/>
			<point x="179" y="266"/>
			<point x="179" y="294" type="curve" smooth="yes"/>
			<point x="179" y="308"/>
			<point x="197" y="325"/>
			<point x="217" y="325" type="curve" smooth="yes"/>
			<point x="232" y="325"/>
			<point x="250" y="322"/>
			<point x="250" y="316" type="curve" smooth="yes"/>
			<point x="250" y="309"/>
			<point x="220" y="290"/>
			<point x="134" y="225" type="curve"/>
		</contour>
	</outline>
</glyph>
<glyph name="exclam.c2sc" format="2">
	<advance width="327"/>
	<outline>
		<contour>
			<point x="132" y="-47" type="curve" smooth="yes"/>
			<point x="162" y="-47"/>
			<point x="189" y="-20"/>
			<point x="189" y="9" type="curve" smooth="yes"/>
			<point x="189" y="38"/>
			<point x="162" y="64"/>
			<point x="132" y="64" type="curve" smooth="yes"/>
			<point x="101" y="64"/>
			<point x="79" y="36"/>
			<point x="79" y="9" type="curve" smooth="yes"/>
			<point x="79" y="-18"/>
			<point x="101" y="-47"/>
		</contour>
		<contour>
			<point x="243" y="340" type="line" smooth="yes"/>
			<point x="249" y="370"/>
			<point x="229" y="396"/>
			<point x="199" y="396" type="curve" smooth="yes"/>
			<point x="173" y="396"/>
			<point x="149" y="381"/>
			<point x="144" y="353" type="curve" smooth="yes"/>
			<point x="114" y="186" type="line" smooth="yes"/>
			<point x="108" y="154"/>
			<point x="133" y="129"/>
			<point x="161" y="129" type="curve" smooth="yes"/>
			<point x="187" y="129"/>
			<point x="207" y="146"/>
			<point x="213" y="172" type="curve" smooth="yes"/>
		</contour>
	</outline>
</glyph>
<glyph name="exclamdown.c2sc" format="2">
	<advance width="327"/>
	<outline>
		<contour>
			<point x="203" y="443" type="curve" smooth="yes"/>
			<point x="173" y="443"/>
			<point x="146" y="416"/>
			<point x="146" y="387" type="curve" smooth="yes"/>
			<point x="146" y="358"/>
			<point x="173" y="332"/>
			<point x="203" y="332" type="curve" smooth="yes"/>
			<point x="234" y="332"/>
			<point x="256" y="360"/>
			<point x="256" y="387" type="curve" smooth="yes"/>
			<point x="256" y="414"/>
			<point x="234" y="443"/>
		</contour>
		<contour>
			<point x="92" y="56" type="line" smooth="yes"/>
			<point x="86" y="26"/>
			<point x="106" y="0"/>
			<point x="136" y="0" type="curve" smooth="yes"/>
			<point x="162" y="0"/>
			<point x="186" y="15"/>
			<point x="191" y="43" type="curve" smooth="yes"/>
			<point x="221" y="210" type="line" smooth="yes"/>
			<point x="227" y="242"/>
			<point x="202" y="267"/>
			<point x="174" y="267" type="curve" smooth="yes"/>
			<point x="148" y="267"/>
			<point x="128" y="250"/>
			<point x="122" y="224" type="curve" smooth="yes"/>
		</contour>
	</outline>
</glyph>
<glyph name="f.sc" format="2">
	<advance width="350"/>
	<outline>
		<contour>
			<point x="177" y="336" type="line" smooth="yes"/>
			<point x="182" y="366"/>
			<point x="167" y="396"/>
			<point x="133" y="396" type="curve" smooth="yes"/>
			<point x="108" y="396"/>
			<point x="88" y="384"/>
			<point x="83" y="353" type="curve" smooth="yes"/>
			<point x="30" y="52" type="line" smooth="yes"/>
			<point x="25" y="25"/>
			<point x="46" y="0"/>
			<point x="76" y="0" type="curve" smooth="yes"/>
			<point x="104" y="0"/>
			<point x="121" y="19"/>
			<point x="125" y="40" type="curve" smooth="yes"/>
		</contour>
		<contour>
			<point x="114" y="151" type="line"/>
			<point x="254" y="151" type="line" smooth="yes"/>
			<point x="283" y="151"/>
			<point x="302" y="168"/>
			<point x="302" y="192" type="curve" smooth="yes"/>
			<point x="302" y="218"/>
			<point x="282" y="225"/>
			<point x="254" y="225" type="curve" smooth="yes"/>
			<point x="128" y="225" type="line"/>
		</contour>
		<contour>
			<point x="118" y="303" type="line"/>
			<point x="297" y="303" type="line" smooth="yes"/>
			<point x="324" y="303"/>
			<point x="344" y="323"/>
			<point x="344" y="349" type="curve" smooth="yes"/>
			<point x="344" y="376"/>
			<point x="324" y="396"/>
			<point x="297" y="396" type="curve" smooth="yes"/>
			<point x="132" y="396" type="line"/>
		</contour>
	</outline>
</glyph>
<glyph name="five.c2sc" format="2">
	<advance width="405"/>
	<outline>
		<contour>
			<point x="135" y="172" type="line"/>
			<point x="154" y="177"/>
			<point x="167" y="183"/>
			<point x="190" y="180" type="curve" smooth="yes"/>
			<point x="211" y="177"/>
			<point x="220" y="171"/>
			<point x="220" y="151" type="curve" smooth="yes"/>
			<point x="220" y="126"/>
			<point x="190" y="85"/>
			<point x="160" y="85" type="curve" smooth="yes"/>
			<point x="141" y="85"/>
			<point x="136" y="89"/>
			<point x="130" y="93" type="curve" smooth="yes"/>
			<point x="123" y="98"/>
			<point x="111" y="103"/>
			<point x="93" y="103" type="curve" smooth="yes"/>
			<point x="77" y="103"/>
			<point x="54" y="85"/>
			<point x="54" y="67" type="curve" smooth="yes"/>
			<point x="54" y="52"/>
			<point x="58" y="37"/>
			<point x="70" y="26" type="curve" smooth="yes"/>
			<point x="87" y="10"/>
			<point x="116" y="-4"/>
			<point x="150" y="-4" type="curve" smooth="yes"/>
			<point x="247" y="-4"/>
			<point x="314" y="92"/>
			<point x="314" y="156" type="curve" smooth="yes"/>
			<point x="314" y="215"/>
			<point x="262" y="269"/>
			<point x="183" y="269" type="curve" smooth="yes"/>
			<point x="156" y="269"/>
			<point x="126" y="261"/>
			<point x="120" y="259" type="curve"/>
		</contour>
		<contour>
			<point x="200" y="355" type="line"/>
			<point x="179" y="390" type="line"/>
			<point x="158" y="401"/>
			<point x="134" y="396"/>
			<point x="122" y="385" type="curve" smooth="yes"/>
			<point x="113" y="378"/>
			<point x="107" y="367"/>
			<point x="105" y="356" type="curve" smooth="yes"/>
			<point x="80" y="218" type="line" smooth="yes"/>
			<point x="75" y="191"/>
			<point x="98" y="171"/>
			<point x="126" y="171" type="curve" smooth="yes"/>
			<point x="147" y="171"/>
			<point x="171" y="185"/>
			<point x="175" y="208" type="curve" smooth="yes"/>
		</contour>
		<contour>
			<point x="155" y="311" type="line"/>
			<point x="301" y="311" type="line" smooth="yes"/>
			<point x="330" y="311"/>
			<point x="348" y="330"/>
			<point x="348" y="353" type="curve" smooth="yes"/>
			<point x="348" y="375"/>
			<point x="331" y="396"/>
			<point x="301" y="396" type="curve" smooth="yes"/>
			<point x="155" y="396" type="line"/>
		</contour>
	</outline>
</glyph>
<glyph name="four.c2sc" format="2">
	<advance width="410"/>
	<outline>
		<contour>
			<point x="204" y="345" type="line" smooth="yes"/>
			<point x="210" y="376"/>
			<point x="185" y="396"/>
			<point x="159" y="396" type="curve" smooth="yes"/>
			<point x="138" y="396"/>
			<point x="115" y="383"/>
			<point x="110" y="358" type="curve" smooth="yes"/>
			<point x="68" y="129" type="line" smooth="yes"/>
			<point x="63" y="103"/>
			<point x="86" y="80"/>
			<point x="115" y="80" type="curve" smooth="yes"/>
			<point x="141" y="80"/>
			<point x="158" y="99"/>
			<point x="162" y="122" type="curve" smooth="yes"/>
		</contour>
		<contour>
			<point x="294" y="191" type="line" smooth="yes"/>
			<point x="299" y="218"/>
			<point x="280" y="241"/>
			<point x="260" y="243" type="curve" smooth="yes"/>
			<point x="235" y="246"/>
			<point x="205" y="235"/>
			<point x="200" y="206" type="curve" smooth="yes"/>
			<point x="172" y="53" type="line" smooth="yes"/>
			<point x="167" y="23"/>
			<point x="188" y="0"/>
			<point x="214" y="0" type="curve" smooth="yes"/>
			<point x="235" y="0"/>
			<point x="261" y="12"/>
			<point x="266" y="39" type="curve" smooth="yes"/>
		</contour>
		<contour>
			<point x="112" y="80" type="line"/>
			<point x="314" y="80" type="line" smooth="yes"/>
			<point x="341" y="80"/>
			<point x="362" y="101"/>
			<point x="362" y="124" type="curve" smooth="yes"/>
			<point x="362" y="147"/>
			<point x="341" y="165"/>
			<point x="314" y="165" type="curve" smooth="yes"/>
			<point x="112" y="165" type="line"/>
		</contour>
	</outline>
</glyph>
